<?xml version="1.0" encoding="UTF-8"?>
<svg width="297mm" height="210mm" version="1.0" xmlns="http://www.w3.org/2000/svg" xmlns:xlink="http://www.w3.org/1999/xlink"><link id="dark-mode" rel="stylesheet" type="text/css"/><style id="dark-mode-custom-style" type="text/css"/><use transform="translate(290.6 8.506)" width="1488.189" height="1052.362" xlink:href="#ButterflyValve"/><use transform="translate(317.6 8.108)" width="1488.189" height="1052.362" xlink:href="#gButterflyValve"/><g fill="none" stroke="#000" stroke-width="1.24"><path d="m490.7 593.5h5.283"/><path d="m558.3 593.4 155.7 0.0823"/><path d="m419.8 593.5h93.01"/><g stroke-linejoin="round"><path d="m345.2 637.8 8.858 17.72h-17.72l8.858-17.72-8.858-17.72h17.72z"/><path d="m345.1 628.9c4.895-2e-3 8.864 3.965 8.864 8.86s-3.969 8.863-8.864 8.86c-4.895 2e-3 -8.864-3.965-8.864-8.86s3.969-8.863 8.864-8.86z"/><rect id="SHMI_DO8_D" x="380.7" y="584.7" width="35.43" height="17.72"/></g><path d="m380.7 584.7 35.43 17.72" stroke-linecap="round"/></g><g stroke="#000" stroke-linejoin="round"><path d="m403.1 593.5c1e-3 2.565-2.078 4.644-4.642 4.644s-4.643-2.08-4.642-4.644c-1e-3 -2.565 2.078-4.644 4.642-4.644s4.643 2.08 4.642 4.644z" fill-rule="evenodd" stroke-width=".886"/><path d="m619.9 469.5 8.858 17.72h-17.72l8.858-17.72-17.72 8.858v-17.72l17.72 8.858z" fill="none" stroke-linecap="round" stroke-width="1.24"/><path d="m620 434.1 8.838 2.946-17.68 5.892 17.68 5.892-17.68 5.892 8.838 2.946v11.78" fill="none" stroke-linecap="round" stroke-width="1.24"/><path d="m615.3 469.5c-1e-3 2.565 2.078 4.644 4.642 4.644s4.643-2.08 4.642-4.644c1e-3 -2.565-2.078-4.644-4.642-4.644s-4.643 2.08-4.642 4.644z" fill-rule="evenodd" stroke-width=".819"/></g><path d="m608.1 461.8v15.49" fill="none" stroke="#000" stroke-linecap="round" stroke-width="3.543"/><path id="p_ArrowInOut" d="m841.6 584.7h17.72v-8.858l17.72 17.72-17.72 17.72v-8.858h-17.72v-17.72z" fill="none" stroke="#000" stroke-linecap="round" stroke-linejoin="round" stroke-width="1.24"/><path id="p_Reducer" d="m442.8 584.8 35.43 8.858-35.43 8.858v-17.72z" fill="none" stroke="#000" stroke-linecap="round" stroke-linejoin="round" stroke-width="1.24"/><path id="SHMI_AI1_L" d="m274.6 540.6v-226.6s35.36-17.68 70.72-17.68 70.72 17.68 70.72 17.68v226.6s-35.36 17.68-70.72 17.68-70.72-17.68-70.72-17.68z" fill="url(#linearGradient2480)" stroke="#000" stroke-linecap="round" stroke-linejoin="round" stroke-width="1.24"><title fill="url(#linearGradient2480)">SHMI_Vessel_!</title></path><g fill="none" stroke="#000" stroke-width="1.24"><path d="m549 593.5c0 14.67-11.89 26.56-26.56 26.56s-26.56-11.89-26.56-26.56 11.89-26.56 26.56-26.56 26.56 11.89 26.56 26.56z" stroke-linejoin="round"/><path d="m522.5 567 26.57 26.57-26.57 26.57" stroke-linejoin="bevel"/><path d="m495.9 593.5h53.15"/></g><use transform="translate(-655.6 -248)" width="1488.189" height="1052.362" xlink:href="#p_ArrowInOut"/><g fill="none"><g stroke="#000" stroke-width="1.24"><path d="m345.1 570.4 0.046 49.22"/><path d="m261.9 345.4h-40.29"/><path id="p_OutletAtmosphere" d="m292 269.3 17.72-17.72 17.72 17.72m-17.72 0v17.72" stroke-linecap="round" stroke-linejoin="round"/></g><use transform="matrix(-1 0 0 1 1045 -.02476)" width="1488.189" height="1052.3621" xlink:href="#p_Reducer"/><g stroke="#000"><path id="SHMI_DO1_D" d="m540.7 531.9c0 9.866-7.99 17.86-17.85 17.86s-17.85-7.998-17.85-17.86 7.99-17.86 17.85-17.86 17.85 7.998 17.85 17.86z" stroke-linejoin="round" stroke-width="1.24"><title>SHMI_Motor_01</title></path><path d="m516.5 540.7v-17.48l6.315 8.74 6.315-8.74v17.48" stroke-linecap="round" stroke-linejoin="round" stroke-width="1.24"/><path d="m522.5 549.6v17.47" stroke-width=".638"/><path id="p_Flange" d="m419.4 584.7v17.72" stroke-linecap="round" stroke-width="1.772"/><path d="m377.6 584.7v17.72" stroke-linecap="round" stroke-width="1.772"/><rect x="717.5" y="584.8" width="35.43" height="17.72" stroke-linejoin="round" stroke-width="1.24"/><path d="m717.5 584.8 35.43 17.72" stroke-linecap="round" stroke-width="1.24"/></g></g><g stroke="#000"><path d="m722.1 584.8c1e-3 2.565-2.078 4.644-4.642 4.644-2.565 0-4.643-2.08-4.642-4.644-1e-3 -2.565 2.078-4.644 4.642-4.644 2.565 0 4.643 2.08 4.642 4.644z" fill-rule="evenodd" stroke-linejoin="round" stroke-width=".592"/><rect id="SHMI_DO2_D" x="779.5" y="584.8" width="35.43" height="17.72" fill="none" stroke-linejoin="round" stroke-width="1.24"/><path d="m779.5 584.8 35.43 17.72" fill="none" stroke-linecap="round" stroke-width="1.24"/><path d="m801.8 593.6c1e-3 2.565-2.078 4.644-4.642 4.644-2.565 0-4.643-2.08-4.642-4.644-1e-3 -2.565 2.078-4.644 4.642-4.644 2.565 0 4.643 2.08 4.642 4.644z" fill-rule="evenodd" stroke-linejoin="round" stroke-width=".886"/></g><g fill="none" stroke="#000"><g stroke-linecap="round" stroke-width="1.772"><path d="m817.8 584.8v17.72"/><path d="m776.4 584.8v17.72"/><path d="m755.8 584.8v17.72"/><path d="m714.7 584.8v17.72"/><path d="m557.9 584.4v17.72"/><path d="m554.5 584.4v17.72"/><path d="m490.5 584.7v17.72"/><path d="m487.1 584.7v17.72"/><path d="m265.7 336.9v17.72"/><path d="m262.3 336.9v17.72"/><path d="m336.4 567h17.72"/><path d="m336.4 570.4h17.72"/><path d="m380.8 290.2h17.72"/><path d="m380.8 293.6h17.72"/><path d="m301.2 287.5h17.72"/><path d="m301.2 290.9h17.72"/><path d="m428.6 331.8v17.72"/><path d="m425.2 331.8v17.72"/><path d="m336.3 659.1h17.72"/></g><g stroke-width="1.24"><path d="m416.2 506.9h8.956"/><path d="m416 489.2h9.115"/><path d="m274.5 345.4h-8.498"/><path d="m424.8 340.5h-8.498"/><path d="m309.7 301.2v-10.02"/><path d="m389.7 303.3v-8.867"/><path d="m673 478.3c17.72 1e-5 30.18 1e-5 53.15 0 14.17 0 26.57 12.4 26.57 26.57s-12.4 26.57-26.57 26.57h-53.15c-14.17 0-26.57-12.4-26.57-26.57s12.4-26.57 26.57-26.57z"/></g><path d="m699.6 531.2v61.87" stroke-width=".638"/><path id="SHMI_DI1_D" d="m363.2 194.9c17.72 1e-5 30.18 1e-5 53.15 0 14.17 0 26.57 12.4 26.57 26.57s-12.4 26.57-26.57 26.57h-53.15c-14.17 0-26.57-12.4-26.57-26.57s12.4-26.57 26.57-26.57z" stroke-width="1.24"/><g stroke-width=".638"><path d="m389.8 248v41.37"/><path d="m522.5 345.5v161.6" stroke-dasharray="5.102, 2.551" stroke-linecap="round"/><path d="m522.5 194.8-59.93 0.0762" stroke-dasharray="5.102, 2.551" stroke-linecap="round"/></g><g stroke-width="1.24"><path d="m619.9 487.7v104.9"/><g stroke-linecap="round"><path d="m428.6 340.2 129.2-0.0612"/><path d="m558.1 469.5h43.89"/><path d="m557.9 340.2v129.4"/></g></g><path d="m522.5 194.9v140.5" stroke-dasharray="5.102, 2.551" stroke-linecap="round" stroke-width=".638"/><g stroke-width="1.24"><path d="m345.2 558.1v8.84"/><path d="m345 593.5 32.08-0.0319"/><path d="m549.1 593.5h5.283"/><path d="m756.4 593.5h19.15"/><path d="m817.9 593.5 23.02-0.0581"/></g><g stroke-linecap="round" stroke-width="1.772"><path d="m424.9 485.8v24.16"/><path d="m428.4 485.8v24.16"/><path d="m265.5 514.2v17.72"/><path d="m262.1 514.2v17.72"/></g><g stroke-width="1.24"><path d="m274.4 522.7h-8.498"/><path d="m150.3 496.1c17.72 1e-5 30.18 1e-5 53.15 0 14.17 0 26.57 12.4 26.57 26.57s-12.4 26.57-26.57 26.57h-53.15c-14.17 0-26.57-12.4-26.57-26.57s12.4-26.57 26.57-26.57z"/><path d="m261.9 522.6h-137.6"/></g><g stroke-width="1.24"><path d="m26.55 318.9h150.7v53.15h-150.7v-53.15" stroke-linecap="round" stroke-linejoin="round"/><path d="m26.05 345.4h151.2" stroke-linejoin="round"/><path d="m185.9 345.4h-8.96"/><path d="m885.8 567 150.6-0.0581v53.15l-150.6 0.0581v-53.15" stroke-linecap="round" stroke-linejoin="round"/><path d="m886.3 593.5h149.5" stroke-linejoin="round"/><path d="m886.1 593.5h-8.923"/></g></g><path d="m526.3 505.5-3.815 7.631-3.815-7.631h7.631z" fill-rule="evenodd" stroke="#000" stroke-linecap="round" stroke-linejoin="round" stroke-width="1.24"/><g font-family="Arial" text-anchor="middle"><g font-size="18px"><text transform="scale(1.03 .971)" x="96.674004" y="347.36499" text-align="center" style="line-height:36.86055243%" space="preserve"><tspan x="96.674004" y="347.36499"><tspan x="96.674004" y="347.36499">Lösung</tspan></tspan></text><text transform="scale(1.03 .971)" x="171.937" y="558.14099" text-align="center" style="line-height:36.86055243%" space="preserve"><tspan x="171.937" y="558.14099"><tspan x="171.937" y="558.14099">0012</tspan></tspan></text><text transform="scale(1.03 .971)" x="172.72501" y="531.10303" text-align="center" style="line-height:36.86055243%" space="preserve"><tspan x="172.72501" y="531.10303"><tspan x="172.72501" y="531.10303">L</tspan></tspan></text></g><text transform="scale(1.03 .9709)" x="231.61105" y="560.84247" font-size="12.32px" text-align="center" style="line-height:36.86055243%" space="preserve"><tspan x="231.61105" y="560.84247"><tspan x="231.61105" y="560.84247">AL</tspan></tspan></text><g font-size="18px"><text transform="scale(1.03 .971)" x="142.448" y="421.48099" text-align="center" style="line-height:36.86055243%" space="preserve"><tspan x="142.448" y="421.48099"><tspan x="142.448" y="421.48099">01-100-PE-N</tspan></tspan></text><text transform="scale(1.03 .971)" x="98.114998" y="373.50201" text-align="center" style="line-height:36.86055243%" space="preserve"><tspan x="98.114998" y="373.50201"><tspan x="98.114998" y="373.50201">von Hauptanlage</tspan></tspan></text><text transform="scale(1.03 .971)" x="300.19901" y="332.13101" text-align="center" style="line-height:36.86055243%" space="preserve"><tspan x="300.19901" y="332.13101"><tspan x="300.19901" y="332.13101">N4</tspan></tspan></text><text transform="scale(1.03 .971)" x="284.09299" y="361.241" text-align="center" style="line-height:36.86055243%" space="preserve"><tspan x="284.09299" y="361.241"><tspan x="284.09299" y="361.241">N1</tspan></tspan></text><text transform="scale(1.03 .971)" x="372.05099" y="332.13101" text-align="center" style="line-height:36.86055243%" space="preserve"><tspan x="372.05099" y="332.13101"><tspan x="372.05099" y="332.13101">N5</tspan></tspan></text><text transform="scale(1.03 .971)" x="385.073" y="357.02399" text-align="center" style="line-height:36.86055243%" space="preserve"><tspan x="385.073" y="357.02399"><tspan x="385.073" y="357.02399">N2</tspan></tspan></text><text transform="scale(1.03 .971)" x="336.966" y="434.862" text-align="center" style="line-height:36.86055243%" space="preserve"><tspan x="336.966" y="434.862"><tspan x="336.966" y="434.862">B001</tspan></tspan></text><text transform="scale(1.03 .971)" x="281.32001" y="544.71802" text-align="center" style="line-height:36.86055243%" space="preserve"><tspan x="281.32001" y="544.71802"><tspan x="281.32001" y="544.71802">N6</tspan></tspan></text><text transform="scale(1.03 .971)" x="335.685" y="565.659" text-align="center" style="line-height:36.86055243%" space="preserve"><tspan x="335.685" y="565.659"><tspan x="335.685" y="565.659">N3</tspan></tspan></text><text transform="scale(1.03 .971)" x="386.681" y="518.65601" text-align="center" style="line-height:36.86055243%" space="preserve"><tspan x="386.681" y="518.65601"><tspan x="386.681" y="518.65601">M1</tspan></tspan></text><text transform="scale(1.03 .971)" x="446.46799" y="592.80798" text-align="center" style="line-height:36.86055243%" space="preserve"><tspan x="446.46799" y="592.80798"><tspan x="446.46799" y="592.80798">100/50</tspan></tspan></text><text transform="scale(1.03 .971)" x="510.991" y="665.79401" text-align="center" style="line-height:36.86055243%" space="preserve"><tspan x="510.991" y="665.79401"><tspan x="510.991" y="665.79401">P001</tspan></tspan></text><text transform="scale(1.03 .971)" x="567.74597" y="592.80798" text-align="center" style="line-height:36.86055243%" space="preserve"><tspan x="567.74597" y="592.80798"><tspan x="567.74597" y="592.80798">100/50</tspan></tspan></text><text transform="scale(1.03 .971)" x="581.302" y="419.715" text-align="center" style="line-height:36.86055243%" space="preserve"><tspan x="581.302" y="419.715"><tspan x="581.302" y="419.715">PA=</tspan></tspan></text><text transform="scale(1.03 .971)" x="597.27197" y="437.742" text-align="center" style="line-height:36.86055243%" space="preserve"><tspan x="597.27197" y="437.742"><tspan x="597.27197" y="437.742">6 BARÜ</tspan></tspan></text><text transform="scale(1.03 .971)" x="678.401" y="539.86401" text-align="center" style="line-height:36.86055243%" space="preserve"><tspan x="678.401" y="539.86401"><tspan x="678.401" y="539.86401">0013</tspan></tspan></text><text transform="scale(1.03 .971)" x="677.87903" y="512.82599" text-align="center" style="line-height:36.86055243%" space="preserve"><tspan x="677.87903" y="512.82599"><tspan x="677.87903" y="512.82599">PI</tspan></tspan></text><text transform="scale(1.03 .971)" x="639.914" y="643.53003" text-align="center" style="line-height:36.86055243%" space="preserve"><tspan x="639.914" y="643.53003"><tspan x="639.914" y="643.53003">02-100-PE-N</tspan></tspan></text><text transform="scale(1.03 .971)" x="934.70099" y="602.58502" text-align="center" style="line-height:36.86055243%" space="preserve"><tspan x="934.70099" y="602.58502"><tspan x="934.70099" y="602.58502">Lösung</tspan></tspan></text><text transform="scale(1.03 .971)" x="933.008" y="629.94397" text-align="center" style="line-height:36.86055243%" space="preserve"><tspan x="933.008" y="629.94397"><tspan x="933.008" y="629.94397">zu Verbraucher</tspan></tspan></text><rect x="306.7" y="444.6" width="77.04" height="18.16" ry="2.393" fill="#272b30" stroke="#000025" stroke-linejoin="round" stroke-width="1.91" style="paint-order:markers stroke fill" onmouseover=""/><text transform="scale(1.03 .971)" x="378.57001" y="220.92799" text-align="center" style="line-height:36.86055243%" space="preserve"><tspan x="378.57001" y="220.92799"><tspan x="378.57001" y="220.92799">L</tspan></tspan></text><text id="SHMI_AI1_A" transform="scale(1.03 .9709)" x="336.70151" y="471.79785" fill="#ffffff" font-family="Arial" font-size="13.33px" font-weight="bold" text-align="center" text-anchor="middle" style="font-feature-settings:normal;font-variant-caps:normal;font-variant-ligatures:normal;font-variant-numeric:normal;line-height:36.86055243%" space="preserve"><tspan x="336.70151" y="471.79785" fill="#ffffff" font-family="Arial" font-size="13.33px" font-weight="bold" text-align="center" text-anchor="middle" style="font-feature-settings:normal;font-variant-caps:normal;font-variant-ligatures:normal;font-variant-numeric:normal"><tspan x="336.70151" y="471.79785" fill="#ffffff" font-family="Arial" font-size="13.33px" font-weight="bold" text-align="center" text-anchor="middle" style="font-feature-settings:normal;font-variant-caps:normal;font-variant-ligatures:normal;font-variant-numeric:normal">B001</tspan></tspan></text><text transform="scale(1.03 .971)" x="378.06299" y="247.965" text-align="center" style="line-height:36.86055243%" space="preserve"><tspan x="378.06299" y="247.965"><tspan x="378.06299" y="247.965">0011</tspan></tspan></text></g><text transform="scale(1.03 .9709)" x="439.8616" y="205.01633" font-size="12.32px" text-align="center" style="line-height:36.86055243%" space="preserve"><tspan x="439.8616" y="205.01633"><tspan x="439.8616" y="205.01633">SH</tspan></tspan></text></g><g fill="none" stroke="#000" stroke-width="1.24"><path d="m141.7 26.52 3e-5 116.9"/><path d="m354.3 126h-327.8"/><path d="m354.3 108.2h-327.1"/><path d="m353.7 62.18h-327.1"/><path d="m354.9 44.47h-327.8"/><path d="m248 26.66v117"/></g><g font-family="Arial"><g><text transform="scale(1.03 .9709)" x="31.904074" y="56.605679" font-size="10px" style="line-height:36.86055243%" space="preserve"><tspan x="31.904074" y="56.605679"><tspan x="31.904074" y="56.605679">Benennung</tspan></tspan></text><text transform="scale(1.03 .9709)" x="189.66933" y="42.838783" font-size="18px" text-align="center" text-anchor="middle" style="line-height:36.86055243%" space="preserve"><tspan x="189.66933" y="42.838783"><tspan x="189.66933" y="42.838783">B001</tspan></tspan></text><text transform="scale(1.03 .9709)" x="294.54013" y="43.020798" font-size="18px" text-align="center" text-anchor="middle" style="line-height:36.86055243%" space="preserve"><tspan x="294.54013" y="43.020798"><tspan x="294.54013" y="43.020798">P001</tspan></tspan></text></g><g font-size="10px"><text transform="scale(1.03 .971)" x="141.957" y="56.723999" style="line-height:36.86055243%" space="preserve"><tspan x="141.957" y="56.723999"><tspan x="141.957" y="56.723999">Pufferbehälter</tspan></tspan></text><text transform="scale(1.03 .971)" x="245.17999" y="56.602001" style="line-height:36.86055243%" space="preserve"><tspan x="245.17999" y="56.602001"><tspan x="245.17999" y="56.602001">Nachspeisepumpe</tspan></tspan></text><text transform="scale(1.03 .971)" x="245.51199" y="74.796997" style="line-height:36.86055243%" space="preserve"><tspan x="245.51199" y="74.796997"><tspan x="245.51199" y="74.796997">Q = 5 m3/h</tspan></tspan></text><text transform="scale(1.03 .971)" x="245.599" y="89.474998" style="line-height:36.86055243%" space="preserve"><tspan x="245.599" y="89.474998"><tspan x="245.599" y="89.474998">dp = 2,5 bar</tspan></tspan></text><text transform="scale(1.03 .971)" x="244.95799" y="122.307" style="line-height:36.86055243%" space="preserve"><tspan x="244.95799" y="122.307"><tspan x="244.95799" y="122.307">10 bar</tspan></tspan></text><text transform="scale(1.03 .971)" x="245.526" y="140.657" style="line-height:36.86055243%" space="preserve"><tspan x="245.526" y="140.657"><tspan x="245.526" y="140.657">50 °C</tspan></tspan></text><text transform="scale(1.03 .971)" x="141.957" y="74.866997" style="line-height:36.86055243%" space="preserve"><tspan x="141.957" y="74.866997"><tspan x="141.957" y="74.866997">D = 1000</tspan></tspan></text><text transform="scale(1.03 .971)" x="141.927" y="89.459" style="line-height:36.86055243%" space="preserve"><tspan x="141.927" y="89.459"><tspan x="141.927" y="89.459">H = 3000</tspan></tspan></text><text transform="scale(1.03 .971)" x="142.685" y="104.072" style="line-height:36.86055243%" space="preserve"><tspan x="142.685" y="104.072"><tspan x="142.685" y="104.072">V = 2,4 m3</tspan></tspan></text><text transform="scale(1.03 .971)" x="141.64" y="122.307" style="line-height:36.86055243%" space="preserve"><tspan x="141.64" y="122.307"><tspan x="141.64" y="122.307">10 bar</tspan></tspan></text><text transform="scale(1.03 .971)" x="142.314" y="140.554" style="line-height:36.86055243%" space="preserve"><tspan x="142.314" y="140.554"><tspan x="142.314" y="140.554">50 °C</tspan></tspan></text><text transform="scale(1.03 .971)" x="32.401001" y="74.848999" style="line-height:36.86055243%" space="preserve"><tspan x="32.401001" y="74.848999"><tspan x="32.401001" y="74.848999">Technische Daten</tspan></tspan></text><text transform="scale(1.03 .971)" x="32.433998" y="122.442" style="line-height:36.86055243%" space="preserve"><tspan x="32.433998" y="122.442"><tspan x="32.433998" y="122.442">Zulässiger Überdruck</tspan></tspan></text><text transform="scale(1.03 .971)" x="32.727001" y="140.57899" style="line-height:36.86055243%" space="preserve"><tspan x="32.727001" y="140.57899"><tspan x="32.727001" y="140.57899">Zulässige Temperatur</tspan></tspan></text></g></g><g fill="none" stroke="#000"><rect x="26.52" y="26.52" width="327.8" height="116.9" stroke-linejoin="round" stroke-width="1.24"/><path d="m204.2 417-113.4 0.1443" stroke-linecap="round" stroke-width=".638"/><path d="m243.4 347.8-39.22 69.29" stroke-linecap="round" stroke-width=".638"/></g></svg>
