<svg width="297mm" height="210mm" xmlns:cc="http://creativecommons.org/ns#" xmlns:dc="http://purl.org/dc/elements/1.1/" xmlns:rdf="http://www.w3.org/1999/02/22-rdf-syntax-ns#" version="1.0" xmlns:xlink="http://www.w3.org/1999/xlink" xmlns="http://www.w3.org/2000/svg"><metadata><rdf:RDF><cc:Work rdf:about=""><dc:format>image/svg+xml</dc:format><dc:type rdf:resource="http://purl.org/dc/dcmitype/StillImage"/><dc:title/></cc:Work></rdf:RDF></metadata><link id="dark-mode" href="" rel="stylesheet" type="text/css"/><style id="dark-mode-custom-style" type="text/css"/><use transform="translate(290.6 8.506)" width="1488.189" height="1052.3622" xlink:href="#ButterflyValve"/><use transform="translate(317.6 8.108)" width="1488.189" height="1052.3622" xlink:href="#gButterflyValve"/><g fill="none" stroke="#000"><g><g><path d="m490.7 593.5h5.283" stroke-width="1.24"/><path d="m558.3 593.4 155.7 0.08229" stroke-width="1.24"/><path d="m419.8 593.5h93.01" stroke-width="1.24"/></g><g stroke-linejoin="round" stroke-width="1.24"><path d="m345.2 637.8 8.858 17.72h-17.72l8.858-17.72-8.858-17.72h17.72l-8.858 17.72z"/><path d="m345.1 628.9c4.895-0.00216 8.864 3.965 8.864 8.86 0 4.895-3.969 8.863-8.864 8.86-4.895 0.00216-8.864-3.965-8.864-8.86s3.969-8.863 8.864-8.86z"/><rect x="380.7" y="584.7" width="35.43" height="17.72"/></g></g><path d="m380.7 584.7 35.43 17.72" stroke-linecap="round" stroke-width="1.24"/></g><g stroke="#000" stroke-linejoin="round"><path d="m403.1 593.5c0.00113 2.565-2.078 4.644-4.642 4.644s-4.643-2.08-4.642-4.644c-0.00113-2.565 2.078-4.644 4.642-4.644s4.643 2.08 4.642 4.644z" fill-rule="evenodd" stroke-width=".8858"/><path d="m619.9 469.5 8.858 17.72h-17.72l8.858-17.72-17.72 8.858v-17.72l17.72 8.858z" fill="#fff" fill-rule="evenodd" stroke-linecap="round" stroke-width="1.24"/><path d="m620 434.1 8.838 2.946-17.68 5.892 17.68 5.892-17.68 5.892 8.838 2.946v11.78" fill="none" stroke-linecap="round" stroke-width="1.24"/><path d="m615.3 469.5c-0.00113 2.565 2.078 4.644 4.642 4.644s4.643-2.08 4.642-4.644c0.00113-2.565-2.078-4.644-4.642-4.644s-4.643 2.08-4.642 4.644z" fill-rule="evenodd" stroke-width=".8185"/></g><path d="m608.1 461.8v15.49" fill="none" stroke="#000" stroke-linecap="round" stroke-width="3.543"/><path id="p_ArrowInOut" d="m841.6 584.7h17.72v-8.858l17.72 17.72-17.72 17.72v-8.858h-17.72v-17.72z" fill="none" stroke="#000" stroke-linecap="round" stroke-linejoin="round" stroke-width="1.24"/><path id="p_Reducer" d="m442.8 584.8 35.43 8.858-35.43 8.858v-17.72z" fill="none" stroke="#000" stroke-linecap="round" stroke-linejoin="round" stroke-width="1.24"/><path id="p_Vessel" d="m274.6 540.6v-226.6s35.36-17.68 70.72-17.68c35.36 0 70.72 17.68 70.72 17.68v226.6s-35.36 17.68-70.72 17.68c-35.36 0-70.72-17.68-70.72-17.68z" fill="none" stroke="#000" stroke-linecap="round" stroke-linejoin="round" stroke-width="1.24"/><g fill="none" stroke="#000" stroke-width="1.24"><path d="m549 593.5c0 14.67-11.89 26.56-26.56 26.56-14.67 0-26.56-11.89-26.56-26.56s11.89-26.56 26.56-26.56c14.67 0 26.56 11.89 26.56 26.56z" stroke-linejoin="round"/><path d="m522.5 567 26.57 26.57-26.57 26.57" stroke-linejoin="bevel"/><path d="m495.9 593.5h53.15"/></g><use transform="translate(-655.6 -248)" width="1488.189" height="1052.3622" xlink:href="#p_ArrowInOut"/><g fill="none"><g stroke="#000"><path d="m345.1 570.4 0.04598 49.22" stroke-width="1.24"/><path d="m261.9 345.4h-40.29" stroke-width="1.24"/><path id="p_OutletAtmosphere" d="m292 269.3 17.72-17.72 17.72 17.72m-17.72 0v17.72" stroke-linecap="round" stroke-linejoin="round" stroke-width="1.24"/></g><use transform="matrix(-1 0 0 1 1045 -.02476)" width="1488.189" height="1052.3622" xlink:href="#p_Reducer"/><g stroke="#000"><path d="m540.7 531.9c0 9.866-7.99 17.86-17.85 17.86s-17.85-7.998-17.85-17.86 7.99-17.86 17.85-17.86 17.85 7.998 17.85 17.86z" stroke-linejoin="round" stroke-width="1.24"/><path d="m516.5 540.7v-17.48l6.315 8.74 6.315-8.74v17.48" stroke-linecap="round" stroke-linejoin="round" stroke-width="1.24"/><g><path d="m522.5 549.6v17.47" stroke-width=".6378"/><path id="p_Flange" d="m419.4 584.7v17.72" stroke-linecap="round" stroke-width="1.772"/><path d="m377.6 584.7v17.72" stroke-linecap="round" stroke-width="1.772"/></g><rect x="717.5" y="584.8" width="35.43" height="17.72" stroke-linejoin="round" stroke-width="1.24"/><path d="m717.5 584.8 35.43 17.72" stroke-linecap="round" stroke-width="1.24"/></g></g><g stroke="#000"><path d="m722.1 584.8c0.0011 2.565-2.078 4.644-4.642 4.644-2.565 0-4.643-2.08-4.642-4.644-0.0011-2.565 2.078-4.644 4.642-4.644 2.565 0 4.643 2.08 4.642 4.644z" fill-rule="evenodd" stroke-linejoin="round" stroke-width=".5917"/><rect x="779.5" y="584.8" width="35.43" height="17.72" fill="none" stroke-linejoin="round" stroke-width="1.24"/><path d="m779.5 584.8 35.43 17.72" fill="none" stroke-linecap="round" stroke-width="1.24"/><path d="m801.8 593.6c0.0011 2.565-2.078 4.644-4.642 4.644-2.565 0-4.643-2.08-4.642-4.644-0.0011-2.565 2.078-4.644 4.642-4.644 2.565 0 4.643 2.08 4.642 4.644z" fill-rule="evenodd" stroke-linejoin="round" stroke-width=".8858"/></g><g fill="none" stroke="#000"><g><g stroke-linecap="round" stroke-width="1.772"><path d="m817.8 584.8v17.72"/><path d="m776.4 584.8v17.72"/><path d="m755.8 584.8v17.72"/><path d="m714.7 584.8v17.72"/><path d="m557.9 584.4v17.72"/><path d="m554.5 584.4v17.72"/><path d="m490.5 584.7v17.72"/><path d="m487.1 584.7v17.72"/><path d="m265.7 336.9v17.72"/><path d="m262.3 336.9v17.72"/><path d="m336.4 567h17.72"/><path d="m336.4 570.4h17.72"/><path d="m380.8 290.2h17.72"/><path d="m380.8 293.6h17.72"/><path d="m301.2 287.5h17.72"/><path d="m301.2 290.9h17.72"/><path d="m428.6 331.8v17.72"/><path d="m425.2 331.8v17.72"/><path d="m336.3 659.1h17.72"/></g><g><g stroke-width="1.24"><path d="m416.2 506.9h8.956"/><path d="m416 489.2h9.115"/><path d="m274.5 345.4h-8.498"/><path d="m424.8 340.5h-8.498"/></g><path d="m309.7 301.2v-10.02" stroke-width="1.24"/><path d="m389.7 303.3v-8.867" stroke-width="1.24"/><path d="m673 478.3c17.72 1e-5 30.18 1e-5 53.15 0 14.17 0 26.57 12.4 26.57 26.57s-12.4 26.57-26.57 26.57h-53.15c-14.17 0-26.57-12.4-26.57-26.57s12.4-26.57 26.57-26.57z" stroke-width="1.24"/><path d="m699.6 531.2v61.87" stroke-width=".6378"/><path d="m363.2 194.9c17.72 1e-5 30.18 1e-5 53.15 0 14.17 0 26.57 12.4 26.57 26.57s-12.4 26.57-26.57 26.57h-53.15c-14.17 0-26.57-12.4-26.57-26.57s12.4-26.57 26.57-26.57z" stroke-width="1.24"/><path d="m389.8 248v41.37" stroke-width=".6378"/></g></g><path d="m522.5 345.5v161.6" stroke-dasharray="5.1023622, 2.5511811" stroke-linecap="round" stroke-width=".6378"/><path d="m522.5 194.8-59.93 0.07623" stroke-dasharray="5.10236177, 2.55118087" stroke-linecap="round" stroke-width=".6378"/><g><path d="m619.9 487.7v104.9" stroke-width="1.24"/><g stroke-linecap="round"><path d="m428.6 340.2 129.2-0.06116" stroke-width="1.24"/><path d="m558.1 469.5h43.89" stroke-width="1.24"/><path d="m557.9 340.2v129.4" stroke-width="1.24"/></g></g><path d="m522.5 194.9v140.5" stroke-dasharray="5.10236109, 2.55118054" stroke-linecap="round" stroke-width=".6378"/><g><g><path d="m345.2 558.1v8.84" stroke-width="1.24"/><path d="m345 593.5 32.08-0.03193" stroke-width="1.24"/><path d="m549.1 593.5h5.283" stroke-width="1.24"/><path d="m756.4 593.5h19.15" stroke-width="1.24"/><path d="m817.9 593.5 23.02-0.05806" stroke-width="1.24"/></g><g stroke-linecap="round"><path d="m424.9 485.8v24.16" stroke-width="1.772"/><path d="m428.4 485.8v24.16" stroke-width="1.772"/><path d="m265.5 514.2v17.72" stroke-width="1.772"/><path d="m262.1 514.2v17.72" stroke-width="1.772"/></g><g><path d="m274.4 522.7h-8.498" stroke-width="1.24"/><path d="m150.3 496.1c17.72 1e-5 30.18 1e-5 53.15 0 14.17 0 26.57 12.4 26.57 26.57s-12.4 26.57-26.57 26.57h-53.15c-14.17 0-26.57-12.4-26.57-26.57s12.4-26.57 26.57-26.57z" stroke-width="1.24"/><path d="m261.9 522.6h-137.6" stroke-width="1.24"/></g><path d="m26.55 318.9h150.7v53.15h-150.7v-53.15" stroke-linecap="round" stroke-linejoin="round" stroke-width="1.24"/><path d="m26.05 345.4h151.2" stroke-linejoin="round" stroke-width="1.24"/><path d="m185.9 345.4h-8.96" stroke-width="1.24"/><path d="m885.8 567 150.6-0.05814v53.15l-150.6 0.05813v-53.15" stroke-linecap="round" stroke-linejoin="round" stroke-width="1.24"/><path d="m886.3 593.5h149.5" stroke-linejoin="round" stroke-width="1.24"/><path d="m886.1 593.5h-8.923" stroke-width="1.24"/></g></g><path d="m526.3 505.5-3.815 7.631-3.815-7.631h7.631z" fill-rule="evenodd" stroke="#000" stroke-linecap="round" stroke-linejoin="round" stroke-width="1.24"/><g font-family="Arial" text-anchor="middle"><text transform="scale(1.03 .971)" x="96.674217" y="347.36496" font-size="18px" text-align="center" style="line-height:36.86055541%" space="preserve"><tspan x="96.674217" y="347.36496"><tspan x="96.674217" y="347.36496">Lösung</tspan></tspan></text><text transform="scale(1.03 .971)" x="171.93739" y="558.14069" font-size="18px" text-align="center" style="line-height:36.86055541%" space="preserve"><tspan x="171.93739" y="558.14069"><tspan x="171.93739" y="558.14069">0012</tspan></tspan></text><text transform="scale(1.03 .971)" x="172.72505" y="531.10339" font-size="18px" text-align="center" style="line-height:36.86055541%" space="preserve"><tspan x="172.72505" y="531.10339"><tspan x="172.72505" y="531.10339">L</tspan></tspan></text><text transform="scale(1.03 .971)" x="231.59573" y="560.80554" font-size="12.32px" text-align="center" style="line-height:36.86055541%" space="preserve"><tspan x="231.59573" y="560.80554"><tspan x="231.59573" y="560.80554">AL</tspan></tspan></text><text transform="scale(1.03 .971)" x="142.44751" y="421.48056" font-size="18px" text-align="center" style="line-height:36.86055541%" space="preserve"><tspan x="142.44751" y="421.48056"><tspan x="142.44751" y="421.48056">01-100-PE-N</tspan></tspan></text><text transform="scale(1.03 .971)" x="98.115425" y="373.50204" font-size="18px" text-align="center" style="line-height:36.86055541%" space="preserve"><tspan x="98.115425" y="373.50204"><tspan x="98.115425" y="373.50204">von Hauptanlage</tspan></tspan></text><text transform="scale(1.03 .971)" x="300.19946" y="332.13089" font-size="18px" text-align="center" style="line-height:36.86055541%" space="preserve"><tspan x="300.19946" y="332.13089"><tspan x="300.19946" y="332.13089">N4</tspan></tspan></text><text transform="scale(1.03 .971)" x="284.09311" y="361.24072" font-size="18px" text-align="center" style="line-height:36.86055541%" space="preserve"><tspan x="284.09311" y="361.24072"><tspan x="284.09311" y="361.24072">N1</tspan></tspan></text><text transform="scale(1.03 .971)" x="372.05084" y="332.13089" font-size="18px" text-align="center" style="line-height:36.86055541%" space="preserve"><tspan x="372.05084" y="332.13089"><tspan x="372.05084" y="332.13089">N5</tspan></tspan></text><text transform="scale(1.03 .971)" x="385.07349" y="357.02386" font-size="18px" text-align="center" style="line-height:36.86055541%" space="preserve"><tspan x="385.07349" y="357.02386"><tspan x="385.07349" y="357.02386">N2</tspan></tspan></text><g font-size="18px"><text transform="scale(1.03 .971)" x="336.96643" y="434.86234" text-align="center" style="line-height:36.86055541%" space="preserve"><tspan x="336.96643" y="434.86234"><tspan x="336.96643" y="434.86234">B001</tspan></tspan></text><text transform="scale(1.03 .971)" x="281.32004" y="544.71753" text-align="center" style="line-height:36.86055541%" space="preserve"><tspan x="281.32004" y="544.71753"><tspan x="281.32004" y="544.71753">N6</tspan></tspan></text><text transform="scale(1.03 .971)" x="335.68524" y="565.65894" text-align="center" style="line-height:36.86055541%" space="preserve"><tspan x="335.68524" y="565.65894"><tspan x="335.68524" y="565.65894">N3</tspan></tspan></text><text transform="scale(1.03 .971)" x="386.6814" y="518.65625" text-align="center" style="line-height:36.86055541%" space="preserve"><tspan x="386.6814" y="518.65625"><tspan x="386.6814" y="518.65625">M1</tspan></tspan></text></g><text transform="scale(1.03 .971)" x="446.46765" y="592.80835" font-size="18px" text-align="center" style="line-height:36.86055541%" space="preserve"><tspan x="446.46765" y="592.80835"><tspan x="446.46765" y="592.80835">100/50</tspan></tspan></text><text transform="scale(1.03 .971)" x="510.99063" y="665.79358" font-size="18px" text-align="center" style="line-height:36.86055541%" space="preserve"><tspan x="510.99063" y="665.79358"><tspan x="510.99063" y="665.79358">P001</tspan></tspan></text><text transform="scale(1.03 .971)" x="567.7464" y="592.80823" font-size="18px" text-align="center" style="line-height:36.86055541%" space="preserve"><tspan x="567.7464" y="592.80823"><tspan x="567.7464" y="592.80823">100/50</tspan></tspan></text><text transform="scale(1.03 .971)" x="581.30225" y="419.71497" font-size="18px" text-align="center" style="line-height:36.86055541%" space="preserve"><tspan x="581.30225" y="419.71497"><tspan x="581.30225" y="419.71497">PA=</tspan></tspan></text><text transform="scale(1.03 .971)" x="597.27197" y="437.74155" font-size="18px" text-align="center" style="line-height:36.86055541%" space="preserve"><tspan x="597.27197" y="437.74155"><tspan x="597.27197" y="437.74155">6 BARÜ</tspan></tspan></text><text transform="scale(1.03 .971)" x="678.4007" y="539.86353" font-size="18px" text-align="center" style="line-height:36.86055541%" space="preserve"><tspan x="678.4007" y="539.86353"><tspan x="678.4007" y="539.86353">0013</tspan></tspan></text><text transform="scale(1.03 .971)" x="677.87946" y="512.82605" font-size="18px" text-align="center" style="line-height:36.86055541%" space="preserve"><tspan x="677.87946" y="512.82605"><tspan x="677.87946" y="512.82605">PI</tspan></tspan></text><text transform="scale(1.03 .971)" x="639.91437" y="643.53033" font-size="18px" text-align="center" style="line-height:36.86055541%" space="preserve"><tspan x="639.91437" y="643.53033"><tspan x="639.91437" y="643.53033">02-100-PE-N</tspan></tspan></text><text transform="scale(1.03 .971)" x="934.70081" y="602.58521" font-size="18px" text-align="center" style="line-height:36.86055541%" space="preserve"><tspan x="934.70081" y="602.58521"><tspan x="934.70081" y="602.58521">Lösung</tspan></tspan></text><text transform="scale(1.03 .971)" x="933.008" y="629.94427" font-size="18px" text-align="center" style="line-height:36.86055541%" space="preserve"><tspan x="933.008" y="629.94427"><tspan x="933.008" y="629.94427">zu Verbraucher</tspan></tspan></text><text transform="scale(1.03 .971)" x="378.56958" y="220.92764" font-size="18px" text-align="center" style="line-height:36.86055541%" space="preserve"><tspan x="378.56958" y="220.92764"><tspan x="378.56958" y="220.92764">L</tspan></tspan></text><text transform="scale(1.03 .971)" x="378.06342" y="247.965" font-size="18px" text-align="center" style="line-height:36.86055541%" space="preserve"><tspan x="378.06342" y="247.965"><tspan x="378.06342" y="247.965">0011</tspan></tspan></text><text transform="scale(1.03 .971)" x="439.83347" y="205.00302" font-size="12.32px" text-align="center" style="line-height:36.86055541%" space="preserve"><tspan x="439.83347" y="205.00302"><tspan x="439.83347" y="205.00302">SH</tspan></tspan></text></g><g fill="none" stroke="#000" stroke-width="1.24"><path d="m141.7 26.52 3e-5 116.9"/><path d="m354.3 126h-327.8"/><path d="m354.3 108.2h-327.1"/><path d="m353.7 62.18h-327.1"/><path d="m354.9 44.47h-327.8"/><path d="m248 26.66v117"/></g><g font-family="Arial"><text transform="scale(1.03 .971)" x="31.902405" y="56.602448" font-size="10px" style="line-height:36.86055541%" space="preserve"><tspan x="31.902405" y="56.602448"><tspan x="31.902405" y="56.602448">Benennung</tspan></tspan></text><text transform="scale(1.03 .971)" x="189.65672" y="42.835972" font-size="18px" text-align="center" text-anchor="middle" style="line-height:36.86055541%" space="preserve"><tspan x="189.65672" y="42.835972"><tspan x="189.65672" y="42.835972">B001</tspan></tspan></text><text transform="scale(1.03 .971)" x="294.5209" y="43.018101" font-size="18px" text-align="center" text-anchor="middle" style="line-height:36.86055541%" space="preserve"><tspan x="294.5209" y="43.018101"><tspan x="294.5209" y="43.018101">P001</tspan></tspan></text><g font-size="10px"><text transform="scale(1.03 .971)" x="141.95735" y="56.724457" style="line-height:36.86055541%" space="preserve"><tspan x="141.95735" y="56.724457"><tspan x="141.95735" y="56.724457">Pufferbehälter</tspan></tspan></text><text transform="scale(1.03 .971)" x="245.17966" y="56.602448" style="line-height:36.86055541%" space="preserve"><tspan x="245.17966" y="56.602448"><tspan x="245.17966" y="56.602448">Nachspeisepumpe</tspan></tspan></text><text transform="scale(1.03 .971)" x="245.51172" y="74.7966" style="line-height:36.86055541%" space="preserve"><tspan x="245.51172" y="74.7966"><tspan x="245.51172" y="74.7966">Q = 5 m3/h</tspan></tspan></text><text transform="scale(1.03 .971)" x="245.59909" y="89.47506" style="line-height:36.86055541%" space="preserve"><tspan x="245.59909" y="89.47506"><tspan x="245.59909" y="89.47506">dp = 2,5 bar</tspan></tspan></text><text transform="scale(1.03 .971)" x="244.95825" y="122.30733" style="line-height:36.86055541%" space="preserve"><tspan x="244.95825" y="122.30733"><tspan x="244.95825" y="122.30733">10 bar</tspan></tspan></text><text transform="scale(1.03 .971)" x="245.52628" y="140.65742" style="line-height:36.86055541%" space="preserve"><tspan x="245.52628" y="140.65742"><tspan x="245.52628" y="140.65742">50 °C</tspan></tspan></text><text transform="scale(1.03 .971)" x="141.95735" y="74.866913" style="line-height:36.86055541%" space="preserve"><tspan x="141.95735" y="74.866913"><tspan x="141.95735" y="74.866913">D = 1000</tspan></tspan></text><text transform="scale(1.03 .971)" x="141.92726" y="89.459129" style="line-height:36.86055541%" space="preserve"><tspan x="141.92726" y="89.459129"><tspan x="141.92726" y="89.459129">H = 3000</tspan></tspan></text><text transform="scale(1.03 .971)" x="142.68462" y="104.07215" style="line-height:36.86055541%" space="preserve"><tspan x="142.68462" y="104.07215"><tspan x="142.68462" y="104.07215">V = 2,4 m3</tspan></tspan></text><text transform="scale(1.03 .971)" x="141.63985" y="122.30733" style="line-height:36.86055541%" space="preserve"><tspan x="141.63985" y="122.30733"><tspan x="141.63985" y="122.30733">10 bar</tspan></tspan></text><text transform="scale(1.03 .971)" x="142.31371" y="140.55367" style="line-height:36.86055541%" space="preserve"><tspan x="142.31371" y="140.55367"><tspan x="142.31371" y="140.55367">50 °C</tspan></tspan></text><text transform="scale(1.03 .971)" x="32.400513" y="74.848724" style="line-height:36.86055541%" space="preserve"><tspan x="32.400513" y="74.848724"><tspan x="32.400513" y="74.848724">Technische Daten</tspan></tspan></text><text transform="scale(1.03 .971)" x="32.434479" y="122.44215" style="line-height:36.86055541%" space="preserve"><tspan x="32.434479" y="122.44215"><tspan x="32.434479" y="122.44215">Zulässiger Überdruck</tspan></tspan></text><text transform="scale(1.03 .971)" x="32.726746" y="140.57942" style="line-height:36.86055541%" space="preserve"><tspan x="32.726746" y="140.57942"><tspan x="32.726746" y="140.57942">Zulässige Temperatur</tspan></tspan></text></g></g><g fill="none" stroke="#000"><rect x="26.52" y="26.52" width="327.8" height="116.9" stroke-linejoin="round" stroke-width="1.24"/><path d="m204.2 417-113.4 0.1443" stroke-linecap="round" stroke-width=".6378"/><path d="m243.4 347.8-39.22 69.29" stroke-linecap="round" stroke-width=".6378"/></g></svg>
