<?xml version="1.0" encoding="UTF-8" standalone="no"?>
<svg
   xmlns:dc="http://purl.org/dc/elements/1.1/"
   xmlns:cc="http://creativecommons.org/ns#"
   xmlns:rdf="http://www.w3.org/1999/02/22-rdf-syntax-ns#"
   xmlns:svg="http://www.w3.org/2000/svg"
   xmlns="http://www.w3.org/2000/svg"
   xmlns:xlink="http://www.w3.org/1999/xlink"
   xmlns:sodipodi="http://sodipodi.sourceforge.net/DTD/sodipodi-0.dtd"
   xmlns:inkscape="http://www.inkscape.org/namespaces/inkscape"
   width="297mm"
   height="210mm"
   version="1.0"
   id="svg1326"
   sodipodi:docname="SHMI_RI_01.svg"
   inkscape:version="0.92.4 (5da689c313, 2019-01-14)">
  <metadata
     id="metadata1332">
    <rdf:RDF>
      <cc:Work
         rdf:about="">
        <dc:format>image/svg+xml</dc:format>
        <dc:type
           rdf:resource="http://purl.org/dc/dcmitype/StillImage" />
        <dc:title />
      </cc:Work>
    </rdf:RDF>
  </metadata>
  <defs
     id="defs1330" />
  <sodipodi:namedview
     pagecolor="#ffffff"
     bordercolor="#666666"
     borderopacity="1"
     objecttolerance="10"
     gridtolerance="10"
     guidetolerance="10"
     inkscape:pageopacity="0"
     inkscape:pageshadow="2"
     inkscape:window-width="1300"
     inkscape:window-height="879"
     id="namedview1328"
     showgrid="false"
     inkscape:zoom="3.0326182"
     inkscape:cx="418.65935"
     inkscape:cy="554.27746"
     inkscape:window-x="319"
     inkscape:window-y="101"
     inkscape:window-maximized="0"
     inkscape:current-layer="svg1326" />
  <link
     id="dark-mode"
     rel="stylesheet"
     type="text/css" />
  <style
     id="dark-mode-custom-style"
     type="text/css" />
  <use
     transform="translate(290.6 8.506)"
     width="1488.189"
     height="1052.362"
     xlink:href="#ButterflyValve"
     id="use816" />
  <use
     transform="translate(317.6 8.108)"
     width="1488.189"
     height="1052.362"
     xlink:href="#gButterflyValve"
     id="use818" />
  <path
     style="fill:none;stroke:#000000;stroke-width:1.24000001"
     inkscape:connector-curvature="0"
     id="path820"
     d="m 490.7,593.5 h 5.283" />
  <path
     style="fill:none;stroke:#000000;stroke-width:1.24000001"
     inkscape:connector-curvature="0"
     id="path822"
     d="M 558.3,593.4 714,593.4823" />
  <path
     style="fill:none;stroke:#000000;stroke-width:1.24000001"
     inkscape:connector-curvature="0"
     id="path824"
     d="m 419.8,593.5 h 93.01" />
  <path
     style="fill:none;stroke:#000000;stroke-width:1.24000001;stroke-linejoin:round"
     d="m 345.2,637.8 8.858,17.72 h -17.72 l 8.858,-17.72 -8.858,-17.72 h 17.72 z"
     id="path826"
     inkscape:connector-curvature="0" />
  <path
     style="fill:none;stroke:#000000;stroke-width:1.24000001;stroke-linejoin:round"
     d="m 345.1,628.9 c 4.895,-0.002 8.864,3.965 8.864,8.86 0,4.895 -3.969,8.863 -8.864,8.86 -4.895,0.002 -8.864,-3.965 -8.864,-8.86 0,-4.895 3.969,-8.863 8.864,-8.86 z"
     id="path828"
     inkscape:connector-curvature="0" />
  <rect
     style="fill:none;stroke:#000000;stroke-width:1.24000001;stroke-linejoin:round"
     x="380.70001"
     y="584.70001"
     width="35.43"
     height="17.719999"
     id="SHMI_DO8_D"
     inkscape:label="#rect830" />
  <path
     style="fill:none;stroke:#000000;stroke-width:1.24000001;stroke-linecap:round"
     inkscape:connector-curvature="0"
     id="path834"
     d="m 380.7,584.7 35.43,17.72" />
  <path
     style="fill-rule:evenodd;stroke:#000000;stroke-width:0.88599998;stroke-linejoin:round"
     inkscape:connector-curvature="0"
     id="path838"
     d="m 403.1,593.5 c 10e-4,2.565 -2.078,4.644 -4.642,4.644 -2.564,0 -4.643,-2.08 -4.642,-4.644 -10e-4,-2.565 2.078,-4.644 4.642,-4.644 2.564,0 4.643,2.08 4.642,4.644 z" />
  <path
     style="fill:none;stroke:#000000;stroke-width:1.24000001;stroke-linecap:round;stroke-linejoin:round"
     inkscape:connector-curvature="0"
     id="path840"
     d="m 619.9,469.5 8.858,17.72 h -17.72 l 8.858,-17.72 -17.72,8.858 v -17.72 l 17.72,8.858 z" />
  <path
     style="fill:none;stroke:#000000;stroke-width:1.24000001;stroke-linecap:round;stroke-linejoin:round"
     inkscape:connector-curvature="0"
     id="path842"
     d="m 620,434.1 8.838,2.946 -17.68,5.892 17.68,5.892 -17.68,5.892 8.838,2.946 v 11.78" />
  <path
     style="fill-rule:evenodd;stroke:#000000;stroke-width:0.81900001;stroke-linejoin:round"
     inkscape:connector-curvature="0"
     id="path844"
     d="m 615.3,469.5 c -10e-4,2.565 2.078,4.644 4.642,4.644 2.564,0 4.643,-2.08 4.642,-4.644 0.001,-2.565 -2.078,-4.644 -4.642,-4.644 -2.564,0 -4.643,2.08 -4.642,4.644 z" />
  <path
     d="m608.1 461.8v15.49"
     fill="none"
     stroke="#000"
     stroke-linecap="round"
     stroke-width="3.543"
     id="path848" />
  <path
     id="p_ArrowInOut"
     d="m841.6 584.7h17.72v-8.858l17.72 17.72-17.72 17.72v-8.858h-17.72v-17.72z"
     fill="none"
     stroke="#000"
     stroke-linecap="round"
     stroke-linejoin="round"
     stroke-width="1.24" />
  <path
     id="p_Reducer"
     d="m442.8 584.8 35.43 8.858-35.43 8.858v-17.72z"
     fill="none"
     stroke="#000"
     stroke-linecap="round"
     stroke-linejoin="round"
     stroke-width="1.24" />
  <path
     id="SHMI_AI1_L"
     d="m274.6 540.6v-226.6s35.36-17.68 70.72-17.68 70.72 17.68 70.72 17.68v226.6s-35.36 17.68-70.72 17.68-70.72-17.68-70.72-17.68z"
     fill="none"
     stroke="#000"
     stroke-linecap="round"
     stroke-linejoin="round"
     stroke-width="1.24"
     style="fill:url(#linearGradient2480);stroke-width:1.24">
    <title
       style="fill:url(#linearGradient2480)"
       id="title852">SHMI_Vessel_!</title>
  </path>
  <path
     style="fill:none;stroke:#000000;stroke-width:1.24000001;stroke-linejoin:round"
     inkscape:connector-curvature="0"
     id="path855"
     d="m 549,593.5 c 0,14.67 -11.89,26.56 -26.56,26.56 -14.67,0 -26.56,-11.89 -26.56,-26.56 0,-14.67 11.89,-26.56 26.56,-26.56 14.67,0 26.56,11.89 26.56,26.56 z" />
  <path
     style="fill:none;stroke:#000000;stroke-width:1.24000001;stroke-linejoin:bevel"
     inkscape:connector-curvature="0"
     id="path857"
     d="m 522.5,567 26.57,26.57 -26.57,26.57" />
  <path
     style="fill:none;stroke:#000000;stroke-width:1.24000001"
     inkscape:connector-curvature="0"
     id="path859"
     d="m 495.9,593.5 h 53.15" />
  <use
     transform="translate(-655.6 -248)"
     width="1488.189"
     height="1052.362"
     xlink:href="#p_ArrowInOut"
     id="use863" />
  <path
     d="m 345.1,570.4 0.046,49.22"
     style="fill:none;stroke:#000000;stroke-width:1.24000001"
     id="path865"
     inkscape:connector-curvature="0" />
  <path
     d="M 261.9,345.4 H 221.61"
     style="fill:none;stroke:#000000;stroke-width:1.24000001"
     id="path867"
     inkscape:connector-curvature="0" />
  <path
     id="p_OutletAtmosphere"
     d="m 292,269.3 17.72,-17.72 17.72,17.72 m -17.72,0 v 17.72"
     style="fill:none;stroke:#000000;stroke-width:1.24000001;stroke-linecap:round;stroke-linejoin:round"
     inkscape:connector-curvature="0" />
  <use
     style="fill:none"
     y="0"
     x="0"
     id="use872"
     xlink:href="#p_Reducer"
     height="1052.3621"
     width="1488.189"
     transform="matrix(-1,0,0,1,1045,-0.02476)" />
  <path
     id="SHMI_DO1_D"
     d="m 540.7,531.9 c 0,9.866 -7.99,17.86 -17.85,17.86 -9.86,0 -17.85,-7.998 -17.85,-17.86 0,-9.862 7.99,-17.86 17.85,-17.86 9.86,0 17.85,7.998 17.85,17.86 z"
     style="fill:none;stroke:#000000;stroke-width:1.24000001;stroke-linejoin:round"
     inkscape:connector-curvature="0">
    <title
       id="title874">SHMI_Motor_01</title>
  </path>
  <path
     d="m 516.5,540.7 v -17.48 l 6.315,8.74 6.315,-8.74 v 17.48"
     style="fill:none;stroke:#000000;stroke-width:1.24000001;stroke-linecap:round;stroke-linejoin:round"
     id="path877"
     inkscape:connector-curvature="0" />
  <path
     d="m 522.5,549.6 v 17.47"
     style="fill:none;stroke:#000000;stroke-width:0.63800001"
     id="path879"
     inkscape:connector-curvature="0" />
  <path
     id="p_Flange"
     d="m 419.4,584.7 v 17.72"
     style="fill:none;stroke:#000000;stroke-width:1.77199996;stroke-linecap:round"
     inkscape:connector-curvature="0" />
  <path
     d="m 377.6,584.7 v 17.72"
     style="fill:none;stroke:#000000;stroke-width:1.77199996;stroke-linecap:round"
     id="path882"
     inkscape:connector-curvature="0" />
  <rect
     x="717.5"
     y="584.79999"
     width="35.43"
     height="17.719999"
     style="fill:none;stroke:#000000;stroke-width:1.24000001;stroke-linejoin:round"
     id="rect884" />
  <path
     d="m 717.5,584.8 35.43,17.72"
     style="fill:none;stroke:#000000;stroke-width:1.24000001;stroke-linecap:round"
     id="path886"
     inkscape:connector-curvature="0" />
  <path
     style="fill-rule:evenodd;stroke:#000000;stroke-width:0.59200001;stroke-linejoin:round"
     inkscape:connector-curvature="0"
     id="path892"
     d="m 722.1,584.8 c 10e-4,2.565 -2.078,4.644 -4.642,4.644 -2.565,0 -4.643,-2.08 -4.642,-4.644 -10e-4,-2.565 2.078,-4.644 4.642,-4.644 2.565,0 4.643,2.08 4.642,4.644 z" />
  <rect
     inkscape:label="#rect894"
     style="fill:none;stroke:#000000;stroke-width:1.24;stroke-linejoin:round;stroke-miterlimit:4;stroke-dasharray:none"
     id="SHMI_DO2_D"
     height="17.719999"
     width="35.43"
     y="584.79999"
     x="779.5" />
  <path
     style="fill:none;stroke:#000000;stroke-width:1.24000001;stroke-linecap:round"
     inkscape:connector-curvature="0"
     id="path896"
     d="m 779.5,584.8 35.43,17.72" />
  <path
     style="fill-rule:evenodd;stroke:#000000;stroke-width:0.88599998;stroke-linejoin:round"
     inkscape:connector-curvature="0"
     id="path898"
     d="m 801.8,593.6 c 0.001,2.565 -2.078,4.644 -4.642,4.644 -2.565,0 -4.643,-2.08 -4.642,-4.644 -10e-4,-2.565 2.078,-4.644 4.642,-4.644 2.565,0 4.643,2.08 4.642,4.644 z" />
  <g
     id="g938"
     style="fill:none;stroke:#000000;stroke-width:1.77199996;stroke-linecap:round">
    <path
       d="m 817.8,584.8 v 17.72"
       id="path900"
       inkscape:connector-curvature="0" />
    <path
       d="m 776.4,584.8 v 17.72"
       id="path902"
       inkscape:connector-curvature="0" />
    <path
       d="m 755.8,584.8 v 17.72"
       id="path904"
       inkscape:connector-curvature="0" />
    <path
       d="m 714.7,584.8 v 17.72"
       id="path906"
       inkscape:connector-curvature="0" />
    <path
       d="m 557.9,584.4 v 17.72"
       id="path908"
       inkscape:connector-curvature="0" />
    <path
       d="m 554.5,584.4 v 17.72"
       id="path910"
       inkscape:connector-curvature="0" />
    <path
       d="m 490.5,584.7 v 17.72"
       id="path912"
       inkscape:connector-curvature="0" />
    <path
       d="m 487.1,584.7 v 17.72"
       id="path914"
       inkscape:connector-curvature="0" />
    <path
       d="m 265.7,336.9 v 17.72"
       id="path916"
       inkscape:connector-curvature="0" />
    <path
       d="m 262.3,336.9 v 17.72"
       id="path918"
       inkscape:connector-curvature="0" />
    <path
       d="m 336.4,567 h 17.72"
       id="path920"
       inkscape:connector-curvature="0" />
    <path
       d="m 336.4,570.4 h 17.72"
       id="path922"
       inkscape:connector-curvature="0" />
    <path
       d="m 380.8,290.2 h 17.72"
       id="path924"
       inkscape:connector-curvature="0" />
    <path
       d="m 380.8,293.6 h 17.72"
       id="path926"
       inkscape:connector-curvature="0" />
    <path
       d="m 301.2,287.5 h 17.72"
       id="path928"
       inkscape:connector-curvature="0" />
    <path
       d="m 301.2,290.9 h 17.72"
       id="path930"
       inkscape:connector-curvature="0" />
    <path
       d="m 428.6,331.8 v 17.72"
       id="path932"
       inkscape:connector-curvature="0" />
    <path
       d="m 425.2,331.8 v 17.72"
       id="path934"
       inkscape:connector-curvature="0" />
    <path
       d="m 336.3,659.1 h 17.72"
       id="path936"
       inkscape:connector-curvature="0" />
  </g>
  <g
     id="g954"
     style="fill:none;stroke:#000000;stroke-width:1.24000001">
    <path
       d="m 416.2,506.9 h 8.956"
       id="path940"
       inkscape:connector-curvature="0" />
    <path
       d="m 416,489.2 h 9.115"
       id="path942"
       inkscape:connector-curvature="0" />
    <path
       d="m 274.5,345.4 h -8.498"
       id="path944"
       inkscape:connector-curvature="0" />
    <path
       d="m 424.8,340.5 h -8.498"
       id="path946"
       inkscape:connector-curvature="0" />
    <path
       d="M 309.7,301.2 V 291.18"
       id="path948"
       inkscape:connector-curvature="0" />
    <path
       d="m 389.7,303.3 v -8.867"
       id="path950"
       inkscape:connector-curvature="0" />
    <path
       d="m 673,478.3 c 17.72,10e-6 30.18,10e-6 53.15,0 14.17,0 26.57,12.4 26.57,26.57 0,14.17 -12.4,26.57 -26.57,26.57 H 673 c -14.17,0 -26.57,-12.4 -26.57,-26.57 0,-14.17 12.4,-26.57 26.57,-26.57 z"
       id="path952"
       inkscape:connector-curvature="0" />
  </g>
  <path
     d="m 699.6,531.2 v 61.87"
     id="path956"
     inkscape:connector-curvature="0"
     style="fill:none;stroke:#000000;stroke-width:0.63800001" />
  <path
     d="m 363.2,194.9 c 17.72,1e-5 30.18,1e-5 53.15,0 14.17,0 26.57,12.4 26.57,26.57 0,14.17 -12.4,26.57 -26.57,26.57 H 363.2 c -14.17,0 -26.57,-12.4 -26.57,-26.57 0,-14.17 12.4,-26.57 26.57,-26.57 z"
     id="SHMI_DI1_D"
     inkscape:connector-curvature="0"
     style="fill:none;stroke:#000000;stroke-width:1.24000001"
     inkscape:label="#path958" />
  <path
     d="m 389.8,248 v 41.37"
     id="path960"
     inkscape:connector-curvature="0"
     style="fill:none;stroke:#000000;stroke-width:0.63800001" />
  <path
     d="M 522.5,345.5 V 507.1"
     id="path962"
     inkscape:connector-curvature="0"
     style="fill:none;stroke:#000000;stroke-width:0.63800001;stroke-linecap:round;stroke-dasharray:5.102, 2.551" />
  <path
     d="m 522.5,194.8 -59.93,0.0762"
     id="path964"
     inkscape:connector-curvature="0"
     style="fill:none;stroke:#000000;stroke-width:0.63800001;stroke-linecap:round;stroke-dasharray:5.102, 2.551" />
  <g
     id="g976"
     style="fill:none;stroke:#000000;stroke-width:1.24000001">
    <path
       d="M 619.9,487.7 V 592.6"
       id="path966"
       inkscape:connector-curvature="0" />
    <g
       id="g974"
       style="stroke-linecap:round">
      <path
         d="m 428.6,340.2 129.2,-0.0612"
         id="path968"
         inkscape:connector-curvature="0" />
      <path
         d="m 558.1,469.5 h 43.89"
         id="path970"
         inkscape:connector-curvature="0" />
      <path
         d="M 557.9,340.2 V 469.6"
         id="path972"
         inkscape:connector-curvature="0" />
    </g>
  </g>
  <path
     d="M 522.5,194.9 V 335.4"
     id="path978"
     inkscape:connector-curvature="0"
     style="fill:none;stroke:#000000;stroke-width:0.63800001;stroke-linecap:round;stroke-dasharray:5.102, 2.551" />
  <g
     id="g990"
     style="fill:none;stroke:#000000;stroke-width:1.24000001">
    <path
       d="m 345.2,558.1 v 8.84"
       id="path980"
       inkscape:connector-curvature="0" />
    <path
       d="m 345,593.5 32.08,-0.0319"
       id="path982"
       inkscape:connector-curvature="0" />
    <path
       d="m 549.1,593.5 h 5.283"
       id="path984"
       inkscape:connector-curvature="0" />
    <path
       d="m 756.4,593.5 h 19.15"
       id="path986"
       inkscape:connector-curvature="0" />
    <path
       d="m 817.9,593.5 23.02,-0.0581"
       id="path988"
       inkscape:connector-curvature="0" />
  </g>
  <g
     id="g1000"
     style="fill:none;stroke:#000000;stroke-width:1.77199996;stroke-linecap:round">
    <path
       d="m 424.9,485.8 v 24.16"
       id="path992"
       inkscape:connector-curvature="0" />
    <path
       d="m 428.4,485.8 v 24.16"
       id="path994"
       inkscape:connector-curvature="0" />
    <path
       d="m 265.5,514.2 v 17.72"
       id="path996"
       inkscape:connector-curvature="0" />
    <path
       d="m 262.1,514.2 v 17.72"
       id="path998"
       inkscape:connector-curvature="0" />
  </g>
  <g
     id="g1008"
     style="fill:none;stroke:#000000;stroke-width:1.24000001">
    <path
       d="m 274.4,522.7 h -8.498"
       id="path1002"
       inkscape:connector-curvature="0" />
    <path
       d="m 150.3,496.1 c 17.72,10e-6 30.18,10e-6 53.15,0 14.17,0 26.57,12.4 26.57,26.57 0,14.17 -12.4,26.57 -26.57,26.57 H 150.3 c -14.17,0 -26.57,-12.4 -26.57,-26.57 0,-14.17 12.4,-26.57 26.57,-26.57 z"
       id="path1004"
       inkscape:connector-curvature="0" />
    <path
       d="M 261.9,522.6 H 124.3"
       id="path1006"
       inkscape:connector-curvature="0" />
  </g>
  <g
     id="g1022"
     style="fill:none;stroke:#000000;stroke-width:1.24000001">
    <path
       d="m 26.55,318.9 h 150.7 v 53.15 H 26.55 V 318.9"
       id="path1010"
       inkscape:connector-curvature="0"
       style="stroke-linecap:round;stroke-linejoin:round" />
    <path
       d="m 26.05,345.4 h 151.2"
       id="path1012"
       inkscape:connector-curvature="0"
       style="stroke-linejoin:round" />
    <path
       d="m 185.9,345.4 h -8.96"
       id="path1014"
       inkscape:connector-curvature="0" />
    <path
       d="m 885.8,567 150.6,-0.0581 v 53.15 L 885.8,620.15 V 567"
       id="path1016"
       inkscape:connector-curvature="0"
       style="stroke-linecap:round;stroke-linejoin:round" />
    <path
       d="m 886.3,593.5 h 149.5"
       id="path1018"
       inkscape:connector-curvature="0"
       style="stroke-linejoin:round" />
    <path
       d="m 886.1,593.5 h -8.923"
       id="path1020"
       inkscape:connector-curvature="0" />
  </g>
  <path
     style="fill-rule:evenodd;stroke:#000000;stroke-width:1.24000001;stroke-linecap:round;stroke-linejoin:round"
     inkscape:connector-curvature="0"
     id="path1026"
     d="m 526.3,505.5 -3.815,7.631 -3.815,-7.631 h 7.631 z" />
  <g
     style="font-size:18px;font-family:Arial;text-anchor:middle"
     id="g1048"
     font-size="18">
    <text
       id="text1034"
       space="preserve"
       style="line-height:36.86055243%;text-align:center"
       text-align="center"
       y="347.36499"
       x="96.674004"
       transform="scale(1.03,0.971)">
      <tspan
         id="tspan1032"
         y="347.36499"
         x="96.674004">
        <tspan
           id="tspan1030"
           y="347.36499"
           x="96.674004">Lösung</tspan>
      </tspan>
    </text>
    <text
       id="text1040"
       space="preserve"
       style="line-height:36.86055243%;text-align:center"
       text-align="center"
       y="558.14099"
       x="171.937"
       transform="scale(1.03,0.971)">
      <tspan
         id="tspan1038"
         y="558.14099"
         x="171.937">
        <tspan
           id="tspan1036"
           y="558.14099"
           x="171.937">0012</tspan>
      </tspan>
    </text>
    <text
       id="text1046"
       space="preserve"
       style="line-height:36.86055243%;text-align:center"
       text-align="center"
       y="531.10303"
       x="172.72501"
       transform="scale(1.03,0.971)">
      <tspan
         id="tspan1044"
         y="531.10303"
         x="172.72501">
        <tspan
           id="tspan1042"
           y="531.10303"
           x="172.72501">L</tspan>
      </tspan>
    </text>
  </g>
  <text
     id="text1054"
     space="preserve"
     style="font-size:12.32080078px;line-height:36.86055243%;font-family:Arial;text-align:center;text-anchor:middle;stroke-width:1.00006497"
     text-align="center"
     font-size="12.32"
     y="560.84247"
     x="231.61105"
     transform="scale(1.0299331,0.97093689)">
    <tspan
       id="tspan1052"
       y="560.84247"
       x="231.61105"
       style="stroke-width:1.00006497">
      <tspan
         id="tspan1050"
         y="560.84247"
         x="231.61105"
         style="stroke-width:1.00006497">AL</tspan>
    </tspan>
  </text>
  <g
     style="font-size:18px;font-family:Arial;text-anchor:middle"
     id="g1188"
     font-size="18">
    <text
       id="text1060"
       space="preserve"
       style="line-height:36.86055243%;text-align:center"
       text-align="center"
       y="421.48099"
       x="142.448"
       transform="scale(1.03,0.971)">
      <tspan
         id="tspan1058"
         y="421.48099"
         x="142.448">
        <tspan
           id="tspan1056"
           y="421.48099"
           x="142.448">01-100-PE-N</tspan>
      </tspan>
    </text>
    <text
       id="text1066"
       space="preserve"
       style="line-height:36.86055243%;text-align:center"
       text-align="center"
       y="373.50201"
       x="98.114998"
       transform="scale(1.03,0.971)">
      <tspan
         id="tspan1064"
         y="373.50201"
         x="98.114998">
        <tspan
           id="tspan1062"
           y="373.50201"
           x="98.114998">von Hauptanlage</tspan>
      </tspan>
    </text>
    <text
       id="text1072"
       space="preserve"
       style="line-height:36.86055243%;text-align:center"
       text-align="center"
       y="332.13101"
       x="300.19901"
       transform="scale(1.03,0.971)">
      <tspan
         id="tspan1070"
         y="332.13101"
         x="300.19901">
        <tspan
           id="tspan1068"
           y="332.13101"
           x="300.19901">N4</tspan>
      </tspan>
    </text>
    <text
       id="text1078"
       space="preserve"
       style="line-height:36.86055243%;text-align:center"
       text-align="center"
       y="361.241"
       x="284.09299"
       transform="scale(1.03,0.971)">
      <tspan
         id="tspan1076"
         y="361.241"
         x="284.09299">
        <tspan
           id="tspan1074"
           y="361.241"
           x="284.09299">N1</tspan>
      </tspan>
    </text>
    <text
       id="text1084"
       space="preserve"
       style="line-height:36.86055243%;text-align:center"
       text-align="center"
       y="332.13101"
       x="372.05099"
       transform="scale(1.03,0.971)">
      <tspan
         id="tspan1082"
         y="332.13101"
         x="372.05099">
        <tspan
           id="tspan1080"
           y="332.13101"
           x="372.05099">N5</tspan>
      </tspan>
    </text>
    <text
       id="text1090"
       space="preserve"
       style="line-height:36.86055243%;text-align:center"
       text-align="center"
       y="357.02399"
       x="385.073"
       transform="scale(1.03,0.971)">
      <tspan
         id="tspan1088"
         y="357.02399"
         x="385.073">
        <tspan
           id="tspan1086"
           y="357.02399"
           x="385.073">N2</tspan>
      </tspan>
    </text>
    <text
       id="text1096"
       space="preserve"
       style="line-height:36.86055243%;text-align:center"
       text-align="center"
       y="434.862"
       x="336.966"
       transform="scale(1.03,0.971)">
      <tspan
         id="tspan1094"
         y="434.862"
         x="336.966">
        <tspan
           id="tspan1092"
           y="434.862"
           x="336.966">B001</tspan>
      </tspan>
    </text>
    <text
       id="text1102"
       space="preserve"
       style="line-height:36.86055243%;text-align:center"
       text-align="center"
       y="544.71802"
       x="281.32001"
       transform="scale(1.03,0.971)">
      <tspan
         id="tspan1100"
         y="544.71802"
         x="281.32001">
        <tspan
           id="tspan1098"
           y="544.71802"
           x="281.32001">N6</tspan>
      </tspan>
    </text>
    <text
       id="text1108"
       space="preserve"
       style="line-height:36.86055243%;text-align:center"
       text-align="center"
       y="565.659"
       x="335.685"
       transform="scale(1.03,0.971)">
      <tspan
         id="tspan1106"
         y="565.659"
         x="335.685">
        <tspan
           id="tspan1104"
           y="565.659"
           x="335.685">N3</tspan>
      </tspan>
    </text>
    <text
       id="text1114"
       space="preserve"
       style="line-height:36.86055243%;text-align:center"
       text-align="center"
       y="518.65601"
       x="386.681"
       transform="scale(1.03,0.971)">
      <tspan
         id="tspan1112"
         y="518.65601"
         x="386.681">
        <tspan
           id="tspan1110"
           y="518.65601"
           x="386.681">M1</tspan>
      </tspan>
    </text>
    <text
       id="text1120"
       space="preserve"
       style="line-height:36.86055243%;text-align:center"
       text-align="center"
       y="592.80798"
       x="446.46799"
       transform="scale(1.03,0.971)">
      <tspan
         id="tspan1118"
         y="592.80798"
         x="446.46799">
        <tspan
           id="tspan1116"
           y="592.80798"
           x="446.46799">100/50</tspan>
      </tspan>
    </text>
    <text
       id="text1126"
       space="preserve"
       style="line-height:36.86055243%;text-align:center"
       text-align="center"
       y="665.79401"
       x="510.991"
       transform="scale(1.03,0.971)">
      <tspan
         id="tspan1124"
         y="665.79401"
         x="510.991">
        <tspan
           id="tspan1122"
           y="665.79401"
           x="510.991">P001</tspan>
      </tspan>
    </text>
    <text
       id="text1132"
       space="preserve"
       style="line-height:36.86055243%;text-align:center"
       text-align="center"
       y="592.80798"
       x="567.74597"
       transform="scale(1.03,0.971)">
      <tspan
         id="tspan1130"
         y="592.80798"
         x="567.74597">
        <tspan
           id="tspan1128"
           y="592.80798"
           x="567.74597">100/50</tspan>
      </tspan>
    </text>
    <text
       id="text1138"
       space="preserve"
       style="line-height:36.86055243%;text-align:center"
       text-align="center"
       y="419.715"
       x="581.302"
       transform="scale(1.03,0.971)">
      <tspan
         id="tspan1136"
         y="419.715"
         x="581.302">
        <tspan
           id="tspan1134"
           y="419.715"
           x="581.302">PA=</tspan>
      </tspan>
    </text>
    <text
       id="text1144"
       space="preserve"
       style="line-height:36.86055243%;text-align:center"
       text-align="center"
       y="437.742"
       x="597.27197"
       transform="scale(1.03,0.971)">
      <tspan
         id="tspan1142"
         y="437.742"
         x="597.27197">
        <tspan
           id="tspan1140"
           y="437.742"
           x="597.27197">6 BARÜ</tspan>
      </tspan>
    </text>
    <text
       id="text1150"
       space="preserve"
       style="line-height:36.86055243%;text-align:center"
       text-align="center"
       y="539.86401"
       x="678.401"
       transform="scale(1.03,0.971)">
      <tspan
         id="tspan1148"
         y="539.86401"
         x="678.401">
        <tspan
           id="tspan1146"
           y="539.86401"
           x="678.401">0013</tspan>
      </tspan>
    </text>
    <text
       id="text1156"
       space="preserve"
       style="line-height:36.86055243%;text-align:center"
       text-align="center"
       y="512.82599"
       x="677.87903"
       transform="scale(1.03,0.971)">
      <tspan
         id="tspan1154"
         y="512.82599"
         x="677.87903">
        <tspan
           id="tspan1152"
           y="512.82599"
           x="677.87903">PI</tspan>
      </tspan>
    </text>
    <text
       id="text1162"
       space="preserve"
       style="line-height:36.86055243%;text-align:center"
       text-align="center"
       y="643.53003"
       x="639.914"
       transform="scale(1.03,0.971)">
      <tspan
         id="tspan1160"
         y="643.53003"
         x="639.914">
        <tspan
           id="tspan1158"
           y="643.53003"
           x="639.914">02-100-PE-N</tspan>
      </tspan>
    </text>
    <text
       id="text1168"
       space="preserve"
       style="line-height:36.86055243%;text-align:center"
       text-align="center"
       y="602.58502"
       x="934.70099"
       transform="scale(1.03,0.971)">
      <tspan
         id="tspan1166"
         y="602.58502"
         x="934.70099">
        <tspan
           id="tspan1164"
           y="602.58502"
           x="934.70099">Lösung</tspan>
      </tspan>
    </text>
    <text
       id="text1174"
       space="preserve"
       style="line-height:36.86055243%;text-align:center"
       text-align="center"
       y="629.94397"
       x="933.008"
       transform="scale(1.03,0.971)">
      <tspan
         id="tspan1172"
         y="629.94397"
         x="933.008">
        <tspan
           id="tspan1170"
           y="629.94397"
           x="933.008">zu Verbraucher</tspan>
      </tspan>
    </text>
    <text
       id="text1180"
       space="preserve"
       style="line-height:36.86055243%;text-align:center"
       text-align="center"
       y="220.92799"
       x="378.57001"
       transform="scale(1.03,0.971)">
      <tspan
         id="tspan1178"
         y="220.92799"
         x="378.57001">
        <tspan
           id="tspan1176"
           y="220.92799"
           x="378.57001">L</tspan>
      </tspan>
    </text>
    <text
       id="text1186"
       space="preserve"
       style="line-height:36.86055243%;text-align:center"
       text-align="center"
       y="247.965"
       x="378.06299"
       transform="scale(1.03,0.971)">
      <tspan
         id="tspan1184"
         y="247.965"
         x="378.06299">
        <tspan
           id="tspan1182"
           y="247.965"
           x="378.06299">0011</tspan>
      </tspan>
    </text>
  </g>
  <text
     id="text1194"
     space="preserve"
     style="font-size:12.32080078px;line-height:36.86055243%;font-family:Arial;text-align:center;text-anchor:middle;stroke-width:1.00006497"
     text-align="center"
     font-size="12.32"
     y="205.01633"
     x="439.8616"
     transform="scale(1.0299331,0.97093689)">
    <tspan
       id="tspan1192"
       y="205.01633"
       x="439.8616"
       style="stroke-width:1.00006497">
      <tspan
         id="tspan1190"
         y="205.01633"
         x="439.8616"
         style="stroke-width:1.00006497">SH</tspan>
    </tspan>
  </text>
  <path
     style="fill:none;stroke:#000000;stroke-width:1.24000001"
     inkscape:connector-curvature="0"
     id="path1198"
     d="m 141.7,26.52 3e-5,116.9" />
  <path
     style="fill:none;stroke:#000000;stroke-width:1.24000001"
     inkscape:connector-curvature="0"
     id="path1200"
     d="M 354.3,126 H 26.5" />
  <path
     style="fill:none;stroke:#000000;stroke-width:1.24000001"
     inkscape:connector-curvature="0"
     id="path1202"
     d="M 354.3,108.2 H 27.2" />
  <path
     style="fill:none;stroke:#000000;stroke-width:1.24000001"
     inkscape:connector-curvature="0"
     id="path1204"
     d="M 353.7,62.18 H 26.6" />
  <path
     style="fill:none;stroke:#000000;stroke-width:1.24000001"
     inkscape:connector-curvature="0"
     id="path1206"
     d="M 354.9,44.47 H 27.1" />
  <path
     style="fill:none;stroke:#000000;stroke-width:1.24000001"
     inkscape:connector-curvature="0"
     id="path1208"
     d="m 248,26.66 v 117" />
  <text
     id="text1216"
     space="preserve"
     style="font-size:10.00065041px;line-height:36.86055243%;font-family:Arial;stroke-width:1.00006497"
     font-size="10"
     y="56.605679"
     x="31.904074"
     transform="scale(1.0299331,0.97093689)">
    <tspan
       id="tspan1214"
       y="56.605679"
       x="31.904074"
       style="stroke-width:1.00006497">
      <tspan
         id="tspan1212"
         y="56.605679"
         x="31.904074"
         style="stroke-width:1.00006497">Benennung</tspan>
    </tspan>
  </text>
  <text
     id="text1222"
     space="preserve"
     style="font-size:18.0011692px;line-height:36.86055243%;font-family:Arial;text-align:center;text-anchor:middle;stroke-width:1.00006497"
     text-align="center"
     font-size="18"
     y="42.838783"
     x="189.66933"
     transform="scale(1.0299331,0.97093689)">
    <tspan
       id="tspan1220"
       y="42.838783"
       x="189.66933"
       style="stroke-width:1.00006497">
      <tspan
         id="tspan1218"
         y="42.838783"
         x="189.66933"
         style="stroke-width:1.00006497">B001</tspan>
    </tspan>
  </text>
  <text
     id="text1228"
     space="preserve"
     style="font-size:18.0011692px;line-height:36.86055243%;font-family:Arial;text-align:center;text-anchor:middle;stroke-width:1.00006497"
     text-align="center"
     font-size="18"
     y="43.020798"
     x="294.54013"
     transform="scale(1.0299331,0.97093689)">
    <tspan
       id="tspan1226"
       y="43.020798"
       x="294.54013"
       style="stroke-width:1.00006497">
      <tspan
         id="tspan1224"
         y="43.020798"
         x="294.54013"
         style="stroke-width:1.00006497">P001</tspan>
    </tspan>
  </text>
  <g
     style="font-size:10px;font-family:Arial"
     id="g1314"
     font-size="10">
    <text
       id="text1234"
       space="preserve"
       style="line-height:36.86055243%"
       y="56.723999"
       x="141.957"
       transform="scale(1.03,0.971)">
      <tspan
         id="tspan1232"
         y="56.723999"
         x="141.957">
        <tspan
           id="tspan1230"
           y="56.723999"
           x="141.957">Pufferbehälter</tspan>
      </tspan>
    </text>
    <text
       id="text1240"
       space="preserve"
       style="line-height:36.86055243%"
       y="56.602001"
       x="245.17999"
       transform="scale(1.03,0.971)">
      <tspan
         id="tspan1238"
         y="56.602001"
         x="245.17999">
        <tspan
           id="tspan1236"
           y="56.602001"
           x="245.17999">Nachspeisepumpe</tspan>
      </tspan>
    </text>
    <text
       id="text1246"
       space="preserve"
       style="line-height:36.86055243%"
       y="74.796997"
       x="245.51199"
       transform="scale(1.03,0.971)">
      <tspan
         id="tspan1244"
         y="74.796997"
         x="245.51199">
        <tspan
           id="tspan1242"
           y="74.796997"
           x="245.51199">Q = 5 m3/h</tspan>
      </tspan>
    </text>
    <text
       id="text1252"
       space="preserve"
       style="line-height:36.86055243%"
       y="89.474998"
       x="245.599"
       transform="scale(1.03,0.971)">
      <tspan
         id="tspan1250"
         y="89.474998"
         x="245.599">
        <tspan
           id="tspan1248"
           y="89.474998"
           x="245.599">dp = 2,5 bar</tspan>
      </tspan>
    </text>
    <text
       id="text1258"
       space="preserve"
       style="line-height:36.86055243%"
       y="122.307"
       x="244.95799"
       transform="scale(1.03,0.971)">
      <tspan
         id="tspan1256"
         y="122.307"
         x="244.95799">
        <tspan
           id="tspan1254"
           y="122.307"
           x="244.95799">10 bar</tspan>
      </tspan>
    </text>
    <text
       id="text1264"
       space="preserve"
       style="line-height:36.86055243%"
       y="140.657"
       x="245.526"
       transform="scale(1.03,0.971)">
      <tspan
         id="tspan1262"
         y="140.657"
         x="245.526">
        <tspan
           id="tspan1260"
           y="140.657"
           x="245.526">50 °C</tspan>
      </tspan>
    </text>
    <text
       id="text1270"
       space="preserve"
       style="line-height:36.86055243%"
       y="74.866997"
       x="141.957"
       transform="scale(1.03,0.971)">
      <tspan
         id="tspan1268"
         y="74.866997"
         x="141.957">
        <tspan
           id="tspan1266"
           y="74.866997"
           x="141.957">D = 1000</tspan>
      </tspan>
    </text>
    <text
       id="text1276"
       space="preserve"
       style="line-height:36.86055243%"
       y="89.459"
       x="141.927"
       transform="scale(1.03,0.971)">
      <tspan
         id="tspan1274"
         y="89.459"
         x="141.927">
        <tspan
           id="tspan1272"
           y="89.459"
           x="141.927">H = 3000</tspan>
      </tspan>
    </text>
    <text
       id="text1282"
       space="preserve"
       style="line-height:36.86055243%"
       y="104.072"
       x="142.685"
       transform="scale(1.03,0.971)">
      <tspan
         id="tspan1280"
         y="104.072"
         x="142.685">
        <tspan
           id="tspan1278"
           y="104.072"
           x="142.685">V = 2,4 m3</tspan>
      </tspan>
    </text>
    <text
       id="text1288"
       space="preserve"
       style="line-height:36.86055243%"
       y="122.307"
       x="141.64"
       transform="scale(1.03,0.971)">
      <tspan
         id="tspan1286"
         y="122.307"
         x="141.64">
        <tspan
           id="tspan1284"
           y="122.307"
           x="141.64">10 bar</tspan>
      </tspan>
    </text>
    <text
       id="text1294"
       space="preserve"
       style="line-height:36.86055243%"
       y="140.554"
       x="142.314"
       transform="scale(1.03,0.971)">
      <tspan
         id="tspan1292"
         y="140.554"
         x="142.314">
        <tspan
           id="tspan1290"
           y="140.554"
           x="142.314">50 °C</tspan>
      </tspan>
    </text>
    <text
       id="text1300"
       space="preserve"
       style="line-height:36.86055243%"
       y="74.848999"
       x="32.401001"
       transform="scale(1.03,0.971)">
      <tspan
         id="tspan1298"
         y="74.848999"
         x="32.401001">
        <tspan
           id="tspan1296"
           y="74.848999"
           x="32.401001">Technische Daten</tspan>
      </tspan>
    </text>
    <text
       id="text1306"
       space="preserve"
       style="line-height:36.86055243%"
       y="122.442"
       x="32.433998"
       transform="scale(1.03,0.971)">
      <tspan
         id="tspan1304"
         y="122.442"
         x="32.433998">
        <tspan
           id="tspan1302"
           y="122.442"
           x="32.433998">Zulässiger Überdruck</tspan>
      </tspan>
    </text>
    <text
       id="text1312"
       space="preserve"
       style="line-height:36.86055243%"
       y="140.57899"
       x="32.727001"
       transform="scale(1.03,0.971)">
      <tspan
         id="tspan1310"
         y="140.57899"
         x="32.727001">
        <tspan
           id="tspan1308"
           y="140.57899"
           x="32.727001">Zulässige Temperatur</tspan>
      </tspan>
    </text>
  </g>
  <rect
     style="fill:none;stroke:#000000;stroke-width:1.24000001;stroke-linejoin:round"
     id="rect1318"
     height="116.9"
     width="327.79999"
     y="26.52"
     x="26.52" />
  <path
     style="fill:none;stroke:#000000;stroke-width:0.63800001;stroke-linecap:round"
     inkscape:connector-curvature="0"
     id="path1320"
     d="M 204.2,417 90.8,417.1443" />
  <path
     style="fill:none;stroke:#000000;stroke-width:0.63800001;stroke-linecap:round"
     inkscape:connector-curvature="0"
     id="path1322"
     d="m 243.4,347.8 -39.22,69.29" />
</svg>
