<?xml version="1.0" encoding="UTF-8" standalone="no"?>
<svg
   xmlns:dc="http://purl.org/dc/elements/1.1/"
   xmlns:cc="http://creativecommons.org/ns#"
   xmlns:rdf="http://www.w3.org/1999/02/22-rdf-syntax-ns#"
   xmlns:svg="http://www.w3.org/2000/svg"
   xmlns="http://www.w3.org/2000/svg"
   xmlns:xlink="http://www.w3.org/1999/xlink"
   xmlns:sodipodi="http://sodipodi.sourceforge.net/DTD/sodipodi-0.dtd"
   xmlns:inkscape="http://www.inkscape.org/namespaces/inkscape"
   width="297mm"
   height="210mm"
   version="1.0"
   id="svg1857"
   sodipodi:docname="SHMI_RI_01.svg"
   inkscape:version="0.92.4 (5da689c313, 2019-01-14)">
  <defs
     id="defs1861" />
  <sodipodi:namedview
     pagecolor="#ffffff"
     bordercolor="#666666"
     borderopacity="1"
     objecttolerance="10"
     gridtolerance="10"
     guidetolerance="10"
     inkscape:pageopacity="0"
     inkscape:pageshadow="2"
     inkscape:window-width="873"
     inkscape:window-height="598"
     id="namedview1859"
     showgrid="false"
     inkscape:zoom="4.2887698"
     inkscape:cx="515.82178"
     inkscape:cy="240.71891"
     inkscape:window-x="991"
     inkscape:window-y="183"
     inkscape:window-maximized="0"
     inkscape:current-layer="g1417" />
  <metadata
     id="metadata1339">
    <rdf:RDF>
      <cc:Work
         rdf:about="">
        <dc:format>image/svg+xml</dc:format>
        <dc:type
           rdf:resource="http://purl.org/dc/dcmitype/StillImage" />
        <dc:title />
      </cc:Work>
    </rdf:RDF>
  </metadata>
  <link
     id="dark-mode"
     rel="stylesheet"
     type="text/css" />
  <style
     id="dark-mode-custom-style"
     type="text/css" />
  <use
     width="1488.189"
     height="1052.362"
     transform="translate(290.6 8.506)"
     xlink:href="#ButterflyValve"
     id="use1342" />
  <use
     width="1488.189"
     height="1052.362"
     transform="translate(317.6 8.108)"
     xlink:href="#gButterflyValve"
     id="use1344" />
  <g
     fill="none"
     stroke="#000"
     id="g1366">
    <g
       id="g1362">
      <g
         id="g1352">
        <path
           stroke-width="1.24"
           d="m490.7 593.5h5.283"
           id="path1346" />
        <path
           stroke-width="1.24"
           d="m558.3 593.4 155.7 0.08229"
           id="path1348" />
        <path
           stroke-width="1.24"
           d="m419.8 593.5h93.01"
           id="path1350" />
      </g>
      <g
         stroke-linejoin="round"
         stroke-width="1.24"
         id="g1360">
        <path
           d="m345.2 637.8 8.858 17.72h-17.72l8.858-17.72-8.858-17.72h17.72l-8.858 17.72z"
           id="path1354" />
        <path
           d="m345.1 628.9c4.895-0.00216 8.864 3.965 8.864 8.86 0 4.895-3.969 8.863-8.864 8.86-4.895 0.00216-8.864-3.965-8.864-8.86s3.969-8.863 8.864-8.86z"
           id="path1356" />
        <rect
           width="35.43"
           height="17.72"
           x="380.7"
           y="584.7"
           id="rect1358" />
      </g>
    </g>
    <path
       stroke-linecap="round"
       stroke-width="1.24"
       d="m380.7 584.7 35.43 17.72"
       id="path1364" />
  </g>
  <g
     stroke="#000"
     stroke-linejoin="round"
     id="g1376">
    <path
       fill-rule="evenodd"
       stroke-width=".886"
       d="m403.1 593.5c0.00113 2.565-2.078 4.644-4.642 4.644s-4.643-2.08-4.642-4.644c-0.00113-2.565 2.078-4.644 4.642-4.644s4.643 2.08 4.642 4.644z"
       id="path1368" />
    <path
       fill="none"
       stroke-linecap="round"
       stroke-width="1.24"
       d="m619.9 469.5 8.858 17.72h-17.72l8.858-17.72-17.72 8.858v-17.72l17.72 8.858z"
       id="path1370" />
    <path
       fill="none"
       stroke-linecap="round"
       stroke-width="1.24"
       d="m620 434.1 8.838 2.946-17.68 5.892 17.68 5.892-17.68 5.892 8.838 2.946v11.78"
       id="path1372" />
    <path
       fill-rule="evenodd"
       stroke-width=".819"
       d="m615.3 469.5c-0.00113 2.565 2.078 4.644 4.642 4.644s4.643-2.08 4.642-4.644c0.00113-2.565-2.078-4.644-4.642-4.644s-4.643 2.08-4.642 4.644z"
       id="path1374" />
  </g>
  <path
     fill="none"
     stroke="#000"
     stroke-linecap="round"
     stroke-width="3.543"
     d="m608.1 461.8v15.49"
     id="path1378" />
  <path
     id="p_ArrowInOut"
     fill="none"
     stroke="#000"
     stroke-linecap="round"
     stroke-linejoin="round"
     stroke-width="1.24"
     d="m841.6 584.7h17.72v-8.858l17.72 17.72-17.72 17.72v-8.858h-17.72v-17.72z" />
  <path
     id="p_Reducer"
     fill="none"
     stroke="#000"
     stroke-linecap="round"
     stroke-linejoin="round"
     stroke-width="1.24"
     d="m442.8 584.8 35.43 8.858-35.43 8.858v-17.72z" />
  <path
     id="p_Vessel"
     fill="none"
     stroke="#000"
     stroke-linecap="round"
     stroke-linejoin="round"
     stroke-width="1.24"
     d="m274.6 540.6v-226.6s35.36-17.68 70.72-17.68c35.36 0 70.72 17.68 70.72 17.68v226.6s-35.36 17.68-70.72 17.68c-35.36 0-70.72-17.68-70.72-17.68z" />
  <g
     fill="none"
     stroke="#000"
     stroke-width="1.24"
     id="g1389">
    <path
       stroke-linejoin="round"
       d="m549 593.5c0 14.67-11.89 26.56-26.56 26.56-14.67 0-26.56-11.89-26.56-26.56s11.89-26.56 26.56-26.56c14.67 0 26.56 11.89 26.56 26.56z"
       id="path1383" />
    <path
       stroke-linejoin="bevel"
       d="m522.5 567 26.57 26.57-26.57 26.57"
       id="path1385" />
    <path
       d="m495.9 593.5h53.15"
       id="path1387" />
  </g>
  <use
     width="1488.189"
     height="1052.362"
     transform="translate(-655.6 -248)"
     xlink:href="#p_ArrowInOut"
     id="use1391" />
  <g
     id="g1419"
     style="fill:none">
    <g
       id="g1398"
       style="stroke:#000000">
      <path
         d="m 345.1,570.4 0.046,49.22"
         id="path1393"
         inkscape:connector-curvature="0"
         style="stroke-width:1.24000001" />
      <path
         d="M 261.9,345.4 H 221.61"
         id="path1395"
         inkscape:connector-curvature="0"
         style="stroke-width:1.24000001" />
      <path
         id="p_OutletAtmosphere"
         d="m 292,269.3 17.72,-17.72 17.72,17.72 m -17.72,0 v 17.72"
         inkscape:connector-curvature="0"
         style="stroke-width:1.24000001;stroke-linecap:round;stroke-linejoin:round" />
    </g>
    <use
       width="1488.189"
       height="1052.3621"
       transform="matrix(-1,0,0,1,1045,-0.02476)"
       xlink:href="#p_Reducer"
       id="use1400"
       x="0"
       y="0" />
    <g
       id="g1417"
       style="stroke:#000000">
      <path
         d="m 540.7,531.9 c 0,9.866 -7.99,17.86 -17.85,17.86 -9.86,0 -17.85,-7.998 -17.85,-17.86 0,-9.862 7.99,-17.86 17.85,-17.86 9.86,0 17.85,7.998 17.85,17.86 z"
         id="SHMI_DO1_D"
         inkscape:connector-curvature="0"
         style="stroke-width:1.23968506;stroke-linejoin:round;stroke-miterlimit:4;stroke-dasharray:none"
         inkscape:label="#path1402">
        <title
           id="title1863">SHMI_Motor_01</title>
      </path>
      <path
         d="m 516.5,540.7 v -17.48 l 6.315,8.74 6.315,-8.74 v 17.48"
         id="path1404"
         inkscape:connector-curvature="0"
         style="stroke-width:1.24000001;stroke-linecap:round;stroke-linejoin:round" />
      <g
         id="g1411">
        <path
           d="m 522.5,549.6 v 17.47"
           id="path1406"
           inkscape:connector-curvature="0"
           style="stroke-width:0.63800001" />
        <path
           id="p_Flange"
           d="m 419.4,584.7 v 17.72"
           inkscape:connector-curvature="0"
           style="stroke-width:1.77199996;stroke-linecap:round" />
        <path
           d="m 377.6,584.7 v 17.72"
           id="path1409"
           inkscape:connector-curvature="0"
           style="stroke-width:1.77199996;stroke-linecap:round" />
      </g>
      <rect
         width="35.43"
         height="17.719999"
         x="717.5"
         y="584.79999"
         id="rect1413"
         style="stroke-width:1.24000001;stroke-linejoin:round" />
      <path
         d="m 717.5,584.8 35.43,17.72"
         id="path1415"
         inkscape:connector-curvature="0"
         style="stroke-width:1.24000001;stroke-linecap:round" />
    </g>
  </g>
  <g
     stroke="#000"
     id="g1429">
    <path
       fill-rule="evenodd"
       stroke-linejoin="round"
       stroke-width=".592"
       d="m722.1 584.8c0.0011 2.565-2.078 4.644-4.642 4.644-2.565 0-4.643-2.08-4.642-4.644-0.0011-2.565 2.078-4.644 4.642-4.644 2.565 0 4.643 2.08 4.642 4.644z"
       id="path1421" />
    <rect
       width="35.43"
       height="17.72"
       x="779.5"
       y="584.8"
       fill="none"
       stroke-linejoin="round"
       stroke-width="1.24"
       id="rect1423" />
    <path
       fill="none"
       stroke-linecap="round"
       stroke-width="1.24"
       d="m779.5 584.8 35.43 17.72"
       id="path1425" />
    <path
       fill-rule="evenodd"
       stroke-linejoin="round"
       stroke-width=".886"
       d="m801.8 593.6c0.0011 2.565-2.078 4.644-4.642 4.644-2.565 0-4.643-2.08-4.642-4.644-0.0011-2.565 2.078-4.644 4.642-4.644 2.565 0 4.643 2.08 4.642 4.644z"
       id="path1427" />
  </g>
  <g
     fill="none"
     stroke="#000"
     id="g1559">
    <g
       id="g1495">
      <g
         stroke-linecap="round"
         stroke-width="1.772"
         id="g1469">
        <path
           d="m817.8 584.8v17.72"
           id="path1431" />
        <path
           d="m776.4 584.8v17.72"
           id="path1433" />
        <path
           d="m755.8 584.8v17.72"
           id="path1435" />
        <path
           d="m714.7 584.8v17.72"
           id="path1437" />
        <path
           d="m557.9 584.4v17.72"
           id="path1439" />
        <path
           d="m554.5 584.4v17.72"
           id="path1441" />
        <path
           d="m490.5 584.7v17.72"
           id="path1443" />
        <path
           d="m487.1 584.7v17.72"
           id="path1445" />
        <path
           d="m265.7 336.9v17.72"
           id="path1447" />
        <path
           d="m262.3 336.9v17.72"
           id="path1449" />
        <path
           d="m336.4 567h17.72"
           id="path1451" />
        <path
           d="m336.4 570.4h17.72"
           id="path1453" />
        <path
           d="m380.8 290.2h17.72"
           id="path1455" />
        <path
           d="m380.8 293.6h17.72"
           id="path1457" />
        <path
           d="m301.2 287.5h17.72"
           id="path1459" />
        <path
           d="m301.2 290.9h17.72"
           id="path1461" />
        <path
           d="m428.6 331.8v17.72"
           id="path1463" />
        <path
           d="m425.2 331.8v17.72"
           id="path1465" />
        <path
           d="m336.3 659.1h17.72"
           id="path1467" />
      </g>
      <g
         id="g1493">
        <g
           stroke-width="1.24"
           id="g1479">
          <path
             d="m416.2 506.9h8.956"
             id="path1471" />
          <path
             d="m416 489.2h9.115"
             id="path1473" />
          <path
             d="m274.5 345.4h-8.498"
             id="path1475" />
          <path
             d="m424.8 340.5h-8.498"
             id="path1477" />
        </g>
        <path
           stroke-width="1.24"
           d="m309.7 301.2v-10.02"
           id="path1481" />
        <path
           stroke-width="1.24"
           d="m389.7 303.3v-8.867"
           id="path1483" />
        <path
           stroke-width="1.24"
           d="m673 478.3c17.72 1e-5 30.18 1e-5 53.15 0 14.17 0 26.57 12.4 26.57 26.57s-12.4 26.57-26.57 26.57h-53.15c-14.17 0-26.57-12.4-26.57-26.57s12.4-26.57 26.57-26.57z"
           id="path1485" />
        <path
           stroke-width=".638"
           d="m699.6 531.2v61.87"
           id="path1487" />
        <path
           stroke-width="1.24"
           d="m363.2 194.9c17.72 1e-5 30.18 1e-5 53.15 0 14.17 0 26.57 12.4 26.57 26.57s-12.4 26.57-26.57 26.57h-53.15c-14.17 0-26.57-12.4-26.57-26.57s12.4-26.57 26.57-26.57z"
           id="path1489" />
        <path
           stroke-width=".638"
           d="m389.8 248v41.37"
           id="path1491" />
      </g>
    </g>
    <path
       stroke-dasharray="5.102 2.551"
       stroke-linecap="round"
       stroke-width=".638"
       d="m522.5 345.5v161.6"
       id="path1497" />
    <path
       stroke-dasharray="5.102 2.551"
       stroke-linecap="round"
       stroke-width=".638"
       d="m522.5 194.8-59.93 0.07623"
       id="path1499" />
    <g
       id="g1511">
      <path
         stroke-width="1.24"
         d="m619.9 487.7v104.9"
         id="path1501" />
      <g
         stroke-linecap="round"
         id="g1509">
        <path
           stroke-width="1.24"
           d="m428.6 340.2 129.2-0.06116"
           id="path1503" />
        <path
           stroke-width="1.24"
           d="m558.1 469.5h43.89"
           id="path1505" />
        <path
           stroke-width="1.24"
           d="m557.9 340.2v129.4"
           id="path1507" />
      </g>
    </g>
    <path
       stroke-dasharray="5.102 2.551"
       stroke-linecap="round"
       stroke-width=".638"
       d="m522.5 194.9v140.5"
       id="path1513" />
    <g
       id="g1557">
      <g
         id="g1525">
        <path
           stroke-width="1.24"
           d="m345.2 558.1v8.84"
           id="path1515" />
        <path
           stroke-width="1.24"
           d="m345 593.5 32.08-0.03193"
           id="path1517" />
        <path
           stroke-width="1.24"
           d="m549.1 593.5h5.283"
           id="path1519" />
        <path
           stroke-width="1.24"
           d="m756.4 593.5h19.15"
           id="path1521" />
        <path
           stroke-width="1.24"
           d="m817.9 593.5 23.02-0.05806"
           id="path1523" />
      </g>
      <g
         stroke-linecap="round"
         id="g1535">
        <path
           stroke-width="1.772"
           d="m424.9 485.8v24.16"
           id="path1527" />
        <path
           stroke-width="1.772"
           d="m428.4 485.8v24.16"
           id="path1529" />
        <path
           stroke-width="1.772"
           d="m265.5 514.2v17.72"
           id="path1531" />
        <path
           stroke-width="1.772"
           d="m262.1 514.2v17.72"
           id="path1533" />
      </g>
      <g
         id="g1543">
        <path
           stroke-width="1.24"
           d="m274.4 522.7h-8.498"
           id="path1537" />
        <path
           stroke-width="1.24"
           d="m150.3 496.1c17.72 1e-5 30.18 1e-5 53.15 0 14.17 0 26.57 12.4 26.57 26.57s-12.4 26.57-26.57 26.57h-53.15c-14.17 0-26.57-12.4-26.57-26.57s12.4-26.57 26.57-26.57z"
           id="path1539" />
        <path
           stroke-width="1.24"
           d="m261.9 522.6h-137.6"
           id="path1541" />
      </g>
      <path
         stroke-linecap="round"
         stroke-linejoin="round"
         stroke-width="1.24"
         d="m26.55 318.9h150.7v53.15h-150.7v-53.15"
         id="path1545" />
      <path
         stroke-linejoin="round"
         stroke-width="1.24"
         d="m26.05 345.4h151.2"
         id="path1547" />
      <path
         stroke-width="1.24"
         d="m185.9 345.4h-8.96"
         id="path1549" />
      <path
         stroke-linecap="round"
         stroke-linejoin="round"
         stroke-width="1.24"
         d="m885.8 567 150.6-0.05814v53.15l-150.6 0.05813v-53.15"
         id="path1551" />
      <path
         stroke-linejoin="round"
         stroke-width="1.24"
         d="m886.3 593.5h149.5"
         id="path1553" />
      <path
         stroke-width="1.24"
         d="m886.1 593.5h-8.923"
         id="path1555" />
    </g>
  </g>
  <path
     fill-rule="evenodd"
     stroke="#000"
     stroke-linecap="round"
     stroke-linejoin="round"
     stroke-width="1.24"
     d="m526.3 505.5-3.815 7.631-3.815-7.631h7.631z"
     id="path1561" />
  <g
     font-family="Arial"
     text-anchor="middle"
     id="g1727">
    <text
       x="96.674"
       y="347.365"
       font-size="18"
       space="preserve"
       text-align="center"
       transform="scale(1.03 .971)"
       style="line-height:36.86055541%"
       id="text1567">
      <tspan
         x="96.674"
         y="347.365"
         id="tspan1565">
        <tspan
           x="96.674"
           y="347.365"
           id="tspan1563">Lösung</tspan>
      </tspan>
    </text>
    <text
       x="171.937"
       y="558.141"
       font-size="18"
       space="preserve"
       text-align="center"
       transform="scale(1.03 .971)"
       style="line-height:36.86055541%"
       id="text1573">
      <tspan
         x="171.937"
         y="558.141"
         id="tspan1571">
        <tspan
           x="171.937"
           y="558.141"
           id="tspan1569">0012</tspan>
      </tspan>
    </text>
    <text
       x="172.725"
       y="531.103"
       font-size="18"
       space="preserve"
       text-align="center"
       transform="scale(1.03 .971)"
       style="line-height:36.86055541%"
       id="text1579">
      <tspan
         x="172.725"
         y="531.103"
         id="tspan1577">
        <tspan
           x="172.725"
           y="531.103"
           id="tspan1575">L</tspan>
      </tspan>
    </text>
    <text
       x="231.596"
       y="560.806"
       font-size="12.32"
       space="preserve"
       text-align="center"
       transform="scale(1.03 .971)"
       style="line-height:36.86055541%"
       id="text1585">
      <tspan
         x="231.596"
         y="560.806"
         id="tspan1583">
        <tspan
           x="231.596"
           y="560.806"
           id="tspan1581">AL</tspan>
      </tspan>
    </text>
    <text
       x="142.448"
       y="421.481"
       font-size="18"
       space="preserve"
       text-align="center"
       transform="scale(1.03 .971)"
       style="line-height:36.86055541%"
       id="text1591">
      <tspan
         x="142.448"
         y="421.481"
         id="tspan1589">
        <tspan
           x="142.448"
           y="421.481"
           id="tspan1587">01-100-PE-N</tspan>
      </tspan>
    </text>
    <text
       x="98.115"
       y="373.502"
       font-size="18"
       space="preserve"
       text-align="center"
       transform="scale(1.03 .971)"
       style="line-height:36.86055541%"
       id="text1597">
      <tspan
         x="98.115"
         y="373.502"
         id="tspan1595">
        <tspan
           x="98.115"
           y="373.502"
           id="tspan1593">von Hauptanlage</tspan>
      </tspan>
    </text>
    <text
       x="300.199"
       y="332.131"
       font-size="18"
       space="preserve"
       text-align="center"
       transform="scale(1.03 .971)"
       style="line-height:36.86055541%"
       id="text1603">
      <tspan
         x="300.199"
         y="332.131"
         id="tspan1601">
        <tspan
           x="300.199"
           y="332.131"
           id="tspan1599">N4</tspan>
      </tspan>
    </text>
    <text
       x="284.093"
       y="361.241"
       font-size="18"
       space="preserve"
       text-align="center"
       transform="scale(1.03 .971)"
       style="line-height:36.86055541%"
       id="text1609">
      <tspan
         x="284.093"
         y="361.241"
         id="tspan1607">
        <tspan
           x="284.093"
           y="361.241"
           id="tspan1605">N1</tspan>
      </tspan>
    </text>
    <text
       x="372.051"
       y="332.131"
       font-size="18"
       space="preserve"
       text-align="center"
       transform="scale(1.03 .971)"
       style="line-height:36.86055541%"
       id="text1615">
      <tspan
         x="372.051"
         y="332.131"
         id="tspan1613">
        <tspan
           x="372.051"
           y="332.131"
           id="tspan1611">N5</tspan>
      </tspan>
    </text>
    <text
       x="385.073"
       y="357.024"
       font-size="18"
       space="preserve"
       text-align="center"
       transform="scale(1.03 .971)"
       style="line-height:36.86055541%"
       id="text1621">
      <tspan
         x="385.073"
         y="357.024"
         id="tspan1619">
        <tspan
           x="385.073"
           y="357.024"
           id="tspan1617">N2</tspan>
      </tspan>
    </text>
    <g
       font-size="18"
       id="g1647">
      <text
         x="336.966"
         y="434.862"
         space="preserve"
         text-align="center"
         transform="scale(1.03 .971)"
         style="line-height:36.86055541%"
         id="text1627">
        <tspan
           x="336.966"
           y="434.862"
           id="tspan1625">
          <tspan
             x="336.966"
             y="434.862"
             id="tspan1623">B001</tspan>
        </tspan>
      </text>
      <text
         x="281.32"
         y="544.718"
         space="preserve"
         text-align="center"
         transform="scale(1.03 .971)"
         style="line-height:36.86055541%"
         id="text1633">
        <tspan
           x="281.32"
           y="544.718"
           id="tspan1631">
          <tspan
             x="281.32"
             y="544.718"
             id="tspan1629">N6</tspan>
        </tspan>
      </text>
      <text
         x="335.685"
         y="565.659"
         space="preserve"
         text-align="center"
         transform="scale(1.03 .971)"
         style="line-height:36.86055541%"
         id="text1639">
        <tspan
           x="335.685"
           y="565.659"
           id="tspan1637">
          <tspan
             x="335.685"
             y="565.659"
             id="tspan1635">N3</tspan>
        </tspan>
      </text>
      <text
         x="386.681"
         y="518.656"
         space="preserve"
         text-align="center"
         transform="scale(1.03 .971)"
         style="line-height:36.86055541%"
         id="text1645">
        <tspan
           x="386.681"
           y="518.656"
           id="tspan1643">
          <tspan
             x="386.681"
             y="518.656"
             id="tspan1641">M1</tspan>
        </tspan>
      </text>
    </g>
    <text
       x="446.468"
       y="592.808"
       font-size="18"
       space="preserve"
       text-align="center"
       transform="scale(1.03 .971)"
       style="line-height:36.86055541%"
       id="text1653">
      <tspan
         x="446.468"
         y="592.808"
         id="tspan1651">
        <tspan
           x="446.468"
           y="592.808"
           id="tspan1649">100/50</tspan>
      </tspan>
    </text>
    <text
       x="510.991"
       y="665.794"
       font-size="18"
       space="preserve"
       text-align="center"
       transform="scale(1.03 .971)"
       style="line-height:36.86055541%"
       id="text1659">
      <tspan
         x="510.991"
         y="665.794"
         id="tspan1657">
        <tspan
           x="510.991"
           y="665.794"
           id="tspan1655">P001</tspan>
      </tspan>
    </text>
    <text
       x="567.746"
       y="592.808"
       font-size="18"
       space="preserve"
       text-align="center"
       transform="scale(1.03 .971)"
       style="line-height:36.86055541%"
       id="text1665">
      <tspan
         x="567.746"
         y="592.808"
         id="tspan1663">
        <tspan
           x="567.746"
           y="592.808"
           id="tspan1661">100/50</tspan>
      </tspan>
    </text>
    <text
       x="581.302"
       y="419.715"
       font-size="18"
       space="preserve"
       text-align="center"
       transform="scale(1.03 .971)"
       style="line-height:36.86055541%"
       id="text1671">
      <tspan
         x="581.302"
         y="419.715"
         id="tspan1669">
        <tspan
           x="581.302"
           y="419.715"
           id="tspan1667">PA=</tspan>
      </tspan>
    </text>
    <text
       x="597.272"
       y="437.742"
       font-size="18"
       space="preserve"
       text-align="center"
       transform="scale(1.03 .971)"
       style="line-height:36.86055541%"
       id="text1677">
      <tspan
         x="597.272"
         y="437.742"
         id="tspan1675">
        <tspan
           x="597.272"
           y="437.742"
           id="tspan1673">6 BARÜ</tspan>
      </tspan>
    </text>
    <text
       x="678.401"
       y="539.864"
       font-size="18"
       space="preserve"
       text-align="center"
       transform="scale(1.03 .971)"
       style="line-height:36.86055541%"
       id="text1683">
      <tspan
         x="678.401"
         y="539.864"
         id="tspan1681">
        <tspan
           x="678.401"
           y="539.864"
           id="tspan1679">0013</tspan>
      </tspan>
    </text>
    <text
       x="677.879"
       y="512.826"
       font-size="18"
       space="preserve"
       text-align="center"
       transform="scale(1.03 .971)"
       style="line-height:36.86055541%"
       id="text1689">
      <tspan
         x="677.879"
         y="512.826"
         id="tspan1687">
        <tspan
           x="677.879"
           y="512.826"
           id="tspan1685">PI</tspan>
      </tspan>
    </text>
    <text
       x="639.914"
       y="643.53"
       font-size="18"
       space="preserve"
       text-align="center"
       transform="scale(1.03 .971)"
       style="line-height:36.86055541%"
       id="text1695">
      <tspan
         x="639.914"
         y="643.53"
         id="tspan1693">
        <tspan
           x="639.914"
           y="643.53"
           id="tspan1691">02-100-PE-N</tspan>
      </tspan>
    </text>
    <text
       x="934.701"
       y="602.585"
       font-size="18"
       space="preserve"
       text-align="center"
       transform="scale(1.03 .971)"
       style="line-height:36.86055541%"
       id="text1701">
      <tspan
         x="934.701"
         y="602.585"
         id="tspan1699">
        <tspan
           x="934.701"
           y="602.585"
           id="tspan1697">Lösung</tspan>
      </tspan>
    </text>
    <text
       x="933.008"
       y="629.944"
       font-size="18"
       space="preserve"
       text-align="center"
       transform="scale(1.03 .971)"
       style="line-height:36.86055541%"
       id="text1707">
      <tspan
         x="933.008"
         y="629.944"
         id="tspan1705">
        <tspan
           x="933.008"
           y="629.944"
           id="tspan1703">zu Verbraucher</tspan>
      </tspan>
    </text>
    <text
       x="378.57"
       y="220.928"
       font-size="18"
       space="preserve"
       text-align="center"
       transform="scale(1.03 .971)"
       style="line-height:36.86055541%"
       id="text1713">
      <tspan
         x="378.57"
         y="220.928"
         id="tspan1711">
        <tspan
           x="378.57"
           y="220.928"
           id="tspan1709">L</tspan>
      </tspan>
    </text>
    <text
       x="378.063"
       y="247.965"
       font-size="18"
       space="preserve"
       text-align="center"
       transform="scale(1.03 .971)"
       style="line-height:36.86055541%"
       id="text1719">
      <tspan
         x="378.063"
         y="247.965"
         id="tspan1717">
        <tspan
           x="378.063"
           y="247.965"
           id="tspan1715">0011</tspan>
      </tspan>
    </text>
    <text
       x="439.833"
       y="205.003"
       font-size="12.32"
       space="preserve"
       text-align="center"
       transform="scale(1.03 .971)"
       style="line-height:36.86055541%"
       id="text1725">
      <tspan
         x="439.833"
         y="205.003"
         id="tspan1723">
        <tspan
           x="439.833"
           y="205.003"
           id="tspan1721">SH</tspan>
      </tspan>
    </text>
  </g>
  <g
     fill="none"
     stroke="#000"
     stroke-width="1.24"
     id="g1741">
    <path
       d="m141.7 26.52 3e-5 116.9"
       id="path1729" />
    <path
       d="m354.3 126h-327.8"
       id="path1731" />
    <path
       d="m354.3 108.2h-327.1"
       id="path1733" />
    <path
       d="m353.7 62.18h-327.1"
       id="path1735" />
    <path
       d="m354.9 44.47h-327.8"
       id="path1737" />
    <path
       d="m248 26.66v117"
       id="path1739" />
  </g>
  <g
     font-family="Arial"
     id="g1847">
    <text
       x="31.902"
       y="56.602"
       font-size="10"
       space="preserve"
       transform="scale(1.03 .971)"
       style="line-height:36.86055541%"
       id="text1747">
      <tspan
         x="31.902"
         y="56.602"
         id="tspan1745">
        <tspan
           x="31.902"
           y="56.602"
           id="tspan1743">Benennung</tspan>
      </tspan>
    </text>
    <text
       x="189.657"
       y="42.836"
       font-size="18"
       space="preserve"
       text-align="center"
       text-anchor="middle"
       transform="scale(1.03 .971)"
       style="line-height:36.86055541%"
       id="text1753">
      <tspan
         x="189.657"
         y="42.836"
         id="tspan1751">
        <tspan
           x="189.657"
           y="42.836"
           id="tspan1749">B001</tspan>
      </tspan>
    </text>
    <text
       x="294.521"
       y="43.018"
       font-size="18"
       space="preserve"
       text-align="center"
       text-anchor="middle"
       transform="scale(1.03 .971)"
       style="line-height:36.86055541%"
       id="text1759">
      <tspan
         x="294.521"
         y="43.018"
         id="tspan1757">
        <tspan
           x="294.521"
           y="43.018"
           id="tspan1755">P001</tspan>
      </tspan>
    </text>
    <g
       font-size="10"
       id="g1845">
      <text
         x="141.957"
         y="56.724"
         space="preserve"
         transform="scale(1.03 .971)"
         style="line-height:36.86055541%"
         id="text1765">
        <tspan
           x="141.957"
           y="56.724"
           id="tspan1763">
          <tspan
             x="141.957"
             y="56.724"
             id="tspan1761">Pufferbehälter</tspan>
        </tspan>
      </text>
      <text
         x="245.18"
         y="56.602"
         space="preserve"
         transform="scale(1.03 .971)"
         style="line-height:36.86055541%"
         id="text1771">
        <tspan
           x="245.18"
           y="56.602"
           id="tspan1769">
          <tspan
             x="245.18"
             y="56.602"
             id="tspan1767">Nachspeisepumpe</tspan>
        </tspan>
      </text>
      <text
         x="245.512"
         y="74.797"
         space="preserve"
         transform="scale(1.03 .971)"
         style="line-height:36.86055541%"
         id="text1777">
        <tspan
           x="245.512"
           y="74.797"
           id="tspan1775">
          <tspan
             x="245.512"
             y="74.797"
             id="tspan1773">Q = 5 m3/h</tspan>
        </tspan>
      </text>
      <text
         x="245.599"
         y="89.475"
         space="preserve"
         transform="scale(1.03 .971)"
         style="line-height:36.86055541%"
         id="text1783">
        <tspan
           x="245.599"
           y="89.475"
           id="tspan1781">
          <tspan
             x="245.599"
             y="89.475"
             id="tspan1779">dp = 2,5 bar</tspan>
        </tspan>
      </text>
      <text
         x="244.958"
         y="122.307"
         space="preserve"
         transform="scale(1.03 .971)"
         style="line-height:36.86055541%"
         id="text1789">
        <tspan
           x="244.958"
           y="122.307"
           id="tspan1787">
          <tspan
             x="244.958"
             y="122.307"
             id="tspan1785">10 bar</tspan>
        </tspan>
      </text>
      <text
         x="245.526"
         y="140.657"
         space="preserve"
         transform="scale(1.03 .971)"
         style="line-height:36.86055541%"
         id="text1795">
        <tspan
           x="245.526"
           y="140.657"
           id="tspan1793">
          <tspan
             x="245.526"
             y="140.657"
             id="tspan1791">50 °C</tspan>
        </tspan>
      </text>
      <text
         x="141.957"
         y="74.867"
         space="preserve"
         transform="scale(1.03 .971)"
         style="line-height:36.86055541%"
         id="text1801">
        <tspan
           x="141.957"
           y="74.867"
           id="tspan1799">
          <tspan
             x="141.957"
             y="74.867"
             id="tspan1797">D = 1000</tspan>
        </tspan>
      </text>
      <text
         x="141.927"
         y="89.459"
         space="preserve"
         transform="scale(1.03 .971)"
         style="line-height:36.86055541%"
         id="text1807">
        <tspan
           x="141.927"
           y="89.459"
           id="tspan1805">
          <tspan
             x="141.927"
             y="89.459"
             id="tspan1803">H = 3000</tspan>
        </tspan>
      </text>
      <text
         x="142.685"
         y="104.072"
         space="preserve"
         transform="scale(1.03 .971)"
         style="line-height:36.86055541%"
         id="text1813">
        <tspan
           x="142.685"
           y="104.072"
           id="tspan1811">
          <tspan
             x="142.685"
             y="104.072"
             id="tspan1809">V = 2,4 m3</tspan>
        </tspan>
      </text>
      <text
         x="141.64"
         y="122.307"
         space="preserve"
         transform="scale(1.03 .971)"
         style="line-height:36.86055541%"
         id="text1819">
        <tspan
           x="141.64"
           y="122.307"
           id="tspan1817">
          <tspan
             x="141.64"
             y="122.307"
             id="tspan1815">10 bar</tspan>
        </tspan>
      </text>
      <text
         x="142.314"
         y="140.554"
         space="preserve"
         transform="scale(1.03 .971)"
         style="line-height:36.86055541%"
         id="text1825">
        <tspan
           x="142.314"
           y="140.554"
           id="tspan1823">
          <tspan
             x="142.314"
             y="140.554"
             id="tspan1821">50 °C</tspan>
        </tspan>
      </text>
      <text
         x="32.401"
         y="74.849"
         space="preserve"
         transform="scale(1.03 .971)"
         style="line-height:36.86055541%"
         id="text1831">
        <tspan
           x="32.401"
           y="74.849"
           id="tspan1829">
          <tspan
             x="32.401"
             y="74.849"
             id="tspan1827">Technische Daten</tspan>
        </tspan>
      </text>
      <text
         x="32.434"
         y="122.442"
         space="preserve"
         transform="scale(1.03 .971)"
         style="line-height:36.86055541%"
         id="text1837">
        <tspan
           x="32.434"
           y="122.442"
           id="tspan1835">
          <tspan
             x="32.434"
             y="122.442"
             id="tspan1833">Zulässiger Überdruck</tspan>
        </tspan>
      </text>
      <text
         x="32.727"
         y="140.579"
         space="preserve"
         transform="scale(1.03 .971)"
         style="line-height:36.86055541%"
         id="text1843">
        <tspan
           x="32.727"
           y="140.579"
           id="tspan1841">
          <tspan
             x="32.727"
             y="140.579"
             id="tspan1839">Zulässige Temperatur</tspan>
        </tspan>
      </text>
    </g>
  </g>
  <g
     fill="none"
     stroke="#000"
     id="g1855">
    <rect
       width="327.8"
       height="116.9"
       x="26.52"
       y="26.52"
       stroke-linejoin="round"
       stroke-width="1.24"
       id="rect1849" />
    <path
       stroke-linecap="round"
       stroke-width=".638"
       d="m204.2 417-113.4 0.1443"
       id="path1851" />
    <path
       stroke-linecap="round"
       stroke-width=".638"
       d="m243.4 347.8-39.22 69.29"
       id="path1853" />
  </g>
</svg>
