<svg xmlns="http://www.w3.org/2000/svg" xmlns:svg="http://www.w3.org/2000/svg" xmlns:xlink="http://www.w3.org/1999/xlink" id="svg1857" width="297mm" height="210mm" version="1.0"><metadata id="metadata1339"/><link id="dark-mode" rel="stylesheet" type="text/css"/><style id="dark-mode-custom-style" type="text/css"/><use id="use1342" width="1488.189" height="1052.362" transform="translate(290.6 8.506)" xlink:href="#ButterflyValve"/><use id="use1344" width="1488.189" height="1052.362" transform="translate(317.6 8.108)" xlink:href="#gButterflyValve"/><g id="g1366" fill="none" stroke="#000"><g id="g1362"><g id="g1352"><path id="path1346" stroke-width="1.24" d="m490.7 593.5h5.283"/><path id="path1348" stroke-width="1.24" d="m558.3 593.4 155.7 0.08229"/><path id="path1350" stroke-width="1.24" d="m419.8 593.5h93.01"/></g><g id="g1360" stroke-linejoin="round" stroke-width="1.24"><path id="path1354" d="m345.2 637.8 8.858 17.72h-17.72l8.858-17.72-8.858-17.72h17.72l-8.858 17.72z"/><path id="path1356" d="m345.1 628.9c4.895-0.00216 8.864 3.965 8.864 8.86 0 4.895-3.969 8.863-8.864 8.86-4.895 0.00216-8.864-3.965-8.864-8.86s3.969-8.863 8.864-8.86z"/><rect id="rect1358" width="35.43" height="17.72" x="380.7" y="584.7"/></g></g><path id="path1364" stroke-linecap="round" stroke-width="1.24" d="m380.7 584.7 35.43 17.72"/></g><g id="g1376" stroke="#000" stroke-linejoin="round"><path id="path1368" fill-rule="evenodd" stroke-width=".886" d="m403.1 593.5c0.00113 2.565-2.078 4.644-4.642 4.644s-4.643-2.08-4.642-4.644c-0.00113-2.565 2.078-4.644 4.642-4.644s4.643 2.08 4.642 4.644z"/><path id="path1370" fill="none" stroke-linecap="round" stroke-width="1.24" d="m619.9 469.5 8.858 17.72h-17.72l8.858-17.72-17.72 8.858v-17.72l17.72 8.858z"/><path id="path1372" fill="none" stroke-linecap="round" stroke-width="1.24" d="m620 434.1 8.838 2.946-17.68 5.892 17.68 5.892-17.68 5.892 8.838 2.946v11.78"/><path id="path1374" fill-rule="evenodd" stroke-width=".819" d="m615.3 469.5c-0.00113 2.565 2.078 4.644 4.642 4.644s4.643-2.08 4.642-4.644c0.00113-2.565-2.078-4.644-4.642-4.644s-4.643 2.08-4.642 4.644z"/></g><path id="path1378" fill="none" stroke="#000" stroke-linecap="round" stroke-width="3.543" d="m608.1 461.8v15.49"/><path id="p_ArrowInOut" fill="none" stroke="#000" stroke-linecap="round" stroke-linejoin="round" stroke-width="1.24" d="m841.6 584.7h17.72v-8.858l17.72 17.72-17.72 17.72v-8.858h-17.72v-17.72z"/><path id="p_Reducer" fill="none" stroke="#000" stroke-linecap="round" stroke-linejoin="round" stroke-width="1.24" d="m442.8 584.8 35.43 8.858-35.43 8.858v-17.72z"/><path id="p_Vessel" fill="none" stroke="#000" stroke-linecap="round" stroke-linejoin="round" stroke-width="1.24" d="m274.6 540.6v-226.6s35.36-17.68 70.72-17.68c35.36 0 70.72 17.68 70.72 17.68v226.6s-35.36 17.68-70.72 17.68c-35.36 0-70.72-17.68-70.72-17.68z"/><g id="g1389" fill="none" stroke="#000" stroke-width="1.24"><path id="path1383" stroke-linejoin="round" d="m549 593.5c0 14.67-11.89 26.56-26.56 26.56-14.67 0-26.56-11.89-26.56-26.56s11.89-26.56 26.56-26.56c14.67 0 26.56 11.89 26.56 26.56z"/><path id="path1385" stroke-linejoin="bevel" d="m522.5 567 26.57 26.57-26.57 26.57"/><path id="path1387" d="m495.9 593.5h53.15"/></g><use id="use1391" width="1488.189" height="1052.362" transform="translate(-655.6 -248)" xlink:href="#p_ArrowInOut"/><g id="g1419" fill="none"><g id="g1398" stroke="#000"><path id="path1393" stroke-width="1.24" d="m 345.1,570.4 0.046,49.22"/><path id="path1395" stroke-width="1.24" d="M 261.9,345.4 H 221.61"/><path id="p_OutletAtmosphere" stroke-linecap="round" stroke-linejoin="round" stroke-width="1.24" d="m 292,269.3 17.72,-17.72 17.72,17.72 m -17.72,0 v 17.72"/></g><use id="use1400" width="1488.189" height="1052.362" x="0" y="0" transform="matrix(-1,0,0,1,1045,-0.02476)" xlink:href="#p_Reducer"/><g id="g1417" stroke="#000"><path id="SHMI_DO1_D" stroke-dasharray="none" stroke-linejoin="round" stroke-miterlimit="4" stroke-width="1.24" d="m 540.7,531.9 c 0,9.866 -7.99,17.86 -17.85,17.86 -9.86,0 -17.85,-7.998 -17.85,-17.86 0,-9.862 7.99,-17.86 17.85,-17.86 9.86,0 17.85,7.998 17.85,17.86 z"><title id="title1863">SHMI_Motor_01</title></path><path id="path1404" stroke-linecap="round" stroke-linejoin="round" stroke-width="1.24" d="m 516.5,540.7 v -17.48 l 6.315,8.74 6.315,-8.74 v 17.48"/><g id="g1411"><path id="path1406" stroke-width=".638" d="m 522.5,549.6 v 17.47"/><path id="p_Flange" stroke-linecap="round" stroke-width="1.772" d="m 419.4,584.7 v 17.72"/><path id="path1409" stroke-linecap="round" stroke-width="1.772" d="m 377.6,584.7 v 17.72"/></g><rect id="rect1413" width="35.43" height="17.72" x="717.5" y="584.8" stroke-linejoin="round" stroke-width="1.24"/><path id="path1415" stroke-linecap="round" stroke-width="1.24" d="m 717.5,584.8 35.43,17.72"/></g></g><g id="g1429" stroke="#000"><path id="path1421" fill-rule="evenodd" stroke-linejoin="round" stroke-width=".592" d="m722.1 584.8c0.0011 2.565-2.078 4.644-4.642 4.644-2.565 0-4.643-2.08-4.642-4.644-0.0011-2.565 2.078-4.644 4.642-4.644 2.565 0 4.643 2.08 4.642 4.644z"/><rect id="rect1423" width="35.43" height="17.72" x="779.5" y="584.8" fill="none" stroke-linejoin="round" stroke-width="1.24"/><path id="path1425" fill="none" stroke-linecap="round" stroke-width="1.24" d="m779.5 584.8 35.43 17.72"/><path id="path1427" fill-rule="evenodd" stroke-linejoin="round" stroke-width=".886" d="m801.8 593.6c0.0011 2.565-2.078 4.644-4.642 4.644-2.565 0-4.643-2.08-4.642-4.644-0.0011-2.565 2.078-4.644 4.642-4.644 2.565 0 4.643 2.08 4.642 4.644z"/></g><g id="g1559" fill="none" stroke="#000"><g id="g1495"><g id="g1469" stroke-linecap="round" stroke-width="1.772"><path id="path1431" d="m817.8 584.8v17.72"/><path id="path1433" d="m776.4 584.8v17.72"/><path id="path1435" d="m755.8 584.8v17.72"/><path id="path1437" d="m714.7 584.8v17.72"/><path id="path1439" d="m557.9 584.4v17.72"/><path id="path1441" d="m554.5 584.4v17.72"/><path id="path1443" d="m490.5 584.7v17.72"/><path id="path1445" d="m487.1 584.7v17.72"/><path id="path1447" d="m265.7 336.9v17.72"/><path id="path1449" d="m262.3 336.9v17.72"/><path id="path1451" d="m336.4 567h17.72"/><path id="path1453" d="m336.4 570.4h17.72"/><path id="path1455" d="m380.8 290.2h17.72"/><path id="path1457" d="m380.8 293.6h17.72"/><path id="path1459" d="m301.2 287.5h17.72"/><path id="path1461" d="m301.2 290.9h17.72"/><path id="path1463" d="m428.6 331.8v17.72"/><path id="path1465" d="m425.2 331.8v17.72"/><path id="path1467" d="m336.3 659.1h17.72"/></g><g id="g1493"><g id="g1479" stroke-width="1.24"><path id="path1471" d="m416.2 506.9h8.956"/><path id="path1473" d="m416 489.2h9.115"/><path id="path1475" d="m274.5 345.4h-8.498"/><path id="path1477" d="m424.8 340.5h-8.498"/></g><path id="path1481" stroke-width="1.24" d="m309.7 301.2v-10.02"/><path id="path1483" stroke-width="1.24" d="m389.7 303.3v-8.867"/><path id="path1485" stroke-width="1.24" d="m673 478.3c17.72 1e-5 30.18 1e-5 53.15 0 14.17 0 26.57 12.4 26.57 26.57s-12.4 26.57-26.57 26.57h-53.15c-14.17 0-26.57-12.4-26.57-26.57s12.4-26.57 26.57-26.57z"/><path id="path1487" stroke-width=".638" d="m699.6 531.2v61.87"/><path id="path1489" stroke-width="1.24" d="m363.2 194.9c17.72 1e-5 30.18 1e-5 53.15 0 14.17 0 26.57 12.4 26.57 26.57s-12.4 26.57-26.57 26.57h-53.15c-14.17 0-26.57-12.4-26.57-26.57s12.4-26.57 26.57-26.57z"/><path id="path1491" stroke-width=".638" d="m389.8 248v41.37"/></g></g><path id="path1497" stroke-dasharray="5.102 2.551" stroke-linecap="round" stroke-width=".638" d="m522.5 345.5v161.6"/><path id="path1499" stroke-dasharray="5.102 2.551" stroke-linecap="round" stroke-width=".638" d="m522.5 194.8-59.93 0.07623"/><g id="g1511"><path id="path1501" stroke-width="1.24" d="m619.9 487.7v104.9"/><g id="g1509" stroke-linecap="round"><path id="path1503" stroke-width="1.24" d="m428.6 340.2 129.2-0.06116"/><path id="path1505" stroke-width="1.24" d="m558.1 469.5h43.89"/><path id="path1507" stroke-width="1.24" d="m557.9 340.2v129.4"/></g></g><path id="path1513" stroke-dasharray="5.102 2.551" stroke-linecap="round" stroke-width=".638" d="m522.5 194.9v140.5"/><g id="g1557"><g id="g1525"><path id="path1515" stroke-width="1.24" d="m345.2 558.1v8.84"/><path id="path1517" stroke-width="1.24" d="m345 593.5 32.08-0.03193"/><path id="path1519" stroke-width="1.24" d="m549.1 593.5h5.283"/><path id="path1521" stroke-width="1.24" d="m756.4 593.5h19.15"/><path id="path1523" stroke-width="1.24" d="m817.9 593.5 23.02-0.05806"/></g><g id="g1535" stroke-linecap="round"><path id="path1527" stroke-width="1.772" d="m424.9 485.8v24.16"/><path id="path1529" stroke-width="1.772" d="m428.4 485.8v24.16"/><path id="path1531" stroke-width="1.772" d="m265.5 514.2v17.72"/><path id="path1533" stroke-width="1.772" d="m262.1 514.2v17.72"/></g><g id="g1543"><path id="path1537" stroke-width="1.24" d="m274.4 522.7h-8.498"/><path id="path1539" stroke-width="1.24" d="m150.3 496.1c17.72 1e-5 30.18 1e-5 53.15 0 14.17 0 26.57 12.4 26.57 26.57s-12.4 26.57-26.57 26.57h-53.15c-14.17 0-26.57-12.4-26.57-26.57s12.4-26.57 26.57-26.57z"/><path id="path1541" stroke-width="1.24" d="m261.9 522.6h-137.6"/></g><path id="path1545" stroke-linecap="round" stroke-linejoin="round" stroke-width="1.24" d="m26.55 318.9h150.7v53.15h-150.7v-53.15"/><path id="path1547" stroke-linejoin="round" stroke-width="1.24" d="m26.05 345.4h151.2"/><path id="path1549" stroke-width="1.24" d="m185.9 345.4h-8.96"/><path id="path1551" stroke-linecap="round" stroke-linejoin="round" stroke-width="1.24" d="m885.8 567 150.6-0.05814v53.15l-150.6 0.05813v-53.15"/><path id="path1553" stroke-linejoin="round" stroke-width="1.24" d="m886.3 593.5h149.5"/><path id="path1555" stroke-width="1.24" d="m886.1 593.5h-8.923"/></g></g><path id="path1561" fill-rule="evenodd" stroke="#000" stroke-linecap="round" stroke-linejoin="round" stroke-width="1.24" d="m526.3 505.5-3.815 7.631-3.815-7.631h7.631z"/><g id="g1727" font-family="Arial" text-anchor="middle"><text id="text1567" x="96.674" y="347.365" font-size="18" space="preserve" text-align="center" transform="scale(1.03 .971)" style="line-height:36.86055541%"><tspan id="tspan1565" x="96.674" y="347.365"><tspan id="tspan1563" x="96.674" y="347.365">Lösung</tspan></tspan></text><text id="text1573" x="171.937" y="558.141" font-size="18" space="preserve" text-align="center" transform="scale(1.03 .971)" style="line-height:36.86055541%"><tspan id="tspan1571" x="171.937" y="558.141"><tspan id="tspan1569" x="171.937" y="558.141">0012</tspan></tspan></text><text id="text1579" x="172.725" y="531.103" font-size="18" space="preserve" text-align="center" transform="scale(1.03 .971)" style="line-height:36.86055541%"><tspan id="tspan1577" x="172.725" y="531.103"><tspan id="tspan1575" x="172.725" y="531.103">L</tspan></tspan></text><text id="text1585" x="231.596" y="560.806" font-size="12.32" space="preserve" text-align="center" transform="scale(1.03 .971)" style="line-height:36.86055541%"><tspan id="tspan1583" x="231.596" y="560.806"><tspan id="tspan1581" x="231.596" y="560.806">AL</tspan></tspan></text><text id="text1591" x="142.448" y="421.481" font-size="18" space="preserve" text-align="center" transform="scale(1.03 .971)" style="line-height:36.86055541%"><tspan id="tspan1589" x="142.448" y="421.481"><tspan id="tspan1587" x="142.448" y="421.481">01-100-PE-N</tspan></tspan></text><text id="text1597" x="98.115" y="373.502" font-size="18" space="preserve" text-align="center" transform="scale(1.03 .971)" style="line-height:36.86055541%"><tspan id="tspan1595" x="98.115" y="373.502"><tspan id="tspan1593" x="98.115" y="373.502">von Hauptanlage</tspan></tspan></text><text id="text1603" x="300.199" y="332.131" font-size="18" space="preserve" text-align="center" transform="scale(1.03 .971)" style="line-height:36.86055541%"><tspan id="tspan1601" x="300.199" y="332.131"><tspan id="tspan1599" x="300.199" y="332.131">N4</tspan></tspan></text><text id="text1609" x="284.093" y="361.241" font-size="18" space="preserve" text-align="center" transform="scale(1.03 .971)" style="line-height:36.86055541%"><tspan id="tspan1607" x="284.093" y="361.241"><tspan id="tspan1605" x="284.093" y="361.241">N1</tspan></tspan></text><text id="text1615" x="372.051" y="332.131" font-size="18" space="preserve" text-align="center" transform="scale(1.03 .971)" style="line-height:36.86055541%"><tspan id="tspan1613" x="372.051" y="332.131"><tspan id="tspan1611" x="372.051" y="332.131">N5</tspan></tspan></text><text id="text1621" x="385.073" y="357.024" font-size="18" space="preserve" text-align="center" transform="scale(1.03 .971)" style="line-height:36.86055541%"><tspan id="tspan1619" x="385.073" y="357.024"><tspan id="tspan1617" x="385.073" y="357.024">N2</tspan></tspan></text><g id="g1647" font-size="18"><text id="text1627" x="336.966" y="434.862" space="preserve" text-align="center" transform="scale(1.03 .971)" style="line-height:36.86055541%"><tspan id="tspan1625" x="336.966" y="434.862"><tspan id="tspan1623" x="336.966" y="434.862">B001</tspan></tspan></text><text id="text1633" x="281.32" y="544.718" space="preserve" text-align="center" transform="scale(1.03 .971)" style="line-height:36.86055541%"><tspan id="tspan1631" x="281.32" y="544.718"><tspan id="tspan1629" x="281.32" y="544.718">N6</tspan></tspan></text><text id="text1639" x="335.685" y="565.659" space="preserve" text-align="center" transform="scale(1.03 .971)" style="line-height:36.86055541%"><tspan id="tspan1637" x="335.685" y="565.659"><tspan id="tspan1635" x="335.685" y="565.659">N3</tspan></tspan></text><text id="text1645" x="386.681" y="518.656" space="preserve" text-align="center" transform="scale(1.03 .971)" style="line-height:36.86055541%"><tspan id="tspan1643" x="386.681" y="518.656"><tspan id="tspan1641" x="386.681" y="518.656">M1</tspan></tspan></text></g><text id="text1653" x="446.468" y="592.808" font-size="18" space="preserve" text-align="center" transform="scale(1.03 .971)" style="line-height:36.86055541%"><tspan id="tspan1651" x="446.468" y="592.808"><tspan id="tspan1649" x="446.468" y="592.808">100/50</tspan></tspan></text><text id="text1659" x="510.991" y="665.794" font-size="18" space="preserve" text-align="center" transform="scale(1.03 .971)" style="line-height:36.86055541%"><tspan id="tspan1657" x="510.991" y="665.794"><tspan id="tspan1655" x="510.991" y="665.794">P001</tspan></tspan></text><text id="text1665" x="567.746" y="592.808" font-size="18" space="preserve" text-align="center" transform="scale(1.03 .971)" style="line-height:36.86055541%"><tspan id="tspan1663" x="567.746" y="592.808"><tspan id="tspan1661" x="567.746" y="592.808">100/50</tspan></tspan></text><text id="text1671" x="581.302" y="419.715" font-size="18" space="preserve" text-align="center" transform="scale(1.03 .971)" style="line-height:36.86055541%"><tspan id="tspan1669" x="581.302" y="419.715"><tspan id="tspan1667" x="581.302" y="419.715">PA=</tspan></tspan></text><text id="text1677" x="597.272" y="437.742" font-size="18" space="preserve" text-align="center" transform="scale(1.03 .971)" style="line-height:36.86055541%"><tspan id="tspan1675" x="597.272" y="437.742"><tspan id="tspan1673" x="597.272" y="437.742">6 BARÜ</tspan></tspan></text><text id="text1683" x="678.401" y="539.864" font-size="18" space="preserve" text-align="center" transform="scale(1.03 .971)" style="line-height:36.86055541%"><tspan id="tspan1681" x="678.401" y="539.864"><tspan id="tspan1679" x="678.401" y="539.864">0013</tspan></tspan></text><text id="text1689" x="677.879" y="512.826" font-size="18" space="preserve" text-align="center" transform="scale(1.03 .971)" style="line-height:36.86055541%"><tspan id="tspan1687" x="677.879" y="512.826"><tspan id="tspan1685" x="677.879" y="512.826">PI</tspan></tspan></text><text id="text1695" x="639.914" y="643.53" font-size="18" space="preserve" text-align="center" transform="scale(1.03 .971)" style="line-height:36.86055541%"><tspan id="tspan1693" x="639.914" y="643.53"><tspan id="tspan1691" x="639.914" y="643.53">02-100-PE-N</tspan></tspan></text><text id="text1701" x="934.701" y="602.585" font-size="18" space="preserve" text-align="center" transform="scale(1.03 .971)" style="line-height:36.86055541%"><tspan id="tspan1699" x="934.701" y="602.585"><tspan id="tspan1697" x="934.701" y="602.585">Lösung</tspan></tspan></text><text id="text1707" x="933.008" y="629.944" font-size="18" space="preserve" text-align="center" transform="scale(1.03 .971)" style="line-height:36.86055541%"><tspan id="tspan1705" x="933.008" y="629.944"><tspan id="tspan1703" x="933.008" y="629.944">zu Verbraucher</tspan></tspan></text><text id="text1713" x="378.57" y="220.928" font-size="18" space="preserve" text-align="center" transform="scale(1.03 .971)" style="line-height:36.86055541%"><tspan id="tspan1711" x="378.57" y="220.928"><tspan id="tspan1709" x="378.57" y="220.928">L</tspan></tspan></text><text id="text1719" x="378.063" y="247.965" font-size="18" space="preserve" text-align="center" transform="scale(1.03 .971)" style="line-height:36.86055541%"><tspan id="tspan1717" x="378.063" y="247.965"><tspan id="tspan1715" x="378.063" y="247.965">0011</tspan></tspan></text><text id="text1725" x="439.833" y="205.003" font-size="12.32" space="preserve" text-align="center" transform="scale(1.03 .971)" style="line-height:36.86055541%"><tspan id="tspan1723" x="439.833" y="205.003"><tspan id="tspan1721" x="439.833" y="205.003">SH</tspan></tspan></text></g><g id="g1741" fill="none" stroke="#000" stroke-width="1.24"><path id="path1729" d="m141.7 26.52 3e-5 116.9"/><path id="path1731" d="m354.3 126h-327.8"/><path id="path1733" d="m354.3 108.2h-327.1"/><path id="path1735" d="m353.7 62.18h-327.1"/><path id="path1737" d="m354.9 44.47h-327.8"/><path id="path1739" d="m248 26.66v117"/></g><g id="g1847" font-family="Arial"><text id="text1747" x="31.902" y="56.602" font-size="10" space="preserve" transform="scale(1.03 .971)" style="line-height:36.86055541%"><tspan id="tspan1745" x="31.902" y="56.602"><tspan id="tspan1743" x="31.902" y="56.602">Benennung</tspan></tspan></text><text id="text1753" x="189.657" y="42.836" font-size="18" space="preserve" text-align="center" text-anchor="middle" transform="scale(1.03 .971)" style="line-height:36.86055541%"><tspan id="tspan1751" x="189.657" y="42.836"><tspan id="tspan1749" x="189.657" y="42.836">B001</tspan></tspan></text><text id="text1759" x="294.521" y="43.018" font-size="18" space="preserve" text-align="center" text-anchor="middle" transform="scale(1.03 .971)" style="line-height:36.86055541%"><tspan id="tspan1757" x="294.521" y="43.018"><tspan id="tspan1755" x="294.521" y="43.018">P001</tspan></tspan></text><g id="g1845" font-size="10"><text id="text1765" x="141.957" y="56.724" space="preserve" transform="scale(1.03 .971)" style="line-height:36.86055541%"><tspan id="tspan1763" x="141.957" y="56.724"><tspan id="tspan1761" x="141.957" y="56.724">Pufferbehälter</tspan></tspan></text><text id="text1771" x="245.18" y="56.602" space="preserve" transform="scale(1.03 .971)" style="line-height:36.86055541%"><tspan id="tspan1769" x="245.18" y="56.602"><tspan id="tspan1767" x="245.18" y="56.602">Nachspeisepumpe</tspan></tspan></text><text id="text1777" x="245.512" y="74.797" space="preserve" transform="scale(1.03 .971)" style="line-height:36.86055541%"><tspan id="tspan1775" x="245.512" y="74.797"><tspan id="tspan1773" x="245.512" y="74.797">Q = 5 m3/h</tspan></tspan></text><text id="text1783" x="245.599" y="89.475" space="preserve" transform="scale(1.03 .971)" style="line-height:36.86055541%"><tspan id="tspan1781" x="245.599" y="89.475"><tspan id="tspan1779" x="245.599" y="89.475">dp = 2,5 bar</tspan></tspan></text><text id="text1789" x="244.958" y="122.307" space="preserve" transform="scale(1.03 .971)" style="line-height:36.86055541%"><tspan id="tspan1787" x="244.958" y="122.307"><tspan id="tspan1785" x="244.958" y="122.307">10 bar</tspan></tspan></text><text id="text1795" x="245.526" y="140.657" space="preserve" transform="scale(1.03 .971)" style="line-height:36.86055541%"><tspan id="tspan1793" x="245.526" y="140.657"><tspan id="tspan1791" x="245.526" y="140.657">50 °C</tspan></tspan></text><text id="text1801" x="141.957" y="74.867" space="preserve" transform="scale(1.03 .971)" style="line-height:36.86055541%"><tspan id="tspan1799" x="141.957" y="74.867"><tspan id="tspan1797" x="141.957" y="74.867">D = 1000</tspan></tspan></text><text id="text1807" x="141.927" y="89.459" space="preserve" transform="scale(1.03 .971)" style="line-height:36.86055541%"><tspan id="tspan1805" x="141.927" y="89.459"><tspan id="tspan1803" x="141.927" y="89.459">H = 3000</tspan></tspan></text><text id="text1813" x="142.685" y="104.072" space="preserve" transform="scale(1.03 .971)" style="line-height:36.86055541%"><tspan id="tspan1811" x="142.685" y="104.072"><tspan id="tspan1809" x="142.685" y="104.072">V = 2,4 m3</tspan></tspan></text><text id="text1819" x="141.64" y="122.307" space="preserve" transform="scale(1.03 .971)" style="line-height:36.86055541%"><tspan id="tspan1817" x="141.64" y="122.307"><tspan id="tspan1815" x="141.64" y="122.307">10 bar</tspan></tspan></text><text id="text1825" x="142.314" y="140.554" space="preserve" transform="scale(1.03 .971)" style="line-height:36.86055541%"><tspan id="tspan1823" x="142.314" y="140.554"><tspan id="tspan1821" x="142.314" y="140.554">50 °C</tspan></tspan></text><text id="text1831" x="32.401" y="74.849" space="preserve" transform="scale(1.03 .971)" style="line-height:36.86055541%"><tspan id="tspan1829" x="32.401" y="74.849"><tspan id="tspan1827" x="32.401" y="74.849">Technische Daten</tspan></tspan></text><text id="text1837" x="32.434" y="122.442" space="preserve" transform="scale(1.03 .971)" style="line-height:36.86055541%"><tspan id="tspan1835" x="32.434" y="122.442"><tspan id="tspan1833" x="32.434" y="122.442">Zulässiger Überdruck</tspan></tspan></text><text id="text1843" x="32.727" y="140.579" space="preserve" transform="scale(1.03 .971)" style="line-height:36.86055541%"><tspan id="tspan1841" x="32.727" y="140.579"><tspan id="tspan1839" x="32.727" y="140.579">Zulässige Temperatur</tspan></tspan></text></g></g><g id="g1855" fill="none" stroke="#000"><rect id="rect1849" width="327.8" height="116.9" x="26.52" y="26.52" stroke-linejoin="round" stroke-width="1.24"/><path id="path1851" stroke-linecap="round" stroke-width=".638" d="m204.2 417-113.4 0.1443"/><path id="path1853" stroke-linecap="round" stroke-width=".638" d="m243.4 347.8-39.22 69.29"/></g></svg>