<svg xmlns="http://www.w3.org/2000/svg" xmlns:xlink="http://www.w3.org/1999/xlink" width="297mm" height="210mm" version="1.0"><metadata/><link id="dark-mode" rel="stylesheet" type="text/css"/><style id="dark-mode-custom-style" type="text/css"/><use width="1488.189" height="1052.362" transform="translate(290.6 8.506)" xlink:href="#ButterflyValve"/><use width="1488.189" height="1052.362" transform="translate(317.6 8.108)" xlink:href="#gButterflyValve"/><g fill="none" stroke="#000"><g><g><path stroke-width="1.24" d="m490.7 593.5h5.283"/><path stroke-width="1.24" d="m558.3 593.4 155.7 0.08229"/><path stroke-width="1.24" d="m419.8 593.5h93.01"/></g><g stroke-linejoin="round" stroke-width="1.24"><path d="m345.2 637.8 8.858 17.72h-17.72l8.858-17.72-8.858-17.72h17.72l-8.858 17.72z"/><path d="m345.1 628.9c4.895-0.00216 8.864 3.965 8.864 8.86 0 4.895-3.969 8.863-8.864 8.86-4.895 0.00216-8.864-3.965-8.864-8.86s3.969-8.863 8.864-8.86z"/><rect width="35.43" height="17.72" x="380.7" y="584.7"/></g></g><path stroke-linecap="round" stroke-width="1.24" d="m380.7 584.7 35.43 17.72"/></g><g stroke="#000" stroke-linejoin="round"><path fill-rule="evenodd" stroke-width=".886" d="m403.1 593.5c0.00113 2.565-2.078 4.644-4.642 4.644s-4.643-2.08-4.642-4.644c-0.00113-2.565 2.078-4.644 4.642-4.644s4.643 2.08 4.642 4.644z"/><path fill="none" stroke-linecap="round" stroke-width="1.24" d="m619.9 469.5 8.858 17.72h-17.72l8.858-17.72-17.72 8.858v-17.72l17.72 8.858z"/><path fill="none" stroke-linecap="round" stroke-width="1.24" d="m620 434.1 8.838 2.946-17.68 5.892 17.68 5.892-17.68 5.892 8.838 2.946v11.78"/><path fill-rule="evenodd" stroke-width=".819" d="m615.3 469.5c-0.00113 2.565 2.078 4.644 4.642 4.644s4.643-2.08 4.642-4.644c0.00113-2.565-2.078-4.644-4.642-4.644s-4.643 2.08-4.642 4.644z"/></g><path fill="none" stroke="#000" stroke-linecap="round" stroke-width="3.543" d="m608.1 461.8v15.49"/><path id="p_ArrowInOut" fill="none" stroke="#000" stroke-linecap="round" stroke-linejoin="round" stroke-width="1.24" d="m841.6 584.7h17.72v-8.858l17.72 17.72-17.72 17.72v-8.858h-17.72v-17.72z"/><path id="p_Reducer" fill="none" stroke="#000" stroke-linecap="round" stroke-linejoin="round" stroke-width="1.24" d="m442.8 584.8 35.43 8.858-35.43 8.858v-17.72z"/><path id="p_Vessel" fill="none" stroke="#000" stroke-linecap="round" stroke-linejoin="round" stroke-width="1.24" d="m274.6 540.6v-226.6s35.36-17.68 70.72-17.68c35.36 0 70.72 17.68 70.72 17.68v226.6s-35.36 17.68-70.72 17.68c-35.36 0-70.72-17.68-70.72-17.68z"/><g fill="none" stroke="#000" stroke-width="1.24"><path stroke-linejoin="round" d="m549 593.5c0 14.67-11.89 26.56-26.56 26.56-14.67 0-26.56-11.89-26.56-26.56s11.89-26.56 26.56-26.56c14.67 0 26.56 11.89 26.56 26.56z"/><path stroke-linejoin="bevel" d="m522.5 567 26.57 26.57-26.57 26.57"/><path d="m495.9 593.5h53.15"/></g><use width="1488.189" height="1052.362" transform="translate(-655.6 -248)" xlink:href="#p_ArrowInOut"/><g fill="none"><g stroke="#000"><path stroke-width="1.24" d="m345.1 570.4 0.04598 49.22"/><path stroke-width="1.24" d="m261.9 345.4h-40.29"/><path id="p_OutletAtmosphere" stroke-linecap="round" stroke-linejoin="round" stroke-width="1.24" d="m292 269.3 17.72-17.72 17.72 17.72m-17.72 0v17.72"/></g><use width="1488.189" height="1052.362" transform="matrix(-1 0 0 1 1045 -.02476)" xlink:href="#p_Reducer"/><g stroke="#000"><path stroke-linejoin="round" stroke-width="1.24" d="m540.7 531.9c0 9.866-7.99 17.86-17.85 17.86s-17.85-7.998-17.85-17.86 7.99-17.86 17.85-17.86 17.85 7.998 17.85 17.86z"/><path stroke-linecap="round" stroke-linejoin="round" stroke-width="1.24" d="m516.5 540.7v-17.48l6.315 8.74 6.315-8.74v17.48"/><g><path stroke-width=".638" d="m522.5 549.6v17.47"/><path id="p_Flange" stroke-linecap="round" stroke-width="1.772" d="m419.4 584.7v17.72"/><path stroke-linecap="round" stroke-width="1.772" d="m377.6 584.7v17.72"/></g><rect width="35.43" height="17.72" x="717.5" y="584.8" stroke-linejoin="round" stroke-width="1.24"/><path stroke-linecap="round" stroke-width="1.24" d="m717.5 584.8 35.43 17.72"/></g></g><g stroke="#000"><path fill-rule="evenodd" stroke-linejoin="round" stroke-width=".592" d="m722.1 584.8c0.0011 2.565-2.078 4.644-4.642 4.644-2.565 0-4.643-2.08-4.642-4.644-0.0011-2.565 2.078-4.644 4.642-4.644 2.565 0 4.643 2.08 4.642 4.644z"/><rect width="35.43" height="17.72" x="779.5" y="584.8" fill="none" stroke-linejoin="round" stroke-width="1.24"/><path fill="none" stroke-linecap="round" stroke-width="1.24" d="m779.5 584.8 35.43 17.72"/><path fill-rule="evenodd" stroke-linejoin="round" stroke-width=".886" d="m801.8 593.6c0.0011 2.565-2.078 4.644-4.642 4.644-2.565 0-4.643-2.08-4.642-4.644-0.0011-2.565 2.078-4.644 4.642-4.644 2.565 0 4.643 2.08 4.642 4.644z"/></g><g fill="none" stroke="#000"><g><g stroke-linecap="round" stroke-width="1.772"><path d="m817.8 584.8v17.72"/><path d="m776.4 584.8v17.72"/><path d="m755.8 584.8v17.72"/><path d="m714.7 584.8v17.72"/><path d="m557.9 584.4v17.72"/><path d="m554.5 584.4v17.72"/><path d="m490.5 584.7v17.72"/><path d="m487.1 584.7v17.72"/><path d="m265.7 336.9v17.72"/><path d="m262.3 336.9v17.72"/><path d="m336.4 567h17.72"/><path d="m336.4 570.4h17.72"/><path d="m380.8 290.2h17.72"/><path d="m380.8 293.6h17.72"/><path d="m301.2 287.5h17.72"/><path d="m301.2 290.9h17.72"/><path d="m428.6 331.8v17.72"/><path d="m425.2 331.8v17.72"/><path d="m336.3 659.1h17.72"/></g><g><g stroke-width="1.24"><path d="m416.2 506.9h8.956"/><path d="m416 489.2h9.115"/><path d="m274.5 345.4h-8.498"/><path d="m424.8 340.5h-8.498"/></g><path stroke-width="1.24" d="m309.7 301.2v-10.02"/><path stroke-width="1.24" d="m389.7 303.3v-8.867"/><path stroke-width="1.24" d="m673 478.3c17.72 1e-5 30.18 1e-5 53.15 0 14.17 0 26.57 12.4 26.57 26.57s-12.4 26.57-26.57 26.57h-53.15c-14.17 0-26.57-12.4-26.57-26.57s12.4-26.57 26.57-26.57z"/><path stroke-width=".638" d="m699.6 531.2v61.87"/><path stroke-width="1.24" d="m363.2 194.9c17.72 1e-5 30.18 1e-5 53.15 0 14.17 0 26.57 12.4 26.57 26.57s-12.4 26.57-26.57 26.57h-53.15c-14.17 0-26.57-12.4-26.57-26.57s12.4-26.57 26.57-26.57z"/><path stroke-width=".638" d="m389.8 248v41.37"/></g></g><path stroke-dasharray="5.102 2.551" stroke-linecap="round" stroke-width=".638" d="m522.5 345.5v161.6"/><path stroke-dasharray="5.102 2.551" stroke-linecap="round" stroke-width=".638" d="m522.5 194.8-59.93 0.07623"/><g><path stroke-width="1.24" d="m619.9 487.7v104.9"/><g stroke-linecap="round"><path stroke-width="1.24" d="m428.6 340.2 129.2-0.06116"/><path stroke-width="1.24" d="m558.1 469.5h43.89"/><path stroke-width="1.24" d="m557.9 340.2v129.4"/></g></g><path stroke-dasharray="5.102 2.551" stroke-linecap="round" stroke-width=".638" d="m522.5 194.9v140.5"/><g><g><path stroke-width="1.24" d="m345.2 558.1v8.84"/><path stroke-width="1.24" d="m345 593.5 32.08-0.03193"/><path stroke-width="1.24" d="m549.1 593.5h5.283"/><path stroke-width="1.24" d="m756.4 593.5h19.15"/><path stroke-width="1.24" d="m817.9 593.5 23.02-0.05806"/></g><g stroke-linecap="round"><path stroke-width="1.772" d="m424.9 485.8v24.16"/><path stroke-width="1.772" d="m428.4 485.8v24.16"/><path stroke-width="1.772" d="m265.5 514.2v17.72"/><path stroke-width="1.772" d="m262.1 514.2v17.72"/></g><g><path stroke-width="1.24" d="m274.4 522.7h-8.498"/><path stroke-width="1.24" d="m150.3 496.1c17.72 1e-5 30.18 1e-5 53.15 0 14.17 0 26.57 12.4 26.57 26.57s-12.4 26.57-26.57 26.57h-53.15c-14.17 0-26.57-12.4-26.57-26.57s12.4-26.57 26.57-26.57z"/><path stroke-width="1.24" d="m261.9 522.6h-137.6"/></g><path stroke-linecap="round" stroke-linejoin="round" stroke-width="1.24" d="m26.55 318.9h150.7v53.15h-150.7v-53.15"/><path stroke-linejoin="round" stroke-width="1.24" d="m26.05 345.4h151.2"/><path stroke-width="1.24" d="m185.9 345.4h-8.96"/><path stroke-linecap="round" stroke-linejoin="round" stroke-width="1.24" d="m885.8 567 150.6-0.05814v53.15l-150.6 0.05813v-53.15"/><path stroke-linejoin="round" stroke-width="1.24" d="m886.3 593.5h149.5"/><path stroke-width="1.24" d="m886.1 593.5h-8.923"/></g></g><path fill-rule="evenodd" stroke="#000" stroke-linecap="round" stroke-linejoin="round" stroke-width="1.24" d="m526.3 505.5-3.815 7.631-3.815-7.631h7.631z"/><g font-family="Arial" text-anchor="middle"><text x="96.674" y="347.365" font-size="18" space="preserve" text-align="center" transform="scale(1.03 .971)" style="line-height:36.86055541%"><tspan x="96.674" y="347.365"><tspan x="96.674" y="347.365">Lösung</tspan></tspan></text><text x="171.937" y="558.141" font-size="18" space="preserve" text-align="center" transform="scale(1.03 .971)" style="line-height:36.86055541%"><tspan x="171.937" y="558.141"><tspan x="171.937" y="558.141">0012</tspan></tspan></text><text x="172.725" y="531.103" font-size="18" space="preserve" text-align="center" transform="scale(1.03 .971)" style="line-height:36.86055541%"><tspan x="172.725" y="531.103"><tspan x="172.725" y="531.103">L</tspan></tspan></text><text x="231.596" y="560.806" font-size="12.32" space="preserve" text-align="center" transform="scale(1.03 .971)" style="line-height:36.86055541%"><tspan x="231.596" y="560.806"><tspan x="231.596" y="560.806">AL</tspan></tspan></text><text x="142.448" y="421.481" font-size="18" space="preserve" text-align="center" transform="scale(1.03 .971)" style="line-height:36.86055541%"><tspan x="142.448" y="421.481"><tspan x="142.448" y="421.481">01-100-PE-N</tspan></tspan></text><text x="98.115" y="373.502" font-size="18" space="preserve" text-align="center" transform="scale(1.03 .971)" style="line-height:36.86055541%"><tspan x="98.115" y="373.502"><tspan x="98.115" y="373.502">von Hauptanlage</tspan></tspan></text><text x="300.199" y="332.131" font-size="18" space="preserve" text-align="center" transform="scale(1.03 .971)" style="line-height:36.86055541%"><tspan x="300.199" y="332.131"><tspan x="300.199" y="332.131">N4</tspan></tspan></text><text x="284.093" y="361.241" font-size="18" space="preserve" text-align="center" transform="scale(1.03 .971)" style="line-height:36.86055541%"><tspan x="284.093" y="361.241"><tspan x="284.093" y="361.241">N1</tspan></tspan></text><text x="372.051" y="332.131" font-size="18" space="preserve" text-align="center" transform="scale(1.03 .971)" style="line-height:36.86055541%"><tspan x="372.051" y="332.131"><tspan x="372.051" y="332.131">N5</tspan></tspan></text><text x="385.073" y="357.024" font-size="18" space="preserve" text-align="center" transform="scale(1.03 .971)" style="line-height:36.86055541%"><tspan x="385.073" y="357.024"><tspan x="385.073" y="357.024">N2</tspan></tspan></text><g font-size="18"><text x="336.966" y="434.862" space="preserve" text-align="center" transform="scale(1.03 .971)" style="line-height:36.86055541%"><tspan x="336.966" y="434.862"><tspan x="336.966" y="434.862">B001</tspan></tspan></text><text x="281.32" y="544.718" space="preserve" text-align="center" transform="scale(1.03 .971)" style="line-height:36.86055541%"><tspan x="281.32" y="544.718"><tspan x="281.32" y="544.718">N6</tspan></tspan></text><text x="335.685" y="565.659" space="preserve" text-align="center" transform="scale(1.03 .971)" style="line-height:36.86055541%"><tspan x="335.685" y="565.659"><tspan x="335.685" y="565.659">N3</tspan></tspan></text><text x="386.681" y="518.656" space="preserve" text-align="center" transform="scale(1.03 .971)" style="line-height:36.86055541%"><tspan x="386.681" y="518.656"><tspan x="386.681" y="518.656">M1</tspan></tspan></text></g><text x="446.468" y="592.808" font-size="18" space="preserve" text-align="center" transform="scale(1.03 .971)" style="line-height:36.86055541%"><tspan x="446.468" y="592.808"><tspan x="446.468" y="592.808">100/50</tspan></tspan></text><text x="510.991" y="665.794" font-size="18" space="preserve" text-align="center" transform="scale(1.03 .971)" style="line-height:36.86055541%"><tspan x="510.991" y="665.794"><tspan x="510.991" y="665.794">P001</tspan></tspan></text><text x="567.746" y="592.808" font-size="18" space="preserve" text-align="center" transform="scale(1.03 .971)" style="line-height:36.86055541%"><tspan x="567.746" y="592.808"><tspan x="567.746" y="592.808">100/50</tspan></tspan></text><text x="581.302" y="419.715" font-size="18" space="preserve" text-align="center" transform="scale(1.03 .971)" style="line-height:36.86055541%"><tspan x="581.302" y="419.715"><tspan x="581.302" y="419.715">PA=</tspan></tspan></text><text x="597.272" y="437.742" font-size="18" space="preserve" text-align="center" transform="scale(1.03 .971)" style="line-height:36.86055541%"><tspan x="597.272" y="437.742"><tspan x="597.272" y="437.742">6 BARÜ</tspan></tspan></text><text x="678.401" y="539.864" font-size="18" space="preserve" text-align="center" transform="scale(1.03 .971)" style="line-height:36.86055541%"><tspan x="678.401" y="539.864"><tspan x="678.401" y="539.864">0013</tspan></tspan></text><text x="677.879" y="512.826" font-size="18" space="preserve" text-align="center" transform="scale(1.03 .971)" style="line-height:36.86055541%"><tspan x="677.879" y="512.826"><tspan x="677.879" y="512.826">PI</tspan></tspan></text><text x="639.914" y="643.53" font-size="18" space="preserve" text-align="center" transform="scale(1.03 .971)" style="line-height:36.86055541%"><tspan x="639.914" y="643.53"><tspan x="639.914" y="643.53">02-100-PE-N</tspan></tspan></text><text x="934.701" y="602.585" font-size="18" space="preserve" text-align="center" transform="scale(1.03 .971)" style="line-height:36.86055541%"><tspan x="934.701" y="602.585"><tspan x="934.701" y="602.585">Lösung</tspan></tspan></text><text x="933.008" y="629.944" font-size="18" space="preserve" text-align="center" transform="scale(1.03 .971)" style="line-height:36.86055541%"><tspan x="933.008" y="629.944"><tspan x="933.008" y="629.944">zu Verbraucher</tspan></tspan></text><text x="378.57" y="220.928" font-size="18" space="preserve" text-align="center" transform="scale(1.03 .971)" style="line-height:36.86055541%"><tspan x="378.57" y="220.928"><tspan x="378.57" y="220.928">L</tspan></tspan></text><text x="378.063" y="247.965" font-size="18" space="preserve" text-align="center" transform="scale(1.03 .971)" style="line-height:36.86055541%"><tspan x="378.063" y="247.965"><tspan x="378.063" y="247.965">0011</tspan></tspan></text><text x="439.833" y="205.003" font-size="12.32" space="preserve" text-align="center" transform="scale(1.03 .971)" style="line-height:36.86055541%"><tspan x="439.833" y="205.003"><tspan x="439.833" y="205.003">SH</tspan></tspan></text></g><g fill="none" stroke="#000" stroke-width="1.24"><path d="m141.7 26.52 3e-5 116.9"/><path d="m354.3 126h-327.8"/><path d="m354.3 108.2h-327.1"/><path d="m353.7 62.18h-327.1"/><path d="m354.9 44.47h-327.8"/><path d="m248 26.66v117"/></g><g font-family="Arial"><text x="31.902" y="56.602" font-size="10" space="preserve" transform="scale(1.03 .971)" style="line-height:36.86055541%"><tspan x="31.902" y="56.602"><tspan x="31.902" y="56.602">Benennung</tspan></tspan></text><text x="189.657" y="42.836" font-size="18" space="preserve" text-align="center" text-anchor="middle" transform="scale(1.03 .971)" style="line-height:36.86055541%"><tspan x="189.657" y="42.836"><tspan x="189.657" y="42.836">B001</tspan></tspan></text><text x="294.521" y="43.018" font-size="18" space="preserve" text-align="center" text-anchor="middle" transform="scale(1.03 .971)" style="line-height:36.86055541%"><tspan x="294.521" y="43.018"><tspan x="294.521" y="43.018">P001</tspan></tspan></text><g font-size="10"><text x="141.957" y="56.724" space="preserve" transform="scale(1.03 .971)" style="line-height:36.86055541%"><tspan x="141.957" y="56.724"><tspan x="141.957" y="56.724">Pufferbehälter</tspan></tspan></text><text x="245.18" y="56.602" space="preserve" transform="scale(1.03 .971)" style="line-height:36.86055541%"><tspan x="245.18" y="56.602"><tspan x="245.18" y="56.602">Nachspeisepumpe</tspan></tspan></text><text x="245.512" y="74.797" space="preserve" transform="scale(1.03 .971)" style="line-height:36.86055541%"><tspan x="245.512" y="74.797"><tspan x="245.512" y="74.797">Q = 5 m3/h</tspan></tspan></text><text x="245.599" y="89.475" space="preserve" transform="scale(1.03 .971)" style="line-height:36.86055541%"><tspan x="245.599" y="89.475"><tspan x="245.599" y="89.475">dp = 2,5 bar</tspan></tspan></text><text x="244.958" y="122.307" space="preserve" transform="scale(1.03 .971)" style="line-height:36.86055541%"><tspan x="244.958" y="122.307"><tspan x="244.958" y="122.307">10 bar</tspan></tspan></text><text x="245.526" y="140.657" space="preserve" transform="scale(1.03 .971)" style="line-height:36.86055541%"><tspan x="245.526" y="140.657"><tspan x="245.526" y="140.657">50 °C</tspan></tspan></text><text x="141.957" y="74.867" space="preserve" transform="scale(1.03 .971)" style="line-height:36.86055541%"><tspan x="141.957" y="74.867"><tspan x="141.957" y="74.867">D = 1000</tspan></tspan></text><text x="141.927" y="89.459" space="preserve" transform="scale(1.03 .971)" style="line-height:36.86055541%"><tspan x="141.927" y="89.459"><tspan x="141.927" y="89.459">H = 3000</tspan></tspan></text><text x="142.685" y="104.072" space="preserve" transform="scale(1.03 .971)" style="line-height:36.86055541%"><tspan x="142.685" y="104.072"><tspan x="142.685" y="104.072">V = 2,4 m3</tspan></tspan></text><text x="141.64" y="122.307" space="preserve" transform="scale(1.03 .971)" style="line-height:36.86055541%"><tspan x="141.64" y="122.307"><tspan x="141.64" y="122.307">10 bar</tspan></tspan></text><text x="142.314" y="140.554" space="preserve" transform="scale(1.03 .971)" style="line-height:36.86055541%"><tspan x="142.314" y="140.554"><tspan x="142.314" y="140.554">50 °C</tspan></tspan></text><text x="32.401" y="74.849" space="preserve" transform="scale(1.03 .971)" style="line-height:36.86055541%"><tspan x="32.401" y="74.849"><tspan x="32.401" y="74.849">Technische Daten</tspan></tspan></text><text x="32.434" y="122.442" space="preserve" transform="scale(1.03 .971)" style="line-height:36.86055541%"><tspan x="32.434" y="122.442"><tspan x="32.434" y="122.442">Zulässiger Überdruck</tspan></tspan></text><text x="32.727" y="140.579" space="preserve" transform="scale(1.03 .971)" style="line-height:36.86055541%"><tspan x="32.727" y="140.579"><tspan x="32.727" y="140.579">Zulässige Temperatur</tspan></tspan></text></g></g><g fill="none" stroke="#000"><rect width="327.8" height="116.9" x="26.52" y="26.52" stroke-linejoin="round" stroke-width="1.24"/><path stroke-linecap="round" stroke-width=".638" d="m204.2 417-113.4 0.1443"/><path stroke-linecap="round" stroke-width=".638" d="m243.4 347.8-39.22 69.29"/></g></svg>
