<svg xmlns="http://www.w3.org/2000/svg" xmlns:svg="http://www.w3.org/2000/svg" xmlns:xlink="http://www.w3.org/1999/xlink" id="svg1326" width="297mm" height="210mm" version="1.0"><metadata id="metadata1332"/><link id="dark-mode" rel="stylesheet" type="text/css"/><style id="dark-mode-custom-style" type="text/css"/><use id="use816" width="1488.189" height="1052.362" transform="translate(290.6 8.506)" xlink:href="#ButterflyValve"/><use id="use818" width="1488.189" height="1052.362" transform="translate(317.6 8.108)" xlink:href="#gButterflyValve"/><path id="path820" fill="none" stroke="#000" stroke-width="1.24" d="m 490.7,593.5 h 5.283"/><path id="path822" fill="none" stroke="#000" stroke-width="1.24" d="M 558.3,593.4 714,593.4823"/><path id="path824" fill="none" stroke="#000" stroke-width="1.24" d="m 419.8,593.5 h 93.01"/><path id="path826" fill="none" stroke="#000" stroke-linejoin="round" stroke-width="1.24" d="m 345.2,637.8 8.858,17.72 h -17.72 l 8.858,-17.72 -8.858,-17.72 h 17.72 z"/><path id="path828" fill="none" stroke="#000" stroke-linejoin="round" stroke-width="1.24" d="m 345.1,628.9 c 4.895,-0.002 8.864,3.965 8.864,8.86 0,4.895 -3.969,8.863 -8.864,8.86 -4.895,0.002 -8.864,-3.965 -8.864,-8.86 0,-4.895 3.969,-8.863 8.864,-8.86 z"/><rect id="SHMI_DO8_D" width="35.43" height="17.72" x="380.7" y="584.7" fill="none" stroke="#000" stroke-linejoin="round" stroke-width="1.24"/><path id="path834" fill="none" stroke="#000" stroke-linecap="round" stroke-width="1.24" d="m 380.7,584.7 35.43,17.72"/><path id="path838" fill-rule="evenodd" stroke="#000" stroke-linejoin="round" stroke-width=".886" d="m 403.1,593.5 c 10e-4,2.565 -2.078,4.644 -4.642,4.644 -2.564,0 -4.643,-2.08 -4.642,-4.644 -10e-4,-2.565 2.078,-4.644 4.642,-4.644 2.564,0 4.643,2.08 4.642,4.644 z"/><path id="path840" fill="none" stroke="#000" stroke-linecap="round" stroke-linejoin="round" stroke-width="1.24" d="m 619.9,469.5 8.858,17.72 h -17.72 l 8.858,-17.72 -17.72,8.858 v -17.72 l 17.72,8.858 z"/><path id="path842" fill="none" stroke="#000" stroke-linecap="round" stroke-linejoin="round" stroke-width="1.24" d="m 620,434.1 8.838,2.946 -17.68,5.892 17.68,5.892 -17.68,5.892 8.838,2.946 v 11.78"/><path id="path844" fill-rule="evenodd" stroke="#000" stroke-linejoin="round" stroke-width=".819" d="m 615.3,469.5 c -10e-4,2.565 2.078,4.644 4.642,4.644 2.564,0 4.643,-2.08 4.642,-4.644 0.001,-2.565 -2.078,-4.644 -4.642,-4.644 -2.564,0 -4.643,2.08 -4.642,4.644 z"/><path id="path848" fill="none" stroke="#000" stroke-linecap="round" stroke-width="3.543" d="m608.1 461.8v15.49"/><path id="p_ArrowInOut" fill="none" stroke="#000" stroke-linecap="round" stroke-linejoin="round" stroke-width="1.24" d="m841.6 584.7h17.72v-8.858l17.72 17.72-17.72 17.72v-8.858h-17.72v-17.72z"/><path id="p_Reducer" fill="none" stroke="#000" stroke-linecap="round" stroke-linejoin="round" stroke-width="1.24" d="m442.8 584.8 35.43 8.858-35.43 8.858v-17.72z"/><path id="SHMI_AI1_L" fill="url(#linearGradient2480)" stroke="#000" stroke-linecap="round" stroke-linejoin="round" stroke-width="1.24" d="m274.6 540.6v-226.6s35.36-17.68 70.72-17.68 70.72 17.68 70.72 17.68v226.6s-35.36 17.68-70.72 17.68-70.72-17.68-70.72-17.68z"><title id="title852" fill="url(#linearGradient2480)">SHMI_Vessel_!</title></path><path id="path855" fill="none" stroke="#000" stroke-linejoin="round" stroke-width="1.24" d="m 549,593.5 c 0,14.67 -11.89,26.56 -26.56,26.56 -14.67,0 -26.56,-11.89 -26.56,-26.56 0,-14.67 11.89,-26.56 26.56,-26.56 14.67,0 26.56,11.89 26.56,26.56 z"/><path id="path857" fill="none" stroke="#000" stroke-linejoin="bevel" stroke-width="1.24" d="m 522.5,567 26.57,26.57 -26.57,26.57"/><path id="path859" fill="none" stroke="#000" stroke-width="1.24" d="m 495.9,593.5 h 53.15"/><use id="use863" width="1488.189" height="1052.362" transform="translate(-655.6 -248)" xlink:href="#p_ArrowInOut"/><path id="path865" fill="none" stroke="#000" stroke-width="1.24" d="m 345.1,570.4 0.046,49.22"/><path id="path867" fill="none" stroke="#000" stroke-width="1.24" d="M 261.9,345.4 H 221.61"/><path id="p_OutletAtmosphere" fill="none" stroke="#000" stroke-linecap="round" stroke-linejoin="round" stroke-width="1.24" d="m 292,269.3 17.72,-17.72 17.72,17.72 m -17.72,0 v 17.72"/><use id="use872" width="1488.189" height="1052.362" x="0" y="0" fill="none" transform="matrix(-1,0,0,1,1045,-0.02476)" xlink:href="#p_Reducer"/><path id="SHMI_DO1_D" fill="none" stroke="#000" stroke-linejoin="round" stroke-width="1.24" d="m 540.7,531.9 c 0,9.866 -7.99,17.86 -17.85,17.86 -9.86,0 -17.85,-7.998 -17.85,-17.86 0,-9.862 7.99,-17.86 17.85,-17.86 9.86,0 17.85,7.998 17.85,17.86 z"><title id="title874">SHMI_Motor_01</title></path><path id="path877" fill="none" stroke="#000" stroke-linecap="round" stroke-linejoin="round" stroke-width="1.24" d="m 516.5,540.7 v -17.48 l 6.315,8.74 6.315,-8.74 v 17.48"/><path id="path879" fill="none" stroke="#000" stroke-width=".638" d="m 522.5,549.6 v 17.47"/><path id="p_Flange" fill="none" stroke="#000" stroke-linecap="round" stroke-width="1.772" d="m 419.4,584.7 v 17.72"/><path id="path882" fill="none" stroke="#000" stroke-linecap="round" stroke-width="1.772" d="m 377.6,584.7 v 17.72"/><rect id="rect884" width="35.43" height="17.72" x="717.5" y="584.8" fill="none" stroke="#000" stroke-linejoin="round" stroke-width="1.24"/><path id="path886" fill="none" stroke="#000" stroke-linecap="round" stroke-width="1.24" d="m 717.5,584.8 35.43,17.72"/><path id="path892" fill-rule="evenodd" stroke="#000" stroke-linejoin="round" stroke-width=".592" d="m 722.1,584.8 c 10e-4,2.565 -2.078,4.644 -4.642,4.644 -2.565,0 -4.643,-2.08 -4.642,-4.644 -10e-4,-2.565 2.078,-4.644 4.642,-4.644 2.565,0 4.643,2.08 4.642,4.644 z"/><rect id="SHMI_DO2_D" width="35.43" height="17.72" x="779.5" y="584.8" fill="none" stroke="#000" stroke-dasharray="none" stroke-linejoin="round" stroke-miterlimit="4" stroke-width="1.24"/><path id="path896" fill="none" stroke="#000" stroke-linecap="round" stroke-width="1.24" d="m 779.5,584.8 35.43,17.72"/><path id="path898" fill-rule="evenodd" stroke="#000" stroke-linejoin="round" stroke-width=".886" d="m 801.8,593.6 c 0.001,2.565 -2.078,4.644 -4.642,4.644 -2.565,0 -4.643,-2.08 -4.642,-4.644 -10e-4,-2.565 2.078,-4.644 4.642,-4.644 2.565,0 4.643,2.08 4.642,4.644 z"/><g id="g938" fill="none" stroke="#000" stroke-linecap="round" stroke-width="1.772"><path id="path900" d="m 817.8,584.8 v 17.72"/><path id="path902" d="m 776.4,584.8 v 17.72"/><path id="path904" d="m 755.8,584.8 v 17.72"/><path id="path906" d="m 714.7,584.8 v 17.72"/><path id="path908" d="m 557.9,584.4 v 17.72"/><path id="path910" d="m 554.5,584.4 v 17.72"/><path id="path912" d="m 490.5,584.7 v 17.72"/><path id="path914" d="m 487.1,584.7 v 17.72"/><path id="path916" d="m 265.7,336.9 v 17.72"/><path id="path918" d="m 262.3,336.9 v 17.72"/><path id="path920" d="m 336.4,567 h 17.72"/><path id="path922" d="m 336.4,570.4 h 17.72"/><path id="path924" d="m 380.8,290.2 h 17.72"/><path id="path926" d="m 380.8,293.6 h 17.72"/><path id="path928" d="m 301.2,287.5 h 17.72"/><path id="path930" d="m 301.2,290.9 h 17.72"/><path id="path932" d="m 428.6,331.8 v 17.72"/><path id="path934" d="m 425.2,331.8 v 17.72"/><path id="path936" d="m 336.3,659.1 h 17.72"/></g><g id="g954" fill="none" stroke="#000" stroke-width="1.24"><path id="path940" d="m 416.2,506.9 h 8.956"/><path id="path942" d="m 416,489.2 h 9.115"/><path id="path944" d="m 274.5,345.4 h -8.498"/><path id="path946" d="m 424.8,340.5 h -8.498"/><path id="path948" d="M 309.7,301.2 V 291.18"/><path id="path950" d="m 389.7,303.3 v -8.867"/><path id="path952" d="m 673,478.3 c 17.72,10e-6 30.18,10e-6 53.15,0 14.17,0 26.57,12.4 26.57,26.57 0,14.17 -12.4,26.57 -26.57,26.57 H 673 c -14.17,0 -26.57,-12.4 -26.57,-26.57 0,-14.17 12.4,-26.57 26.57,-26.57 z"/></g><path id="path956" fill="none" stroke="#000" stroke-width=".638" d="m 699.6,531.2 v 61.87"/><path id="SHMI_DI1_D" fill="none" stroke="#000" stroke-width="1.24" d="m 363.2,194.9 c 17.72,1e-5 30.18,1e-5 53.15,0 14.17,0 26.57,12.4 26.57,26.57 0,14.17 -12.4,26.57 -26.57,26.57 H 363.2 c -14.17,0 -26.57,-12.4 -26.57,-26.57 0,-14.17 12.4,-26.57 26.57,-26.57 z"/><path id="path960" fill="none" stroke="#000" stroke-width=".638" d="m 389.8,248 v 41.37"/><path id="path962" fill="none" stroke="#000" stroke-dasharray="5.102 2.551" stroke-linecap="round" stroke-width=".638" d="M 522.5,345.5 V 507.1"/><path id="path964" fill="none" stroke="#000" stroke-dasharray="5.102 2.551" stroke-linecap="round" stroke-width=".638" d="m 522.5,194.8 -59.93,0.0762"/><g id="g976" fill="none" stroke="#000" stroke-width="1.24"><path id="path966" d="M 619.9,487.7 V 592.6"/><g id="g974" stroke-linecap="round"><path id="path968" d="m 428.6,340.2 129.2,-0.0612"/><path id="path970" d="m 558.1,469.5 h 43.89"/><path id="path972" d="M 557.9,340.2 V 469.6"/></g></g><path id="path978" fill="none" stroke="#000" stroke-dasharray="5.102 2.551" stroke-linecap="round" stroke-width=".638" d="M 522.5,194.9 V 335.4"/><g id="g990" fill="none" stroke="#000" stroke-width="1.24"><path id="path980" d="m 345.2,558.1 v 8.84"/><path id="path982" d="m 345,593.5 32.08,-0.0319"/><path id="path984" d="m 549.1,593.5 h 5.283"/><path id="path986" d="m 756.4,593.5 h 19.15"/><path id="path988" d="m 817.9,593.5 23.02,-0.0581"/></g><g id="g1000" fill="none" stroke="#000" stroke-linecap="round" stroke-width="1.772"><path id="path992" d="m 424.9,485.8 v 24.16"/><path id="path994" d="m 428.4,485.8 v 24.16"/><path id="path996" d="m 265.5,514.2 v 17.72"/><path id="path998" d="m 262.1,514.2 v 17.72"/></g><g id="g1008" fill="none" stroke="#000" stroke-width="1.24"><path id="path1002" d="m 274.4,522.7 h -8.498"/><path id="path1004" d="m 150.3,496.1 c 17.72,10e-6 30.18,10e-6 53.15,0 14.17,0 26.57,12.4 26.57,26.57 0,14.17 -12.4,26.57 -26.57,26.57 H 150.3 c -14.17,0 -26.57,-12.4 -26.57,-26.57 0,-14.17 12.4,-26.57 26.57,-26.57 z"/><path id="path1006" d="M 261.9,522.6 H 124.3"/></g><g id="g1022" fill="none" stroke="#000" stroke-width="1.24"><path id="path1010" stroke-linecap="round" stroke-linejoin="round" d="m 26.55,318.9 h 150.7 v 53.15 H 26.55 V 318.9"/><path id="path1012" stroke-linejoin="round" d="m 26.05,345.4 h 151.2"/><path id="path1014" d="m 185.9,345.4 h -8.96"/><path id="path1016" stroke-linecap="round" stroke-linejoin="round" d="m 885.8,567 150.6,-0.0581 v 53.15 L 885.8,620.15 V 567"/><path id="path1018" stroke-linejoin="round" d="m 886.3,593.5 h 149.5"/><path id="path1020" d="m 886.1,593.5 h -8.923"/></g><path id="path1026" fill-rule="evenodd" stroke="#000" stroke-linecap="round" stroke-linejoin="round" stroke-width="1.24" d="m 526.3,505.5 -3.815,7.631 -3.815,-7.631 h 7.631 z"/><g id="g1048" font-family="Arial" font-size="18" text-anchor="middle"><text style="line-height:36.86055243%;text-align:center" id="text1034" x="96.674" y="347.365" space="preserve" text-align="center" transform="scale(1.03,0.971)"><tspan id="tspan1032" x="96.674" y="347.365"><tspan id="tspan1030" x="96.674" y="347.365">Lösung</tspan></tspan></text><text style="line-height:36.86055243%;text-align:center" id="text1040" x="171.937" y="558.141" space="preserve" text-align="center" transform="scale(1.03,0.971)"><tspan id="tspan1038" x="171.937" y="558.141"><tspan id="tspan1036" x="171.937" y="558.141">0012</tspan></tspan></text><text style="line-height:36.86055243%;text-align:center" id="text1046" x="172.725" y="531.103" space="preserve" text-align="center" transform="scale(1.03,0.971)"><tspan id="tspan1044" x="172.725" y="531.103"><tspan id="tspan1042" x="172.725" y="531.103">L</tspan></tspan></text></g><text id="text1054" x="231.611" y="560.842" stroke-width="1" font-family="Arial" font-size="12.321" space="preserve" text-align="center" text-anchor="middle" transform="scale(1.0299331,0.97093689)" style="line-height:36.86055243%;text-align:center"><tspan id="tspan1052" x="231.611" y="560.842" stroke-width="1"><tspan id="tspan1050" x="231.611" y="560.842" stroke-width="1">AL</tspan></tspan></text><g id="g1188" font-family="Arial" font-size="18" text-anchor="middle"><text style="line-height:36.86055243%;text-align:center" id="text1060" x="142.448" y="421.481" space="preserve" text-align="center" transform="scale(1.03,0.971)"><tspan id="tspan1058" x="142.448" y="421.481"><tspan id="tspan1056" x="142.448" y="421.481">01-100-PE-N</tspan></tspan></text><text style="line-height:36.86055243%;text-align:center" id="text1066" x="98.115" y="373.502" space="preserve" text-align="center" transform="scale(1.03,0.971)"><tspan id="tspan1064" x="98.115" y="373.502"><tspan id="tspan1062" x="98.115" y="373.502">von Hauptanlage</tspan></tspan></text><text style="line-height:36.86055243%;text-align:center" id="text1072" x="300.199" y="332.131" space="preserve" text-align="center" transform="scale(1.03,0.971)"><tspan id="tspan1070" x="300.199" y="332.131"><tspan id="tspan1068" x="300.199" y="332.131">N4</tspan></tspan></text><text style="line-height:36.86055243%;text-align:center" id="text1078" x="284.093" y="361.241" space="preserve" text-align="center" transform="scale(1.03,0.971)"><tspan id="tspan1076" x="284.093" y="361.241"><tspan id="tspan1074" x="284.093" y="361.241">N1</tspan></tspan></text><text style="line-height:36.86055243%;text-align:center" id="text1084" x="372.051" y="332.131" space="preserve" text-align="center" transform="scale(1.03,0.971)"><tspan id="tspan1082" x="372.051" y="332.131"><tspan id="tspan1080" x="372.051" y="332.131">N5</tspan></tspan></text><text style="line-height:36.86055243%;text-align:center" id="text1090" x="385.073" y="357.024" space="preserve" text-align="center" transform="scale(1.03,0.971)"><tspan id="tspan1088" x="385.073" y="357.024"><tspan id="tspan1086" x="385.073" y="357.024">N2</tspan></tspan></text><text style="line-height:36.86055243%;text-align:center" id="text1096" x="336.966" y="434.862" space="preserve" text-align="center" transform="scale(1.03,0.971)"><tspan id="tspan1094" x="336.966" y="434.862"><tspan id="tspan1092" x="336.966" y="434.862">B001</tspan></tspan></text><text style="line-height:36.86055243%;text-align:center" id="text1102" x="281.32" y="544.718" space="preserve" text-align="center" transform="scale(1.03,0.971)"><tspan id="tspan1100" x="281.32" y="544.718"><tspan id="tspan1098" x="281.32" y="544.718">N6</tspan></tspan></text><text style="line-height:36.86055243%;text-align:center" id="text1108" x="335.685" y="565.659" space="preserve" text-align="center" transform="scale(1.03,0.971)"><tspan id="tspan1106" x="335.685" y="565.659"><tspan id="tspan1104" x="335.685" y="565.659">N3</tspan></tspan></text><text style="line-height:36.86055243%;text-align:center" id="text1114" x="386.681" y="518.656" space="preserve" text-align="center" transform="scale(1.03,0.971)"><tspan id="tspan1112" x="386.681" y="518.656"><tspan id="tspan1110" x="386.681" y="518.656">M1</tspan></tspan></text><text style="line-height:36.86055243%;text-align:center" id="text1120" x="446.468" y="592.808" space="preserve" text-align="center" transform="scale(1.03,0.971)"><tspan id="tspan1118" x="446.468" y="592.808"><tspan id="tspan1116" x="446.468" y="592.808">100/50</tspan></tspan></text><text style="line-height:36.86055243%;text-align:center" id="text1126" x="510.991" y="665.794" space="preserve" text-align="center" transform="scale(1.03,0.971)"><tspan id="tspan1124" x="510.991" y="665.794"><tspan id="tspan1122" x="510.991" y="665.794">P001</tspan></tspan></text><text style="line-height:36.86055243%;text-align:center" id="text1132" x="567.746" y="592.808" space="preserve" text-align="center" transform="scale(1.03,0.971)"><tspan id="tspan1130" x="567.746" y="592.808"><tspan id="tspan1128" x="567.746" y="592.808">100/50</tspan></tspan></text><text style="line-height:36.86055243%;text-align:center" id="text1138" x="581.302" y="419.715" space="preserve" text-align="center" transform="scale(1.03,0.971)"><tspan id="tspan1136" x="581.302" y="419.715"><tspan id="tspan1134" x="581.302" y="419.715">PA=</tspan></tspan></text><text style="line-height:36.86055243%;text-align:center" id="text1144" x="597.272" y="437.742" space="preserve" text-align="center" transform="scale(1.03,0.971)"><tspan id="tspan1142" x="597.272" y="437.742"><tspan id="tspan1140" x="597.272" y="437.742">6 BARÜ</tspan></tspan></text><text style="line-height:36.86055243%;text-align:center" id="text1150" x="678.401" y="539.864" space="preserve" text-align="center" transform="scale(1.03,0.971)"><tspan id="tspan1148" x="678.401" y="539.864"><tspan id="tspan1146" x="678.401" y="539.864">0013</tspan></tspan></text><text style="line-height:36.86055243%;text-align:center" id="text1156" x="677.879" y="512.826" space="preserve" text-align="center" transform="scale(1.03,0.971)"><tspan id="tspan1154" x="677.879" y="512.826"><tspan id="tspan1152" x="677.879" y="512.826">PI</tspan></tspan></text><text style="line-height:36.86055243%;text-align:center" id="text1162" x="639.914" y="643.53" space="preserve" text-align="center" transform="scale(1.03,0.971)"><tspan id="tspan1160" x="639.914" y="643.53"><tspan id="tspan1158" x="639.914" y="643.53">02-100-PE-N</tspan></tspan></text><text style="line-height:36.86055243%;text-align:center" id="text1168" x="934.701" y="602.585" space="preserve" text-align="center" transform="scale(1.03,0.971)"><tspan id="tspan1166" x="934.701" y="602.585"><tspan id="tspan1164" x="934.701" y="602.585">Lösung</tspan></tspan></text><text style="line-height:36.86055243%;text-align:center" id="text1174" x="933.008" y="629.944" space="preserve" text-align="center" transform="scale(1.03,0.971)"><tspan id="tspan1172" x="933.008" y="629.944"><tspan id="tspan1170" x="933.008" y="629.944">zu Verbraucher</tspan></tspan></text><text style="line-height:36.86055243%;text-align:center" id="text1180" x="378.57" y="220.928" space="preserve" text-align="center" transform="scale(1.03,0.971)"><tspan id="tspan1178" x="378.57" y="220.928"><tspan id="tspan1176" x="378.57" y="220.928">L</tspan></tspan></text><text style="line-height:36.86055243%;text-align:center" id="text1186" x="378.063" y="247.965" space="preserve" text-align="center" transform="scale(1.03,0.971)"><tspan id="tspan1184" x="378.063" y="247.965"><tspan id="tspan1182" x="378.063" y="247.965">0011</tspan></tspan></text></g><text id="text1194" x="439.862" y="205.016" stroke-width="1" font-family="Arial" font-size="12.321" space="preserve" text-align="center" text-anchor="middle" transform="scale(1.0299331,0.97093689)" style="line-height:36.86055243%;text-align:center"><tspan id="tspan1192" x="439.862" y="205.016" stroke-width="1"><tspan id="tspan1190" x="439.862" y="205.016" stroke-width="1">SH</tspan></tspan></text><path id="path1198" fill="none" stroke="#000" stroke-width="1.24" d="m 141.7,26.52 3e-5,116.9"/><path id="path1200" fill="none" stroke="#000" stroke-width="1.24" d="M 354.3,126 H 26.5"/><path id="path1202" fill="none" stroke="#000" stroke-width="1.24" d="M 354.3,108.2 H 27.2"/><path id="path1204" fill="none" stroke="#000" stroke-width="1.24" d="M 353.7,62.18 H 26.6"/><path id="path1206" fill="none" stroke="#000" stroke-width="1.24" d="M 354.9,44.47 H 27.1"/><path id="path1208" fill="none" stroke="#000" stroke-width="1.24" d="m 248,26.66 v 117"/><text style="line-height:36.86055243%" id="text1216" x="31.904" y="56.606" stroke-width="1" font-family="Arial" font-size="10.001" space="preserve" transform="scale(1.0299331,0.97093689)"><tspan id="tspan1214" x="31.904" y="56.606" stroke-width="1"><tspan id="tspan1212" x="31.904" y="56.606" stroke-width="1">Benennung</tspan></tspan></text><text id="text1222" x="189.669" y="42.839" stroke-width="1" font-family="Arial" font-size="18.001" space="preserve" text-align="center" text-anchor="middle" transform="scale(1.0299331,0.97093689)" style="line-height:36.86055243%;text-align:center"><tspan id="tspan1220" x="189.669" y="42.839" stroke-width="1"><tspan id="tspan1218" x="189.669" y="42.839" stroke-width="1">B001</tspan></tspan></text><text id="text1228" x="294.54" y="43.021" stroke-width="1" font-family="Arial" font-size="18.001" space="preserve" text-align="center" text-anchor="middle" transform="scale(1.0299331,0.97093689)" style="line-height:36.86055243%;text-align:center"><tspan id="tspan1226" x="294.54" y="43.021" stroke-width="1"><tspan id="tspan1224" x="294.54" y="43.021" stroke-width="1">P001</tspan></tspan></text><g id="g1314" font-family="Arial" font-size="10"><text style="line-height:36.86055243%" id="text1234" x="141.957" y="56.724" space="preserve" transform="scale(1.03,0.971)"><tspan id="tspan1232" x="141.957" y="56.724"><tspan id="tspan1230" x="141.957" y="56.724">Pufferbehälter</tspan></tspan></text><text style="line-height:36.86055243%" id="text1240" x="245.18" y="56.602" space="preserve" transform="scale(1.03,0.971)"><tspan id="tspan1238" x="245.18" y="56.602"><tspan id="tspan1236" x="245.18" y="56.602">Nachspeisepumpe</tspan></tspan></text><text style="line-height:36.86055243%" id="text1246" x="245.512" y="74.797" space="preserve" transform="scale(1.03,0.971)"><tspan id="tspan1244" x="245.512" y="74.797"><tspan id="tspan1242" x="245.512" y="74.797">Q = 5 m3/h</tspan></tspan></text><text style="line-height:36.86055243%" id="text1252" x="245.599" y="89.475" space="preserve" transform="scale(1.03,0.971)"><tspan id="tspan1250" x="245.599" y="89.475"><tspan id="tspan1248" x="245.599" y="89.475">dp = 2,5 bar</tspan></tspan></text><text style="line-height:36.86055243%" id="text1258" x="244.958" y="122.307" space="preserve" transform="scale(1.03,0.971)"><tspan id="tspan1256" x="244.958" y="122.307"><tspan id="tspan1254" x="244.958" y="122.307">10 bar</tspan></tspan></text><text style="line-height:36.86055243%" id="text1264" x="245.526" y="140.657" space="preserve" transform="scale(1.03,0.971)"><tspan id="tspan1262" x="245.526" y="140.657"><tspan id="tspan1260" x="245.526" y="140.657">50 °C</tspan></tspan></text><text style="line-height:36.86055243%" id="text1270" x="141.957" y="74.867" space="preserve" transform="scale(1.03,0.971)"><tspan id="tspan1268" x="141.957" y="74.867"><tspan id="tspan1266" x="141.957" y="74.867">D = 1000</tspan></tspan></text><text style="line-height:36.86055243%" id="text1276" x="141.927" y="89.459" space="preserve" transform="scale(1.03,0.971)"><tspan id="tspan1274" x="141.927" y="89.459"><tspan id="tspan1272" x="141.927" y="89.459">H = 3000</tspan></tspan></text><text style="line-height:36.86055243%" id="text1282" x="142.685" y="104.072" space="preserve" transform="scale(1.03,0.971)"><tspan id="tspan1280" x="142.685" y="104.072"><tspan id="tspan1278" x="142.685" y="104.072">V = 2,4 m3</tspan></tspan></text><text style="line-height:36.86055243%" id="text1288" x="141.64" y="122.307" space="preserve" transform="scale(1.03,0.971)"><tspan id="tspan1286" x="141.64" y="122.307"><tspan id="tspan1284" x="141.64" y="122.307">10 bar</tspan></tspan></text><text style="line-height:36.86055243%" id="text1294" x="142.314" y="140.554" space="preserve" transform="scale(1.03,0.971)"><tspan id="tspan1292" x="142.314" y="140.554"><tspan id="tspan1290" x="142.314" y="140.554">50 °C</tspan></tspan></text><text style="line-height:36.86055243%" id="text1300" x="32.401" y="74.849" space="preserve" transform="scale(1.03,0.971)"><tspan id="tspan1298" x="32.401" y="74.849"><tspan id="tspan1296" x="32.401" y="74.849">Technische Daten</tspan></tspan></text><text style="line-height:36.86055243%" id="text1306" x="32.434" y="122.442" space="preserve" transform="scale(1.03,0.971)"><tspan id="tspan1304" x="32.434" y="122.442"><tspan id="tspan1302" x="32.434" y="122.442">Zulässiger Überdruck</tspan></tspan></text><text style="line-height:36.86055243%" id="text1312" x="32.727" y="140.579" space="preserve" transform="scale(1.03,0.971)"><tspan id="tspan1310" x="32.727" y="140.579"><tspan id="tspan1308" x="32.727" y="140.579">Zulässige Temperatur</tspan></tspan></text></g><rect id="rect1318" width="327.8" height="116.9" x="26.52" y="26.52" fill="none" stroke="#000" stroke-linejoin="round" stroke-width="1.24"/><path id="path1320" fill="none" stroke="#000" stroke-linecap="round" stroke-width=".638" d="M 204.2,417 90.8,417.1443"/><path id="path1322" fill="none" stroke="#000" stroke-linecap="round" stroke-width=".638" d="m 243.4,347.8 -39.22,69.29"/></svg>